<svg width="6" height="6" viewBox="0 0 6 6" fill="none" xmlns="http://www.w3.org/2000/svg">
<path d="M0.499853 5.95019C0.632535 5.95029 0.75982 5.89767 0.853707 5.80392L4.94971 1.70692L4.94971 4.47492C4.94971 4.60753 5.00239 4.7347 5.09615 4.82847C5.18992 4.92224 5.3171 4.97492 5.44971 4.97492C5.58232 4.97492 5.70949 4.92224 5.80326 4.82847C5.89703 4.7347 5.94971 4.60753 5.94971 4.47492L5.94971 0.499918C5.94971 0.367309 5.89703 0.240132 5.80326 0.146364C5.70949 0.0525956 5.58232 -8.25249e-05 5.44971 -8.25365e-05L1.47471 -8.2884e-05C1.3421 -8.28956e-05 1.21492 0.0525952 1.12115 0.146363C1.02739 0.240131 0.974707 0.367309 0.974707 0.499917C0.974707 0.632525 1.02739 0.759702 1.12115 0.85347C1.21492 0.947238 1.3421 0.999917 1.47471 0.999917L4.24271 0.999917L0.146707 5.09592C0.0528198 5.18967 2.34204e-05 5.31688 -7.05281e-05 5.44956C-0.000164477 5.58225 0.0524531 5.70953 0.146207 5.80342C0.239961 5.8973 0.367171 5.9501 0.499853 5.95019Z" fill="white"/>
</svg>
