<svg width="38" height="43" viewBox="0 0 38 43" fill="none" xmlns="http://www.w3.org/2000/svg">
<path d="M37.0601 29.5104L36.934 29.1288L36.8081 28.8744L36.598 28.62L36.43 28.8744V29.2136L36.094 29.6376L35.884 29.5528L35.9681 29.8072L35.8 30.104L35.3381 30.4432L35.044 30.7824H34.792L34.5821 30.8672L34.2881 30.9944H34.0361L33.952 31.376L33.7421 31.7152L33.784 32.224L33.868 32.6056L33.994 32.86L33.952 33.2416L33.7001 33.6656V33.8776L33.4481 33.9624L33.364 34.3864L33.4061 34.8104L33.6161 35.2768L33.6581 35.828L33.826 36.1248C34.0781 36.252 34.3301 36.3792 34.5821 36.5064L35.044 36.252L35.4641 36.1248L35.7161 35.4464C36.0101 34.3016 36.3881 33.1568 36.724 32.012L36.7661 31.5456L36.934 31.4184L36.9761 31.164L36.892 30.74L36.9761 30.5704L37.1441 30.9096L37.2281 30.74L37.2701 30.4856L37.1441 30.2312L37.0601 29.5104ZM37.438 15.4336L37.1861 15.6456L36.8501 15.688L36.64 15.7728H36.1781L35.9681 15.8576L35.7161 15.9L35.2121 16.112L34.6241 16.1968L34.12 16.324H33.868L33.6161 16.112L33.4901 15.9L33.322 15.8152L33.112 16.112L32.9861 16.0272L32.8601 15.9848H32.5661V15.8152L32.524 15.6456C32.65 15.476 32.7761 15.3064 32.9021 15.1368L33.154 15.1792L33.322 15.052L33.07 14.8824C32.8181 14.5856 32.566 14.3312 32.314 14.0344L31.5581 13.4832L31.18 13.2288L31.054 12.72L30.76 12.0416C30.5921 11.9144 30.4241 11.7872 30.2561 11.7024L30.0461 11.024L29.962 10.4304L30.0881 10.3032L29.92 9.7096L29.8361 9.5824L29.2061 9.0312V8.6496L29.3321 8.5648L28.8281 7.8864L28.6601 7.5472L28.4501 7.208L28.0301 6.2328L27.694 5.5968L27.484 4.9184L27.5261 4.876L27.904 5.7664C28.03 5.936 28.198 6.1056 28.324 6.2328L28.4501 6.1056L28.6181 5.7664L28.744 5.3L28.9121 5.0456C28.7861 4.664 28.6601 4.3248 28.5761 3.9432L28.2401 4.24L27.8201 4.1976L27.4001 4.028L27.232 4.24L27.064 3.9432L26.6861 3.8584L26.224 3.9008L26.014 4.0704L25.594 4.2824C25.174 4.1128 24.712 3.9856 24.292 3.816H23.5781L23.452 3.604L22.906 3.5192L22.7381 3.392H22.5281L22.3601 3.0952L21.646 2.968L21.2681 3.0528L20.8481 3.392L20.68 3.7312L20.8061 4.24L20.5541 4.5368L20.2601 4.664L19.6721 4.3672L18.916 4.1128L18.4121 3.9856L18.2021 3.392L17.4881 3.0952L17.0261 2.968L16.8161 3.0104L16.1861 2.7984L15.9761 2.7136L15.8501 2.4168H15.5561L15.4721 2.0776L15.7661 1.696L15.8501 1.1024L15.6821 0.9328V0.636L15.9341 0.2968L15.8921 0.1696L15.4301 0.424V0.0848L15.0941 0L14.5061 0.2968L14.1281 0.3392L13.9181 0.1696H13.3301L12.7841 0.424L12.4901 0.3392C11.8601 0.3816 11.2721 0.424 10.6841 0.5088L10.18 0.7208L9.84405 1.0176L9.25605 1.1448L8.75205 1.5264H8.50005L7.95405 1.3992L7.45005 1.4416L7.11405 1.1448H6.73605L6.56805 1.5688L6.19005 2.2472L5.77005 2.5016L5.22405 2.7984L4.88805 3.2224L4.80405 3.5616L4.59405 4.1128L4.72005 4.9184L4.30005 5.3848L4.04805 5.5544L3.62805 5.9784L3.12405 6.0632C3.04005 6.148 2.95605 6.2328 2.83005 6.3176L2.49405 6.9536L2.11605 7.1656L1.90605 7.5472V7.8864L1.78005 8.2256L1.61205 8.3104L1.31805 8.692L1.15005 9.116L1.10805 9.328L0.940051 9.6248L0.730051 9.7944C0.730051 9.964 0.688051 10.1336 0.688051 10.3032L0.940051 10.5576L1.06605 10.8544L1.02405 11.1512L1.10805 11.448L1.15005 11.9992L1.06605 12.5504L0.940051 12.8048L0.982051 13.1016L0.856051 13.3984L0.604051 13.78L0.352051 13.9072L0.604051 14.1192L0.814051 14.5432L0.730051 14.7976L0.814051 15.2216L0.856051 15.3488L1.02405 15.476V15.5608L1.19205 15.688L1.40205 15.7304L1.69605 15.9848L1.86405 16.0696L1.94805 16.1968L1.99005 16.4512L2.15805 16.536L2.28405 16.6208L2.49405 16.8328L2.74605 17.172L2.83005 17.596L2.91405 17.808L3.20805 18.1048L3.58605 18.3168L3.71205 18.3592L4.09005 18.6984L4.55205 18.9952L5.05605 19.4192L5.60205 19.6736H5.81205C6.10605 19.5464 6.44205 19.4616 6.73605 19.3344L7.36605 19.2496H7.70205L8.08005 19.3768H8.33205L8.83605 19.5464L9.34005 19.3768L9.63405 19.2072L10.4741 18.868L10.8941 18.7408L11.356 18.656H12.2381L12.616 19.0376L12.7841 19.4192L13.0781 19.7584H13.4981L13.7081 19.6312L13.9181 19.6736L14.4641 19.4616V19.6312L14.5901 19.716L14.7161 19.9704L14.9681 20.0552L15.1781 20.4368L15.0941 20.8608L14.9261 21.4544L15.0101 21.5392C14.9261 21.7936 14.8421 22.0904 14.7581 22.3448L14.7161 22.472V22.6416L15.0521 23.1928L15.4301 23.6592L15.9761 24.2104L16.4381 24.804L16.5641 25.228L16.6481 25.3976L16.6061 25.5248L16.8581 25.864C16.9421 26.1608 17.0261 26.4576 17.1521 26.7544L16.9841 26.9664L16.9001 27.0512C16.9841 27.2632 17.0681 27.5176 17.1941 27.7296L17.3621 27.9416L17.4041 28.2384L17.3621 28.6624L17.1941 28.9168L16.9001 29.2984L16.7741 29.5104L16.6061 30.0192L16.4801 30.2312L16.312 30.74L16.2281 31.2488C16.2701 31.5032 16.312 31.8 16.312 32.0544L16.732 32.6056L16.8581 32.9872L17.1521 33.708L17.4461 34.1744L17.656 34.4288L17.7401 34.768V35.4888L17.9081 36.4216L18.0341 36.8456L18.1601 37.4392L18.3701 37.9056L18.7901 38.372C19.1261 39.0504 19.4201 39.6864 19.7981 40.3224V40.8312L19.6301 40.9584L19.7981 41.3824V41.764L19.882 41.9336L19.9241 41.8488L20.1761 42.1456H20.3441L20.5541 42.4H20.8061L21.142 42.1456L21.6041 42.0608L22.1501 41.8064L22.3601 41.8488L22.6961 41.764L23.2841 41.8912L23.5361 41.764L23.872 41.8488L23.9561 41.6792L24.2501 41.6368L24.7961 41.3824L25.2161 41.0856C25.5521 40.7464 25.8881 40.4072 26.224 40.0256L26.5181 39.5592L26.6861 39.22L26.8961 38.8808C27.0641 38.7536 27.2321 38.6264 27.3581 38.4568L27.484 38.16L27.5681 37.6512L27.694 37.1848L27.7361 36.8456H27.6101L27.5681 36.5912L27.8201 36.3792C28.1981 36.2096 28.534 35.9976 28.9121 35.828L29.122 35.616L29.2061 35.3616L29.0801 35.2768L29.164 34.98V34.3864L29.0801 34.4288V34.2592L28.9541 33.92L28.702 33.496L28.744 33.072L28.9541 32.9448L29.3321 32.5208L29.542 32.436L30.1721 31.8C30.5501 31.6304 30.928 31.4608 31.264 31.2912L31.6 30.952L31.8101 30.5704L31.9781 30.1464L31.894 29.8496L31.852 28.9592L31.7681 28.4504L31.8101 27.8992L31.7261 27.6448L31.5161 27.5176L31.3061 26.9664L31.1381 26.6696L31.18 26.4152V26.2456L31.3481 25.9064V25.7792L31.0121 25.5672L30.9701 25.2704L31.222 24.592L31.4321 24.4224L31.5581 24.0408L31.7261 23.8288L31.8101 23.4472L32.0201 23.4048L32.1461 23.1928L32.524 22.9808L32.6501 22.8536L32.7761 22.5568L33.364 21.8784L33.868 21.4544L34.666 20.9032L35.2121 20.4792C35.59 20.0128 35.968 19.5888 36.3041 19.1224L36.7661 18.3168C36.9761 17.8928 37.1861 17.4264 37.354 17.0024L37.522 16.4088L37.6481 16.1968V15.3912H37.438V15.4336Z" fill="#22C3FF"/>
</svg>
