<svg width="45" height="39" viewBox="0 0 45 39" fill="none" xmlns="http://www.w3.org/2000/svg">
<path d="M0.25 7.33347C0.2 7.13117 0 7.03002 0 6.82771C0 6.67599 0.15 6.52426 0 6.37253L0.15 6.32196C-0.0999999 5.8162 -0.0500001 5.15872 0.55 5.10814C0.55 5.25987 0.4 5.25987 0.35 5.36102C0.3 5.46217 0.3 5.6139 0.35 5.71505C0.4 6.0185 0.55 6.27138 0.85 6.37253C0.75 6.37253 0.65 6.42311 0.6 6.47368C0.65 6.52426 0.65 6.57483 0.7 6.62541C0.45 6.57483 0.7 8.34498 1.05 7.94038C0.9 8.34498 1.35 8.29441 1.5 8.34498C1.5 8.14268 1.55 7.94038 1.6 7.73808C1.75 7.83923 1.8 7.99095 1.8 8.14268H1.6C1.6 8.24383 1.7 8.34498 1.8 8.39556C1.6 8.39556 1.45 8.49671 1.4 8.69901C1.55 8.69901 1.65 8.80016 1.8 8.85074C1.6 8.90132 1.4 8.95189 1.25 9.00247C1.25 9.10362 1.35 9.15419 1.45 9.10362V9.25534H1.6C1.45 9.40707 1.7 9.50822 1.75 9.3565C1.85 9.50822 1.7 9.65995 1.8 9.81168C1.85 9.91283 1.95 9.9634 2 10.014C2.05 10.1151 2.1 10.4186 2.3 10.2669C2.3 10.4692 2.55 10.368 2.6 10.6209C2.75 10.5703 2.75 10.4692 2.65 10.368H2.8C2.75 10.5703 3 10.8232 3.2 10.722C3.35 10.6715 3.4 10.4186 3.55 10.3174C3 10.6715 3.1 9.7611 3.4 9.81168C3.25 9.86225 3.2 10.0646 3.3 10.2163L3.65 10.0646L3.55 10.2163C3.7 10.2163 3.9 10.2163 3.95 10.368C3.95 10.2669 4 10.2669 4.05 10.2669C3.95 10.3174 4.35 10.1657 4.25 10.2163C4.4 10.2163 5.15 10.368 5.15 10.5703C5.25 10.5197 5.35 10.4186 5.45 10.3174C5.5 10.4692 5.7 10.7726 5.7 10.4186C5.8 10.5197 5.95 10.5703 6.05 10.4692C5.95 10.6715 6.2 10.5703 6.25 10.7726C6.5 10.4692 6.6 10.9243 6.65 11.1266L6.85 10.8232V10.9243H6.95C6.95 11.0255 7 11.0761 7.1 11.0255C6.85 11.2278 7.35 11.3289 7.25 11.0761C7.35 11.0761 7.45 11.1266 7.5 11.2278C7.65 10.8232 8.1 11.2784 7.75 11.3289C8.35 11.5818 8.65 11.9864 8.95 12.4922C8.8 12.5933 8.65 12.5428 8.5 12.5933C8.7 12.6439 8.75 12.6945 8.75 12.9474C8.8 12.8462 8.85 12.7956 9 12.7956C8.95 12.8968 8.95 12.9979 8.95 13.0991C9.3 12.7956 9.55 14.2118 9.6 14.4141C9.75 15.2738 9.55 16.1842 8.65 16.4877C8.95 16.7911 9.5 16.7405 9.85 16.5888C10.15 16.4371 10.3 15.9819 10.55 15.9313C10.95 15.8302 10.9 16.3359 10.8 16.5888C10.65 16.9428 10.3 17.1957 10.2 17.6003C10.6 17.6003 11.05 16.69 11.45 17.1957C11.8 17.6509 10.9 17.8532 10.8 18.2072C11.35 18.4601 11.7 17.8026 12.2 17.8026C12.1 17.7521 12 17.7521 11.85 17.7521C11.9 17.4992 11.85 17.044 12.15 16.9934C12.6 16.9428 12.6 17.6509 12.3 17.8026C12.5 17.8026 12.5 17.6003 12.6 17.4992C12.75 17.2969 12.95 17.1957 13.15 17.0946C13.65 16.7911 14.1 16.4371 14.6 16.1336C14.8 16.0325 15.1 15.8808 15.35 15.8808C15.5 15.8808 15.75 16.0325 15.95 15.9313C16.35 15.729 15.9 15.2233 15.85 14.9704C15.75 14.5152 16.2 14.2118 16.35 13.8072C16.55 13.3014 16.45 12.8462 16.75 12.3405C17 11.8853 17.7 10.8738 16.8 10.6715C16.9 10.4186 16.9 10.1151 16.95 9.86225C16.6 10.5197 15.9 11.2784 15.3 10.4186C14.85 9.7611 15.2 8.85074 15.5 8.19326C15.9 7.38405 16.65 7.08059 17.2 6.42311C17.45 6.11965 17.4 5.76562 17.5 5.41159C17.6 4.95641 17.95 4.60238 18.15 4.19778C17.85 4.09663 17.65 4.45066 17.4 4.50123C17.35 4.40008 17.4 4.24836 17.45 4.19778L17.3 3.9449C17.3 3.69202 17.4 3.48972 17.55 3.33799C17.65 3.23684 18 3.03454 17.6 2.93339C17.95 2.78166 18.5 2.42763 18.35 1.92188C18.3 1.77015 17.75 1.31497 18.15 1.21382C18.15 1.97245 18.8 1.11266 18.45 0.910362C18.55 0.809211 18.65 0.758635 18.75 0.758635L18.7 0.910362C19 0.910362 19 1.77015 19.4 1.56785C19.65 1.36554 19.4 0.80921 19.6 0.606908C19.7 0.505756 19.95 0.404605 20 0.606908C20.05 0.758635 19.75 0.960937 19.9 1.11266C20.1 1.31497 21.05 1.11266 21.45 0.960938C21.6 1.01151 21.6 1.26439 21.75 1.31497C22.05 0.657484 22.8 0.505757 23.45 0.455181C23.6 0.455181 23.8 0.455181 23.95 0.35403C24.05 0.303454 24.2 0.101151 24.3 0.101151C24.45 0.101151 24.45 0.303454 24.55 0.303454C24.7 0.303454 24.75 0.151727 24.7 0C24.95 0.151727 25 0.556332 25.3 0.657484C25.65 0.859786 25.85 0.505757 26.2 0.455181C26.6 0.404606 26.95 0.606908 27.3 0.708059C27.6 0.809211 27.95 0.80921 28.25 1.01151C28.55 1.21382 28.75 1.46669 29.05 1.669C29.4 1.8713 29.75 1.8713 30.1 1.92188C30.95 2.02303 31.85 2.47821 32.7 2.17475C32.6 2.22533 33 2.0736 32.95 2.0736C33.2 1.8713 33.4 1.669 33.5 2.12418C33.55 2.2759 33.45 2.42763 33.5 2.57936C33.5 2.73109 33.65 2.88281 33.55 3.08511L33.6 2.93339C33.5 3.03454 33.55 3.18627 33.6 3.33799C33.85 3.18627 33.9 3.18627 34.2 3.18627C34.15 3.33799 34 3.43914 33.85 3.33799C33.9 3.48972 34 3.59087 33.9 3.7426C34.05 3.69202 34.15 3.64145 34.25 3.5403C34.2 3.64145 34.15 3.7426 34.05 3.84375C34.35 3.99548 34.55 3.7426 34.75 3.59087C35.05 3.43914 35.35 3.38857 35.7 3.43914C36.4 3.5403 37 3.89433 37.6 4.09663C37.65 3.7426 38 3.99548 38 4.29893C37.8 4.19778 37.8 4.50123 37.9 4.60238C38 4.70354 38.25 4.65296 38.35 4.75411C38.25 4.45066 38.6 4.19778 38.8 4.50123C38.9 4.70354 38.75 5.00699 39.05 5.10814C38.95 4.95641 39.05 4.95641 39.05 4.90584L39.15 4.70354C40.15 3.69202 41.7 6.62541 40.85 6.92886C40.8 6.67599 40.65 6.87829 40.6 7.03002C40.5 7.28289 40.65 7.58635 40.75 7.83923C40.95 8.44613 41.9 10.8232 41.85 11.3795C41.85 11.8347 41.5 12.1887 41.05 11.9864C41.05 12.037 41.05 12.0876 41.05 12.0876C40.95 12.0876 40.85 12.0876 40.8 12.037C40.8 12.1382 40.75 12.2393 40.65 12.2393C40.65 11.9864 40.4 12.1382 40.25 12.1382C40.15 12.1382 39.8 12.1382 40.05 11.9359C39.9 11.7841 39.3 11.8853 39.5 12.1382C39.4 12.1887 39.3 12.2393 39.2 12.2393V12.391L39.65 12.3405C39.65 12.8968 37.85 12.1887 37.65 12.7451C37.45 13.4531 38.65 13.4025 39 13.4025C39.6 13.352 40.6 13.4025 40.8 14.1612C40.95 14.06 41.05 14.4141 41.2 14.4646L41.35 14.6164C41.65 15.021 42.3 14.8692 42.6 15.2738C42.75 15.4762 42.8 16.1336 43.25 16.0325V16.2348L43.35 16.0325C43.5 16.1336 43.85 16.2854 43.55 16.4371C44 16.69 43.85 17.2463 43.95 17.6509C44.05 18.1567 44.5 18.5107 45 18.5613C44.9 18.713 44.65 18.6624 44.55 18.8141C44.35 18.9659 44.4 19.1682 44.45 19.3705C44.5 19.8762 44.55 22.3544 44.2 22.3039C44.55 22.5062 44.25 22.8602 44 22.9613C44.85 23.9729 44.65 25.1361 43.8 26.097C43.45 26.5016 43 26.7545 43.25 27.3109C43.4 27.766 43.95 28.4235 43.3 28.727C43.1 28.8281 42.85 28.7775 42.7 28.9293C42.5 29.0304 42.5 29.2327 42.35 29.3845C42.2 29.5362 41.95 29.5362 41.75 29.6879C41.6 29.7891 41.5 29.9914 41.4 30.1937C41.35 30.3454 40.7 31.6604 40.7 31.6604C40.7 31.8627 40.7 32.0144 40.6 32.2167C40.55 32.3178 40.4 32.3178 40.35 32.4696C40.3 32.6213 40.45 32.7225 40.4 32.8742C40.35 33.0259 40.15 33.0259 40.05 33.1776C39.85 32.8236 39.25 33.0259 39.15 33.3294C39.05 33.5822 39.3 33.7845 39.3 34.0374C39.35 34.2903 39.2 34.5432 39.1 34.7961C38.95 35.0489 38.3 35.5547 38.5 35.8581C38.65 36.1616 39.15 36.0604 39.2 36.465C38.7 36.3639 38.5 36.3639 38.3 35.8581C38.1 36.111 37.8 36.1616 37.5 36.2627C37 36.5662 35.85 37.0214 35.55 37.2237C35.4 37.3248 35.1 37.6789 34.95 37.4766C34.9 37.6789 34.75 37.6283 34.65 37.5271C34.6 37.6789 34.6 37.8812 34.4 37.8812C34.2 37.8306 34.25 37.5777 34.25 37.426C34.1 37.4766 33.35 37.78 33.45 37.3754C33.35 37.6283 33.3 37.78 33.05 37.8306C33.1 37.426 32.1 37.7294 32.05 37.9317C31.85 37.8306 31.95 37.5271 31.7 37.4766C31.7 38.0835 30.7 37.5777 31.2 38.3869C31 38.3869 30.85 38.3869 30.7 38.2858C30.6 38.1846 30.6 38.0329 30.45 37.9823C30.2 37.8812 29.8 38.1846 29.85 38.4375C29.35 38.2858 28.9 38.0835 28.4 37.9317C28.3 37.8812 27.75 37.8812 27.75 37.7294C27.7 38.134 27.35 37.5777 27.15 37.6283C27.25 37.8306 26.95 37.8306 26.8 37.8306C26.65 37.8306 26.55 37.78 26.4 37.78C26.3 37.78 26.2 37.9317 26.05 37.8812L26.1 37.7294C25.6 37.7294 25.2 37.3754 24.75 37.1731C24.75 37.2743 24.75 37.3754 24.8 37.4766C24.6 37.2237 24.6 36.9708 24.65 36.6674C24.65 36.5662 24.8 36.3133 24.6 36.3639C24.5 35.8581 24.9 35.5547 25 35.0995C25.2 35.403 25.5 34.7961 25.65 34.6443L25.5 34.5432C25.95 34.3914 25.75 34.1386 25.55 33.8857C25.65 33.9868 25.9 33.9363 25.8 33.7845H25.9C25.85 33.734 25.85 33.6328 25.85 33.5317C26 33.6328 26.1 33.9363 26.2 33.6328C26.25 33.4305 25.95 33.2282 26.15 33.0259C25.85 33.0259 25.9 32.6719 25.85 32.4696C25.75 32.1661 25.45 31.8627 25.6 31.5592C25.4 31.5592 25.15 31.2052 25.15 31.0029C24.8 31.2052 24.95 30.5477 24.95 30.396C24.8 30.396 24.75 30.5477 24.65 30.6488C24.55 30.4465 24.5 30.3454 24.3 30.2442C24.8 30.5477 25.15 29.6879 25.25 29.3339C25.35 29.0304 25.3 28.5752 25.25 28.2718C25.2 28.1706 25.35 28.1201 25.2 28.0695C25.05 28.0189 25 28.2212 24.9 28.2718C24.85 28.2212 24.9 28.0695 25 28.0695C24.8 28.1706 24.75 27.9683 24.85 27.8166C24.65 27.8166 24.45 27.3614 24.6 27.2097C24.2 27.1086 24 26.7039 23.7 26.4511C23.5 26.2993 23 25.9959 23.25 25.6924C23.05 25.8947 22.8 25.5913 22.65 25.4396C22.2 25.1361 21.4 24.8832 21.2 24.7315C21.05 24.6303 20.95 24.3269 20.75 24.3269C20.9 23.7706 19.95 23.5177 19.7 23.2142C19.4 23.4671 18.55 22.6579 18.75 23.366C18.85 23.6694 19.15 23.8211 19.2 24.1246C19.3 24.428 19.15 24.7821 19 25.035C18.85 25.2878 18.6 25.4901 18.55 25.7936C18.45 26.0465 18.45 26.4005 18.4 26.6534C18.4 26.8051 18.55 27.2603 18.45 27.3614C18.25 27.5637 18.05 27.2097 17.95 27.1086C17.8 26.9062 17.65 26.7039 17.4 26.7039C17.1 26.7039 16.75 26.9568 16.65 27.2097C16.35 27.766 16.8 28.3224 17.1 28.7775C17.25 29.0304 17.45 29.2833 17.25 29.5362C17.15 29.6879 16.85 29.7385 17.05 29.9914C17.2 30.1431 17.45 30.0925 17.5 30.3454C17.6 30.5983 17.3 31.0029 17.1 31.104C17.1 31.0029 17.05 30.8511 16.95 30.8006C16.8 31.1546 16.05 30.6488 16.4 30.3454C16.25 30.2442 16.1 30.2442 15.95 30.0925C15.85 29.9914 15.95 29.7891 15.8 29.7385C15.75 29.9408 15.3 29.8396 15.1 29.9408V29.6373C14.85 29.7385 15 29.9914 14.65 29.9914L14.7 30.1431H14.55C14.65 30.2948 14.6 30.4971 14.7 30.5983C14.8 30.75 15 30.75 15.1 30.8511C14.7 31.3063 14.55 30.4971 14.3 30.396C14.2 31.0029 13.55 30.75 13.2 30.5983C12.85 30.4971 12.5 30.3454 12.15 30.2948C11.8 30.2442 11.35 30.2442 11.1 29.9914C11.45 29.5868 10.55 28.9798 10.3 28.7775C9.95 28.4741 8.9 27.0074 8.7 26.6028C8.55 26.8051 8.55 26.5016 8.5 26.4005C8.4 26.1476 8.3 25.9453 8.05 25.8442C7.9 25.7936 7.65 25.8947 7.7 25.6419C7.75 25.4396 8.05 25.3384 8.2 25.3384C8.15 25.2373 8.15 25.1867 8.3 25.1361C8.15 24.8326 7.75 25.2878 7.55 25.035C7.4 24.7821 7.75 24.6809 7.9 24.6303C8.15 24.5798 8.35 24.6809 8.35 24.3269C8.35 24.074 8.15 23.72 8.05 23.5177C7.9 23.1131 7.8 22.8096 7.8 22.405C7.8 22.1521 7.8 21.8487 7.5 21.8993C7.1 21.8993 6.65 22.6579 6.6 23.0119C6.5 23.0119 6.45 23.0119 6.35 23.0119C6.35 22.9108 6.45 22.051 6.15 22.1521C6 22.2027 6.05 22.6579 6.05 22.759C6.05 22.9613 6.1 23.1637 5.9 23.2648C5.75 23.366 5.65 23.3154 5.6 23.1637C5.55 23.0119 5.7 22.759 5.7 22.6073C5.7 22.3039 5.6 22.0004 5.6 21.697L5.7 21.7475C5.7 21.4441 5.7 18.713 5 19.2188C4.9 18.9153 5.25 19.0164 5.4 18.9153C5.7 18.7636 5.65 18.359 5.4 18.1567C5.75 18.1567 6.25 17.6509 6.3 17.2969C6.3 17.0946 5.85 16.69 5.95 16.5382C5.85 16.5382 5.75 16.5382 5.65 16.5888C5.65 16.3865 5.95 15.9819 6.2 16.1842C6.2 15.9819 6.25 15.8302 6.3 15.6279C6.35 15.6785 6.45 15.729 6.55 15.7796C6.4 15.6279 6.5 15.375 6.55 15.1727C6.6 14.8692 6.5 14.6164 6.5 14.3129C6.45 13.8072 6.6 13.2508 6.25 12.8462C5.95 12.4922 5.45 12.4416 5.05 12.3405C4.45 12.2393 3.85 11.9864 3.25 12.0876L3.3 11.8853L3.2 11.8347C3.6 11.6324 3.15 10.9749 3 11.3795C3 11.2278 2.6 11.0255 2.5 11.0761L2.55 10.9243C2.25 11.0255 2.15 10.6715 2 10.722V10.5197C1.85 10.5703 1.85 10.8232 1.65 10.8232C1.45 10.8232 1.45 10.5703 1.3 10.4692C1.75 10.368 0.55 9.7611 0.95 9.50822C0.7 9.5588 0.95 9.20477 0.9 9.15419C0.85 9.15419 0.8 9.15419 0.75 9.20477C0.8 9.10362 0.75 9.00247 0.6 9.00247L0.7 8.90131H0.6L0.65 8.80017C0.35 8.90132 0.1 8.44613 0.4 8.34498C0.15 8.29441 0.3 8.0921 0.35 7.94038C0.25 7.99095 0.15 7.99095 0.15 7.83923C0.45 7.8898 0.15 7.4852 0.25 7.33347Z" fill="#22C3FF"/>
</svg>
