<svg width="41" height="41" viewBox="0 0 41 41" xmlns="http://www.w3.org/2000/svg">
    <g fill="#22C3FF" fill-rule="nonzero">
        <path d="M35.882 3.462a.608.608 0 0 1 .788.082l1.666 1.761a.457.457 0 0 0 .677-.615L35.1.206a.608.608 0 0 0-.458-.208h-2.728c-.04 0-.08.004-.119.012l-1.926.385a.6.6 0 0 0-.2.076l-1.271.77a.607.607 0 0 1-.368.085l-2.3-.2a.606.606 0 0 1-.271-.092l-1.393-.88a.607.607 0 0 0-.522-.061l-2.513.871a.638.638 0 0 0-.079.033l-1.888.966a.588.588 0 0 1-.147.052l-1.165.249a.609.609 0 0 1-.456-.081l-.579-.369a.608.608 0 0 0-.493-.071l-.672.192a.635.635 0 0 1-.082.018l-1.684.237a.608.608 0 0 1-.5-1.044.458.458 0 0 0 .135-.423l-.045-.225a.457.457 0 0 0-.8-.209l-.786.912a.593.593 0 0 1-.094.088l-1.343 1.02a.588.588 0 0 0-.195.261l-.119.323a.608.608 0 0 1-.373.364l-1.772.607a.606.606 0 0 0-.342.294l-.939 1.8a.6.6 0 0 0-.068.257L6.47 8.122a.608.608 0 0 1-.29.494l-.889.545a.608.608 0 0 0-.289.488l-.066 1.329a.582.582 0 0 1-.15.361l-.219.242a.608.608 0 0 1-.957-.071l-.532-.8a.608.608 0 0 0-.664-.25l-.41.11a.608.608 0 0 0-.441.484l-.2 1.186a.608.608 0 0 0 .2.559l.431.379a.608.608 0 0 1 .038.876l-1.316 1.38a.608.608 0 0 0-.166.377l-.404 5.712a.615.615 0 0 0 0 .129l.612 4.243a.608.608 0 0 0 .6.521h3.488a.607.607 0 0 0 .444-.193l.832-.889a.607.607 0 0 0 .056-.761l-.9-1.309a.608.608 0 0 0-.452-.261l-.406-.033a.608.608 0 0 1-.55-.5l-.5-2.759a.457.457 0 0 1 .319-.519l.1-.031a.458.458 0 0 1 .569.3l.655 2.139a.608.608 0 0 0 .4.4l.374.118a.608.608 0 0 1 .323.242l.257.386a.609.609 0 0 0 .23.2l2.561 1.3a.6.6 0 0 1 .214.182l2.1 2.855.119.18.706 3.2c.007.07.025.137.055.2l1.554 3.28a.606.606 0 0 0 .218.249l1.257.817a.608.608 0 0 0 .8-.123l.166-.2a.456.456 0 0 0 .095-.382l-.52-2.56a.609.609 0 0 1 .046-.381l.672-1.419a.607.607 0 0 1 .231-.257l2.665-1.64a.607.607 0 0 1 .431-.08l1.676.314a.608.608 0 0 1 .448.362l.717 1.721a.608.608 0 0 0 .468.365l1.175.181a.608.608 0 0 1 .443.313l.408.758a.608.608 0 0 1 .064.383l-.131.787a.6.6 0 0 0 .009.243l.319 1.315a.61.61 0 0 0 .076.18l.306.486a.582.582 0 0 1-.571.887.582.582 0 0 0-.474 1l1.671 1.545c.024.023.05.043.078.061l1.77 1.167a.461.461 0 0 0 .474.018l.253-.135a.458.458 0 0 0 .209-.554l-.246-.683a.617.617 0 0 0-.119-.2l-.5-.84-.07-.288a.607.607 0 0 0 .007-.449l-.366-.966a.608.608 0 0 0-.187-.258l-1.26-1.016a.607.607 0 0 1-.057-.895l.413-.43a.608.608 0 0 1 .671-.14l1.233.511a.607.607 0 0 0 .553-.045l1.465-.907a.609.609 0 0 0 .275-.389l.161-.75a.608.608 0 0 0-.136-.526l-.974-1.12a.608.608 0 0 1 .337-.994l1.044-.213a.608.608 0 0 0 .347-.202l1.124-1.357a.609.609 0 0 0 .12-.233l.135-.513a.606.606 0 0 1 .275-.366l1.015-.609a.61.61 0 0 0 .244-.278l1.442-3.3a.608.608 0 0 0 0-.481l-.418-.986a.608.608 0 0 0-.1-.16l-.914-1.061c-.06-.07-.15-.1-.194-.194l-.113-.418.3-.76a.457.457 0 0 0-.292-.718l-.293-.051a.608.608 0 0 1-.426-.9l.053-.094a.583.583 0 0 1 .543-.3l.863.052a.609.609 0 0 1 .472.275l.9 1.376a.608.608 0 0 0 .949.087l.121-.127a.582.582 0 0 0 .1-.655l-1.146-2.359a.609.609 0 0 1 .061-.63l.3-.4a1.51 1.51 0 0 1 .38-.366l.052-.287-.371-4.45a.589.589 0 0 0-.118-.258l-.8-1a.458.458 0 0 0-.546-.131l-.185.085a.458.458 0 0 1-.636-.316l-.436-1.931a.609.609 0 0 1 .245-.635l1.23-.853zM39.946 12.288l.107-.31.023-.464-.244-.417a.59.59 0 0 0-.775.633l.052.406a.6.6 0 0 0 .1.264l.775 1.11a.591.591 0 0 1 .106.363l-.08 1.807a.59.59 0 0 1-.086.281l-1.259 2.07a.59.59 0 0 0 .164.788.59.59 0 0 0 .872-.228l.747-1.559a.554.554 0 0 0 .033-.084l.346-1.142a.591.591 0 0 0 .022-.235l-.18-1.662a.594.594 0 0 0-.094-.265l-.629-1.356zM35.242 33.768a.654.654 0 0 0-.4.245l-1.307 1.707a.658.658 0 0 1-.182.163l-1.684 1.015a.653.653 0 0 0-.31.648l.046.336a.654.654 0 0 0 .694.564l2.005-.143a.651.651 0 0 0 .487-.275l1.02-1.44a.654.654 0 0 0 .113-.468l-.09-.65a.652.652 0 0 1 .11-.465l.154-.22a.653.653 0 0 0-.194-.93.654.654 0 0 0-.462-.087z"/>
    </g>
</svg>
