<svg width="41" height="41" viewBox="0 0 41 41" xmlns="http://www.w3.org/2000/svg">
    <path d="m6.537 33.769.5-2.684-3.685-2.117 4.05-1.415 2.89-1.059 1.182-1.876 2.23-.58-.579-3.426 2.425-1.05v1.445l.58 2.271 2.174-.646 2.016.646 2.069-1.2 1.371.558 1.454-3.65 1.827.584v-1.172l-.707-.958 1.81-1.028 2.073.553v3.461l2.192.786 1.542 2.829 3.018 2.583 3.2.615-.883 2.214-3.022 1.406v1.414l-1.661.088-.65-1.5-1.542-.352-1.454 4.5-3.457 1.393.615 2.315-.707 1.586-1.6-.79-1.362-3.11.088-1.13-5.57-3.8-1.432.351.773 1.5 1.437 2.029 2.069 1.53-1.489.438-1.217 2.183-.8-2.183-1.863-2.056-1.687-1.942-2.056.883-2.688-.444-.522 1.59-1.507 1.968v.84l-2.205 2.03-2.81.636L.83 39.504V33.33l5.706.439zm12.036-14.698-2.187-4.406-2.583 1.911-1.739-1.155v-2.939l1.739-1.766 2.583-1.5 5.166-6.567 4.4-1.059L28.522 0l4.538.971-.422.62-1.986 2.292 1.2 1.414-.514.971.514 3.268 1.2 1.182-2.847 3.11-4.037.356-1.037-.356.58-3.11 2.8-2.245-2.925-1.059-1.617 1.8-2.517 2.144.088 2.469 1.01.839-.431 1.335-.922 2.363-1.322-.066-.076.773h-1.226z" fill="#22C3FF" fill-rule="evenodd"/>
</svg>
