<svg width="276" height="276" viewBox="0 0 276 276" fill="none" xmlns="http://www.w3.org/2000/svg">
<g filter="url(#filter0_f)">
<ellipse cx="139.284" cy="172.341" rx="87.9349" ry="39.1535" fill="#010A15"/>
</g>
<path opacity="0.4" d="M138.163 243.587C110.391 243.587 82.6193 237.347 61.5452 224.698C40.9612 212.386 29.5256 196.026 29.5256 178.654C29.5256 161.282 40.7978 144.922 61.3818 132.779C103.693 107.649 172.47 107.649 214.618 132.779C235.202 145.091 246.474 161.282 246.474 178.654C246.474 196.026 235.202 212.386 214.618 224.529C193.544 237.178 165.772 243.587 138.163 243.587ZM138.163 114.733C110.555 114.733 82.946 120.973 62.0353 133.454C41.778 145.597 30.6692 161.62 30.6692 178.654C30.6692 195.688 41.778 211.711 62.0353 223.854C104.02 248.816 172.47 248.816 214.455 223.854C234.712 211.711 245.821 195.688 245.821 178.654C245.821 161.62 234.712 145.597 214.455 133.454C193.217 120.973 165.609 114.733 138.163 114.733Z" fill="#52C1FF"/>
<path opacity="0.2" d="M138.164 260.276C102.762 260.276 67.5249 252.418 40.6461 236.535C14.4228 220.986 0 200.588 0 178.686C0 156.784 14.4228 136.387 40.4822 121.005C94.2399 89.4061 181.76 89.2389 235.518 121.005C261.741 136.387 276 156.951 276 178.686C276 200.588 261.577 220.986 235.518 236.367C208.803 252.251 173.401 260.276 138.164 260.276ZM138.164 98.1001C102.926 98.1001 67.6888 105.958 40.9739 121.841C15.0784 137.056 0.819477 157.286 0.819477 178.686C0.819477 200.254 15.0784 220.317 40.9739 235.699C94.5677 267.298 181.596 267.298 235.19 235.699C261.086 220.484 275.344 200.254 275.344 178.686C275.344 157.119 261.086 137.056 235.19 121.674C208.475 106.125 173.238 98.1001 138.164 98.1001Z" fill="#52C1FF"/>
<path d="M138.082 226.384C116.133 226.384 94.1839 221.65 77.4765 212.017C61.2605 202.711 52.2516 190.14 52.2516 176.916C52.2516 163.691 61.2605 151.12 77.4765 141.814C110.891 122.549 165.272 122.549 198.523 141.814C214.739 151.12 223.748 163.691 223.748 176.916C223.748 190.14 214.739 202.711 198.523 212.017C181.816 221.487 159.867 226.384 138.082 226.384ZM138.082 128.1C116.297 128.1 94.5115 132.835 77.9679 142.467C61.9157 151.61 53.2344 163.855 53.2344 176.753C53.2344 189.65 62.0795 201.895 77.9679 211.038C111.055 230.14 165.109 230.14 198.196 211.038C214.248 201.895 222.929 189.65 222.929 176.753C222.929 163.855 214.084 151.61 198.196 142.467C181.488 132.998 159.703 128.1 138.082 128.1Z" fill="#52C1FF"/>
<path d="M210.136 78.7027L145.287 9.02537L80.4393 3.85132C80.4393 3.85132 70.0912 91.8103 145.287 184.943C220.656 178.562 210.136 78.7027 210.136 78.7027Z" fill="url(#paint0_linear)"/>
<path d="M80.4393 3.85132L65.9519 12.3023L130.8 17.4763L145.287 9.02537L80.4393 3.85132Z" fill="url(#paint1_linear)"/>
<path d="M195.648 87.1534L130.8 17.4761L104.067 14.889L65.9518 12.302C65.9518 12.302 55.6036 100.261 130.8 193.394C205.996 187.013 195.648 87.1534 195.648 87.1534Z" fill="url(#paint2_linear)"/>
<path d="M195.648 87.1534L130.8 17.4761L65.9519 12.302C67.8491 11.2672 67.8491 11.2672 67.8491 11.2672L133.56 16.6137L198.235 86.1186C198.235 86.1186 206.859 169.593 150.979 188.737C203.927 167.869 195.648 87.1534 195.648 87.1534Z" fill="#B3E5FE"/>
<path d="M187.715 88.1885L129.42 25.5824L105.447 23.1679L71.1259 20.9258C71.1259 20.9258 61.8126 99.9164 129.42 183.736C197.028 178.045 187.715 88.1885 187.715 88.1885Z" fill="url(#paint3_linear)"/>
<g opacity="0.5" filter="url(#filter1_f)">
<path d="M137.615 170.159L98.2047 147.437C95.3805 145.769 95.7656 142.944 98.9749 141.019C102.313 139.093 107.191 138.965 110.015 140.505L149.425 163.227C152.249 164.896 151.864 167.72 148.655 169.646C145.317 171.571 140.439 171.828 137.615 170.159Z" fill="black"/>
</g>
<path d="M96.2791 85.0485V132.418C96.2791 133.445 96.9209 134.472 98.2046 135.114L137.615 157.835C140.439 159.504 145.446 159.248 148.655 157.322C150.452 156.295 151.351 154.883 151.351 153.599V106.358L96.2791 85.0485Z" fill="url(#paint4_linear)"/>
<path opacity="0.3" d="M140.567 158.862C143.263 159.247 146.344 158.734 148.655 157.45C150.452 156.423 151.351 155.011 151.351 153.727V106.358L140.696 102.25H140.439V158.862H140.567Z" fill="#24126A"/>
<path d="M137.615 110.466L98.2047 87.7445C95.3805 86.0756 95.7656 83.2514 98.9749 81.3258C102.313 79.4003 107.191 79.2719 110.015 80.8124L149.425 103.663C152.249 105.331 151.864 108.156 148.655 110.081C145.317 112.007 140.439 112.135 137.615 110.466Z" fill="url(#paint5_linear)"/>
<path d="M141.466 107.514C139.54 107.514 138 105.973 138 104.048V82.9945C138 75.8057 132.737 66.6913 126.575 63.0968L117.589 57.8336C115.15 56.5499 113.096 56.1648 111.684 56.935C110.272 57.7052 109.501 59.7592 109.501 62.455V83.508C109.501 85.4336 107.961 86.9741 106.035 86.9741C104.238 86.9741 102.698 85.562 102.698 83.6364V62.5834C102.698 57.1917 104.752 53.2122 108.218 51.0299C111.812 48.9759 116.305 49.2327 120.926 51.9285L129.913 57.1917C138.257 62.0699 144.804 73.3666 144.804 82.9945V104.048C144.932 105.973 143.392 107.514 141.466 107.514Z" fill="url(#paint6_linear)"/>
<defs>
<filter id="filter0_f" x="42.9547" y="124.793" width="192.658" height="95.0953" filterUnits="userSpaceOnUse" color-interpolation-filters="sRGB">
<feFlood flood-opacity="0" result="BackgroundImageFix"/>
<feBlend mode="normal" in="SourceGraphic" in2="BackgroundImageFix" result="shape"/>
<feGaussianBlur stdDeviation="4.19708" result="effect1_foregroundBlur"/>
</filter>
<filter id="filter1_f" x="92.3065" y="135.451" width="63.0167" height="39.8147" filterUnits="userSpaceOnUse" color-interpolation-filters="sRGB">
<feFlood flood-opacity="0" result="BackgroundImageFix"/>
<feBlend mode="normal" in="SourceGraphic" in2="BackgroundImageFix" result="shape"/>
<feGaussianBlur stdDeviation="2" result="effect1_foregroundBlur"/>
</filter>
<linearGradient id="paint0_linear" x1="126.589" y1="77.5056" x2="321.502" y2="137.317" gradientUnits="userSpaceOnUse">
<stop stop-color="#0E3066"/>
<stop offset="0.907" stop-color="#0364AE"/>
<stop offset="1" stop-color="#0063AD"/>
</linearGradient>
<linearGradient id="paint1_linear" x1="145.342" y1="10.6845" x2="65.9247" y2="10.6845" gradientUnits="userSpaceOnUse">
<stop stop-color="#0063AD"/>
<stop offset="1" stop-color="#2573BA"/>
</linearGradient>
<linearGradient id="paint2_linear" x1="65.4342" y1="67.7314" x2="196.076" y2="67.7314" gradientUnits="userSpaceOnUse">
<stop stop-color="#7BDAFF"/>
<stop offset="1" stop-color="#59BDEF"/>
</linearGradient>
<linearGradient id="paint3_linear" x1="201.783" y1="-95.3673" x2="-56.9471" y2="220.878" gradientUnits="userSpaceOnUse">
<stop stop-color="#1F3A64"/>
<stop offset="0.788074" stop-color="#031734"/>
</linearGradient>
<linearGradient id="paint4_linear" x1="103.181" y1="122.036" x2="158.251" y2="122.036" gradientUnits="userSpaceOnUse">
<stop stop-color="#52C1FF"/>
<stop offset="0.1443" stop-color="#52C1FF"/>
<stop offset="0.6461" stop-color="#298BC2"/>
<stop offset="0.873" stop-color="#1C6085"/>
</linearGradient>
<linearGradient id="paint5_linear" x1="45.1442" y1="95.7302" x2="181.039" y2="95.7302" gradientUnits="userSpaceOnUse">
<stop stop-color="#E9E9FD"/>
<stop offset="1" stop-color="#5BBEF0"/>
</linearGradient>
<linearGradient id="paint6_linear" x1="82.6955" y1="70.8607" x2="181.114" y2="87.763" gradientUnits="userSpaceOnUse">
<stop stop-color="#4091D0"/>
<stop offset="0.1443" stop-color="#4091D0"/>
<stop offset="0.3696" stop-color="#4091D0"/>
<stop offset="0.6461" stop-color="#1B5D83"/>
<stop offset="0.873" stop-color="#1D6487"/>
</linearGradient>
</defs>
</svg>
