<svg width="276" height="276" viewBox="0 0 276 276" fill="none" xmlns="http://www.w3.org/2000/svg">
<path opacity="0.4" d="M138.163 251.609C110.391 251.609 82.6192 245.369 61.5451 232.72C40.9611 220.408 29.5256 204.048 29.5256 186.676C29.5256 169.304 40.7978 152.944 61.3818 140.801C103.693 115.671 172.47 115.671 214.618 140.801C235.202 153.113 246.474 169.304 246.474 186.676C246.474 204.048 235.202 220.408 214.618 232.551C193.544 245.2 165.772 251.609 138.163 251.609ZM138.163 122.755C110.555 122.755 82.946 128.995 62.0352 141.476C41.778 153.619 30.6691 169.642 30.6691 186.676C30.6691 203.71 41.778 219.733 62.0352 231.876C104.02 256.838 172.47 256.838 214.455 231.876C234.712 219.733 245.821 203.71 245.821 186.676C245.821 169.642 234.712 153.619 214.455 141.476C193.217 128.995 165.609 122.755 138.163 122.755Z" fill="#52C1FF"/>
<path opacity="0.2" d="M138.164 268.298C102.762 268.298 67.5249 260.44 40.6461 244.557C14.4228 229.008 0 208.61 0 186.708C0 164.806 14.4228 144.409 40.4822 129.027C94.2399 97.4281 181.76 97.2609 235.518 129.027C261.741 144.409 276 164.973 276 186.708C276 208.61 261.577 229.008 235.518 244.389C208.803 260.273 173.401 268.298 138.164 268.298ZM138.164 106.122C102.926 106.122 67.6888 113.98 40.9739 129.863C15.0784 145.078 0.819477 165.308 0.819477 186.708C0.819477 208.276 15.0784 228.339 40.9739 243.721C94.5677 275.32 181.596 275.32 235.19 243.721C261.086 228.506 275.344 208.276 275.344 186.708C275.344 165.141 261.086 145.078 235.19 129.696C208.475 114.147 173.238 106.122 138.164 106.122Z" fill="#52C1FF"/>
<path d="M138.082 234.406C116.133 234.406 94.184 229.672 77.4766 220.039C61.2605 210.733 52.2516 198.162 52.2516 184.938C52.2516 171.713 61.2605 159.142 77.4766 149.836C110.891 130.571 165.272 130.571 198.523 149.836C214.739 159.142 223.748 171.713 223.748 184.938C223.748 198.162 214.739 210.733 198.523 220.039C181.816 229.509 159.867 234.406 138.082 234.406ZM138.082 136.122C116.297 136.122 94.5116 140.857 77.968 150.489C61.9157 159.632 53.2344 171.877 53.2344 184.775C53.2344 197.672 62.0795 209.917 77.968 219.06C111.055 238.161 165.109 238.161 198.196 219.06C214.248 209.917 222.929 197.672 222.929 184.775C222.929 171.877 214.084 159.632 198.196 150.489C181.488 141.02 159.703 136.122 138.082 136.122Z" fill="#52C1FF"/>
<g opacity="0.5" filter="url(#filter0_f)">
<path d="M127.579 246.372L46.5412 199.567C40.3522 196.086 41.1258 189.897 48.2819 185.642L125.838 140.772C132.994 136.71 143.632 136.13 149.821 139.805L230.859 186.609C237.048 190.091 236.274 196.28 229.118 200.535L151.562 245.405C144.599 249.467 133.768 249.853 127.579 246.372Z" fill="#010306"/>
</g>
<path d="M245.438 145.522V128.695H202.308L151.248 99.2974C144.479 95.4293 132.488 95.8161 124.558 100.458L75.4324 128.695H32.1091V146.489C31.9157 149.197 33.463 151.711 36.7509 153.645L126.492 205.478C133.261 209.346 145.253 208.959 153.182 204.318L239.055 154.612C243.504 152.098 245.824 148.616 245.438 145.522Z" fill="#05275A"/>
<path opacity="0.5" d="M245.438 145.522V128.695H202.308L151.248 99.2974C144.479 95.4293 132.488 95.8161 124.558 100.458L75.4324 128.695H32.1091V146.489C31.9157 149.197 33.463 151.711 36.7509 153.645L126.492 205.478C133.261 209.346 145.253 208.959 153.182 204.318L239.055 154.612C243.504 152.098 245.824 148.616 245.438 145.522Z" fill="url(#paint0_linear)"/>
<path d="M151.248 99.2976C147.96 97.3635 143.512 96.5898 138.87 96.5898V207.993C143.898 207.799 149.12 206.639 153.182 204.318L239.055 154.612C243.503 151.904 245.824 148.616 245.631 145.522V128.695H202.308L151.248 99.2976Z" fill="url(#paint1_linear)"/>
<path d="M126.492 187.685L36.751 135.851C29.9817 131.983 30.7553 125.021 38.6851 120.572L124.558 70.8665C132.488 66.2248 144.286 65.838 151.248 69.7061L240.989 121.539C247.759 125.407 246.985 132.37 239.055 136.819L153.182 186.524C145.253 191.166 133.261 191.553 126.492 187.685Z" fill="#05275A"/>
<path opacity="0.5" d="M126.492 187.685L36.751 135.851C29.9817 131.983 30.7553 125.021 38.6851 120.572L124.558 70.8665C132.488 66.2248 144.286 65.838 151.248 69.7061L240.989 121.539C247.759 125.407 246.985 132.37 239.055 136.819L153.182 186.524C145.253 191.166 133.261 191.553 126.492 187.685Z" fill="url(#paint2_linear)"/>
<path d="M128.813 176.273L56.4783 134.497C51.0629 131.403 51.6431 125.794 58.0255 122.119L127.265 82.0839C133.648 78.4091 143.125 78.0223 148.734 81.1168L221.068 122.893C226.483 125.987 225.903 131.596 219.521 135.271L150.281 175.306C143.898 178.981 134.422 179.368 128.813 176.273Z" fill="#52C1FF"/>
<path d="M58.0258 127.535L127.266 87.4995C133.648 83.8247 143.125 83.4379 148.734 86.5324L221.068 128.308C222.422 129.082 223.389 130.049 223.969 131.016C225.517 128.115 224.55 125.021 221.068 122.893L148.734 81.3104C143.318 78.2159 133.648 78.6027 127.266 82.2775L58.0258 122.119C53.1906 124.827 51.6433 128.695 53.5774 131.79C54.351 130.243 55.8983 128.695 58.0258 127.535Z" fill="#52C1FF"/>
<path opacity="0.5" d="M129.586 187.684L39.6518 135.851C32.8825 131.983 31.1419 126.181 41.5859 120.572L127.459 70.8662C131.327 68.5453 136.162 67.3848 140.997 67.1914C135.389 66.998 129.199 68.1585 124.558 70.8662L38.6848 120.572C30.755 125.214 29.9814 131.983 36.7507 135.851L126.492 187.684C129.973 189.618 134.808 190.585 139.643 190.392C135.775 190.199 132.294 189.232 129.586 187.684Z" fill="url(#paint3_linear)"/>
<path opacity="0.5" d="M239.055 144.362L153.182 194.067C145.253 198.709 133.455 199.096 126.492 195.228L36.7509 143.394C33.463 141.46 31.9157 138.946 32.1091 136.238V139.913C31.9157 142.621 33.463 145.135 36.7509 147.069L126.492 198.902C133.261 202.771 145.253 202.384 153.182 197.742L239.055 148.036C243.504 145.329 245.824 142.041 245.631 138.946V135.271C245.824 138.366 243.504 141.847 239.055 144.362Z" fill="url(#paint4_linear)"/>
<path d="M223.389 139.526C224.356 140.106 224.356 141.073 223.389 141.653C222.422 142.233 220.875 142.233 219.908 141.653C218.941 141.073 218.941 140.106 219.908 139.526C220.875 138.945 222.422 138.945 223.389 139.526Z" fill="#FCCC6B"/>
<path d="M228.998 136.431C229.965 137.011 229.965 137.978 228.998 138.559C228.031 139.139 226.484 139.139 225.517 138.559C224.55 137.978 224.55 137.011 225.517 136.431C226.484 135.851 228.031 135.851 228.998 136.431Z" fill="#FCCC6B"/>
<path d="M234.414 133.143C235.381 133.724 235.381 134.691 234.414 135.271C233.447 135.851 231.899 135.851 230.932 135.271C229.965 134.691 229.965 133.724 230.932 133.143C231.899 132.563 233.447 132.563 234.414 133.143Z" fill="#FCCC6B"/>
<path opacity="0.5" d="M130.94 166.023L74.2719 133.337C70.0169 130.823 70.5971 126.568 75.4323 123.667L129.78 92.3345C134.808 89.4334 142.351 89.24 146.606 91.5609L203.468 124.44C207.723 126.954 207.143 131.209 202.308 134.111L147.767 165.443C142.932 168.344 135.389 168.537 130.94 166.023Z" fill="#0B0244"/>
<path opacity="0.5" d="M245.438 128.695C245.438 128.309 245.438 128.115 245.438 127.728V80.9237L170.976 81.3106L151.055 69.7061C144.285 65.838 132.294 66.2248 124.365 70.8665L105.797 81.504L32.1091 81.8908V128.695C31.9157 131.403 33.463 133.917 36.7509 135.851L126.492 187.685C133.261 191.553 145.253 191.166 153.182 186.524L239.055 137.012C243.117 134.691 245.244 131.597 245.438 128.695Z" fill="#52C1FF"/>
<path d="M245.438 80.924V64.0976H202.308L151.248 34.6996C144.479 30.8315 132.488 31.2183 124.558 35.8601L75.4324 64.291H32.1091V81.8911C31.9157 84.5988 33.463 87.1131 36.7509 89.0471L126.492 140.88C133.261 144.749 145.253 144.362 153.182 139.72L239.055 90.2076C243.504 87.4999 245.824 84.212 245.438 80.924Z" fill="#05275A"/>
<path opacity="0.5" d="M245.438 80.924V64.0976H202.308L151.248 34.6996C144.479 30.8315 132.488 31.2183 124.558 35.8601L75.4324 64.291H32.1091V81.8911C31.9157 84.5988 33.463 87.1131 36.7509 89.0471L126.492 140.88C133.261 144.749 145.253 144.362 153.182 139.72L239.055 90.2076C243.504 87.4999 245.824 84.212 245.438 80.924Z" fill="url(#paint5_linear)"/>
<path d="M151.248 34.6992C147.96 32.7651 143.512 31.9915 138.87 31.9915V143.394C143.898 143.201 149.12 142.04 153.182 139.719L239.055 90.2071C243.503 87.4994 245.824 84.2115 245.631 81.117V64.2905H202.308L151.248 34.6992Z" fill="url(#paint6_linear)"/>
<path d="M126.492 123.087L36.751 71.2534C29.9817 67.3852 30.7553 60.4225 38.6851 55.9742L124.558 6.26843C132.488 1.82005 144.286 1.23983 151.248 5.30139L240.989 57.1346C247.759 61.0028 246.985 67.9654 239.055 72.4138L153.182 122.12C145.253 126.568 133.261 127.148 126.492 123.087Z" fill="#05275A"/>
<path opacity="0.5" d="M126.492 123.087L36.751 71.2534C29.9817 67.3852 30.7553 60.4225 38.6851 55.9742L124.558 6.26843C132.488 1.82005 144.286 1.23983 151.248 5.30139L240.989 57.1346C247.759 61.0028 246.985 67.9654 239.055 72.4138L153.182 122.12C145.253 126.568 133.261 127.148 126.492 123.087Z" fill="url(#paint7_linear)"/>
<path opacity="0.5" d="M129.587 123.087L39.6521 71.2534C32.8828 67.3853 31.1422 61.5831 41.5862 55.9743L127.653 6.26852C131.521 3.94763 136.356 2.78718 141.191 2.59377C135.582 2.40036 129.393 3.56081 124.751 6.26852L38.6851 55.9743C30.7553 60.616 29.9817 67.3853 36.751 71.2534L126.492 123.087C129.973 125.021 134.809 125.988 139.644 125.794C135.776 125.601 132.294 124.827 129.587 123.087Z" fill="url(#paint8_linear)"/>
<path opacity="0.5" d="M239.055 79.9569L153.182 129.469C145.253 134.111 133.455 134.498 126.492 130.63L36.7509 78.7964C33.463 76.8623 31.9157 74.348 32.1091 71.6403V75.3151C31.9157 78.0228 33.463 80.5371 36.7509 82.4712L126.492 134.304C133.261 138.173 145.253 137.786 153.182 133.144L239.055 83.6316C243.504 80.9239 245.824 77.636 245.631 74.5414V70.8667C245.824 73.9612 243.504 77.2491 239.055 79.9569Z" fill="url(#paint9_linear)"/>
<path opacity="0.2" d="M131.714 67.9662C133.648 69.1266 133.648 70.8673 131.714 71.8343C129.78 72.9948 126.879 72.9948 124.945 71.8343C123.011 70.6739 123.011 68.9332 124.945 67.9662C126.879 66.8057 129.78 66.8057 131.714 67.9662Z" fill="#169FEC"/>
<path opacity="0.6" d="M142.158 61.9701C144.092 63.1305 144.092 64.8712 142.158 65.8382C140.224 66.8053 137.323 66.9987 135.388 65.8382C133.454 64.6778 133.454 62.9371 135.388 61.9701C137.323 60.8096 140.417 60.8096 142.158 61.9701Z" fill="#169FEC"/>
<path d="M152.795 55.7811C154.729 56.9415 154.729 58.6822 152.795 59.6492C150.861 60.8097 147.96 60.8097 146.026 59.6492C144.092 58.4888 144.092 56.7481 146.026 55.7811C147.766 54.814 150.861 54.814 152.795 55.7811Z" fill="#52C1FF"/>
<path opacity="0.5" d="M138.29 110.515C135.002 110.515 131.714 109.935 129.393 108.387L63.0542 70.0927C60.5399 68.7388 59.186 66.8048 59.186 64.4839C59.186 61.9696 61.1201 59.4553 64.408 57.5212L128.039 20.7738C134.035 17.2924 143.125 16.9056 148.347 20.0002L214.686 58.2948C217.007 59.6487 218.36 61.5828 218.36 63.9037C218.36 66.418 216.426 68.9323 213.138 70.8663L149.507 107.614C146.413 109.548 142.158 110.515 138.29 110.515ZM129.973 107.227C134.808 109.935 143.318 109.741 148.927 106.453L212.558 69.7059C215.459 68.1586 217.007 65.8377 217.007 63.9037C217.007 62.163 215.846 60.6157 213.912 59.6487L147.573 21.1606C142.738 18.4529 134.228 18.6463 128.619 21.9342L64.9883 58.6817C62.0871 60.2289 60.5399 62.5498 60.5399 64.4839C60.5399 66.2245 61.7003 67.7718 63.6344 68.7388L129.973 107.227Z" fill="#0B0244"/>
<defs>
<filter id="filter0_f" x="32.3628" y="127.358" width="212.674" height="131.382" filterUnits="userSpaceOnUse" color-interpolation-filters="sRGB">
<feFlood flood-opacity="0" result="BackgroundImageFix"/>
<feBlend mode="normal" in="SourceGraphic" in2="BackgroundImageFix" result="shape"/>
<feGaussianBlur stdDeviation="5" result="effect1_foregroundBlur"/>
</filter>
<linearGradient id="paint0_linear" x1="-15.0695" y1="152.305" x2="198.367" y2="152.305" gradientUnits="userSpaceOnUse">
<stop stop-color="#42E8E0"/>
<stop offset="0.1022" stop-color="#3CCACE"/>
<stop offset="0.3445" stop-color="#2F87A5"/>
<stop offset="0.564" stop-color="#255385"/>
<stop offset="0.7534" stop-color="#1E2D6E"/>
<stop offset="0.905" stop-color="#1A1660"/>
<stop offset="1" stop-color="#180D5B"/>
</linearGradient>
<linearGradient id="paint1_linear" x1="258.035" y1="17.0165" x2="96.7478" y2="278.92" gradientUnits="userSpaceOnUse">
<stop stop-color="#1F3A64"/>
<stop offset="0.788074" stop-color="#031734"/>
</linearGradient>
<linearGradient id="paint2_linear" x1="32.1093" y1="128.727" x2="245.561" y2="128.727" gradientUnits="userSpaceOnUse">
<stop stop-color="#42E8E0"/>
<stop offset="0.1022" stop-color="#3CCACE"/>
<stop offset="0.3445" stop-color="#2F87A5"/>
<stop offset="0.564" stop-color="#255385"/>
<stop offset="0.7534" stop-color="#1E2D6E"/>
<stop offset="0.905" stop-color="#1A1660"/>
<stop offset="1" stop-color="#180D5B"/>
</linearGradient>
<linearGradient id="paint3_linear" x1="32.1089" y1="128.73" x2="141.05" y2="128.73" gradientUnits="userSpaceOnUse">
<stop stop-color="#42E8E0"/>
<stop offset="0.1022" stop-color="#3CCACE"/>
<stop offset="0.3445" stop-color="#2F87A5"/>
<stop offset="0.564" stop-color="#255385"/>
<stop offset="0.7534" stop-color="#1E2D6E"/>
<stop offset="0.905" stop-color="#1A1660"/>
<stop offset="1" stop-color="#180D5B"/>
</linearGradient>
<linearGradient id="paint4_linear" x1="61.1406" y1="190.837" x2="239.799" y2="74.0616" gradientUnits="userSpaceOnUse">
<stop stop-color="#42E8E0"/>
<stop offset="0.1022" stop-color="#3CCACE"/>
<stop offset="0.3445" stop-color="#2F87A5"/>
<stop offset="0.564" stop-color="#255385"/>
<stop offset="0.7534" stop-color="#1E2D6E"/>
<stop offset="0.905" stop-color="#1A1660"/>
<stop offset="1" stop-color="#180D5B"/>
</linearGradient>
<linearGradient id="paint5_linear" x1="-15.0695" y1="87.7908" x2="198.367" y2="87.7908" gradientUnits="userSpaceOnUse">
<stop stop-color="#42E8E0"/>
<stop offset="0.1022" stop-color="#3CCACE"/>
<stop offset="0.3445" stop-color="#2F87A5"/>
<stop offset="0.564" stop-color="#255385"/>
<stop offset="0.7534" stop-color="#1E2D6E"/>
<stop offset="0.905" stop-color="#1A1660"/>
<stop offset="1" stop-color="#180D5B"/>
</linearGradient>
<linearGradient id="paint6_linear" x1="258.035" y1="-47.5819" x2="96.7478" y2="214.321" gradientUnits="userSpaceOnUse">
<stop stop-color="#1F3A64"/>
<stop offset="0.788074" stop-color="#031734"/>
</linearGradient>
<linearGradient id="paint7_linear" x1="32.1093" y1="64.2118" x2="245.561" y2="64.2118" gradientUnits="userSpaceOnUse">
<stop stop-color="#42E8E0"/>
<stop offset="0.1022" stop-color="#3CCACE"/>
<stop offset="0.3445" stop-color="#2F87A5"/>
<stop offset="0.564" stop-color="#255385"/>
<stop offset="0.797594" stop-color="#001057"/>
<stop offset="1" stop-color="#050054"/>
</linearGradient>
<linearGradient id="paint8_linear" x1="32.1092" y1="64.2152" x2="141.05" y2="64.2152" gradientUnits="userSpaceOnUse">
<stop stop-color="#42E8E0"/>
<stop offset="0.1022" stop-color="#3CCACE"/>
<stop offset="0.3445" stop-color="#2F87A5"/>
<stop offset="0.564" stop-color="#255385"/>
<stop offset="0.7534" stop-color="#1E2D6E"/>
<stop offset="0.905" stop-color="#1A1660"/>
<stop offset="1" stop-color="#180D5B"/>
</linearGradient>
<linearGradient id="paint9_linear" x1="61.1406" y1="126.322" x2="239.799" y2="9.54665" gradientUnits="userSpaceOnUse">
<stop stop-color="#42E8E0"/>
<stop offset="0.1022" stop-color="#3CCACE"/>
<stop offset="0.627424" stop-color="#2F87A5"/>
<stop offset="0.769606" stop-color="#255385"/>
<stop offset="0.917427" stop-color="#1E2D6E"/>
<stop offset="1" stop-color="#1A1660"/>
</linearGradient>
</defs>
</svg>
