<svg width="46" height="28" viewBox="0 0 46 28" xmlns="http://www.w3.org/2000/svg">
    <path d="M44.104 4.145c-.76-2.011-1.937-1.51-1.963-.228-.07 3.339-1.257.41-3.691 3.507-.033.043-.082.076-.07.133.079.026.025 0 .128-.008 0 .014.038.114.039.124.007.081-.034.046-.067.118.707.542-1.012.72-1.39.807a1.259 1.259 0 0 0-.528.168c-.22 1.386-2.5 1.392-2.6.516 0-.069-1.144-2.111-1.624-2.253-.376-.111-.907-.24-.85.312.045.4-.476.58-.768 1.252-2.393 2.046-.532-1.409-.27-1.659.226-.151-.124-.682-.4-.834-2.113-1.163-2.543-.515-3.681-1.177a6.941 6.941 0 0 0-2.978-1.279c-5.512.063-11.138-1.164-16.445-2.4L5.474.863a3.808 3.808 0 0 0-.488-.129c.056.39-.1.693.072 1.035.03.062.06.143-.008.182C4.174 1.915 4.039.788 3.36.739l-.017.03c-.012.033-.006 0-.014.049-.793 4.784.592 2.023-2.205 5.45-.387.474-.964 5.167-.29 5.4.025-.047.019-.084.078-.094.059-.01.075.019.087.07.165.69.9 3.439.84 3.6-.225.617 2.412 3.424 3.71 3.524 1.74.9 3.468 2.114 5.4 2.435.2.034 1.063.193 1.1.173.053-.144.086-.293.1-.445l1.562.222c.042-.554.074.282.234.4.419.377.783.81 1.083 1.288.153.826 1.26 2.369 1.65 1.332.072-.191 0-.235.18-.356 2.082-1.357 3.03 4.355 4 4 1.033-.375.98-1.131.72-1.9-1.457-2.442 11.358-2.674 12.755-2.637.68.619 1.035.952 1.067 1 .312.495-.091 1.132.728 2.652.185.621.526.973 1.024 1.056a.673.673 0 0 0 .819-.517c.495-1.452-2.493-6.131.872-9.032 1.873-.944 1.54-6.371 1.553-6.364.1.044.04.06.13.037.79-.192.822-3.53 2.818-3.428l-.357-1.094c-.244-.455 1.632-2.765 2.137-2.549-.437-.287-.062-.171-.906-.65-.06-.042-.08-.16-.114-.246z" fill="#22C3FF" fill-rule="evenodd"/>
</svg>
