<svg width="48" height="40" viewBox="0 0 48 40" xmlns="http://www.w3.org/2000/svg">
    <g fill="#22C3FF" fill-rule="evenodd">
        <path d="m33.741 6.177-.047.071v.074l.1.027.173-.125h.1V6.15l-.121-.047-.1-.125.023-.075h.1l.074.051.172-.079.3.051.075.074.3.1.023-.2.051-.051.075-.024.074-.1h.345l.2-.176-.05-.047v-.045l-.075-.1.075-.149v-.074l-.2.148-1.012-.645h-.075l-.051.1.075.176-.075.2.051.1-.051.121-.083.023v.172l-.074.051h-.125l-.047-.051-.074-.024-.051.1.051.051-.2.172-.023.125.097.15v.074zM30.507 10.53v-.1l.125.052.15-.5.074-.075-.024-.172h-.148l.075-.075-.05-.075-.224-.051-.024-.048h-.125l-.024.075-.1.023-.05.051h-.05l-.024.047-.075.052.126.125h-.075v.074h.148l.024-.074-.05-.075h.1l.074.121-.1.1h-.072l-.047.122.246-.172-.149.223v.13l.05.1-.075.075.173.05-.024-.125.071-.051-.026.221.1-.048z" fill-rule="nonzero"/>
        <path d="m31.197 8.8-.618.469h-.1l.023.172.3-.024.074.074h.1l-.051-.1.075-.07.051.047.171-.075.048.028.028-.051.442-.149.126.024.023.05-.149.149-.221-.024-.125.121-.2-.024-.1.047-.047.1-.075.023-.074.075.1.023.051.177.1.047.321-.246h.1l.024.051.2-.223v-.125h.075l.125-.2h.074v.071l-.125.1.075.023-.051.074.246.2.2-.274.171-.075-.121-.121.1-.149.052.1.1.051v.047h.3l.172-.172V8.99l.074.075.023.075.052.05.148-.273.074.051h.047v-.075l.074-.074.028.051-.051.047v.133l.149-.024.052-.078v-.1l.047-.075.115-.023-.1-.274.149-.543-.047-.1.047-.125.074-.051h.1l.047-.2.1-.1-.176-.915-.2-.1-.027.047.027.075h.1v.1h-.074l-.051.047-.075-.172-.07-.024-.028.172-.149.172.052.074-.075.176.075.047-.2.668-.79.52-.1-.074.125-.148-.074-.047-.074.074-.075.024-.027.274-.246.247.023.149-.1.051h-.121l-.074-.074-.319.08h-.469z" fill-rule="nonzero"/>
        <path d="m17.911 16.366.04-.137.047-.046.09-.008.047-.074v-.078l.059.082h.052l.07-.055.051-.274.082.083v.1l.137.161h.052l.051.571.067.067v.149l.083.126v.055l.148.289v.231l.039.039v.062l-.067.063.012.055.074.063-.028.235-.051.052v.043l-.043.044.027.176h.04l-.02.149-.066.1v.125l-.055.1.008.149.015.015h.067l.028.027h.059l.133.137-.027.027.254.243.024.121.156.156.055.477.067.082.015.2.079.078v.114l.153.134.02.18.047.063h.039l.274.2h.082l.074.094h.043l.16.106h.025l.094.094h.052l.043.043h.039l.052-.051-.271-1.219-.735-.8h-.153l-.035-.035-.134-.043-.047-.047-.012-.332-.125-.137-.031-.192-.043-.046-.156.011-.067-.215.293-1.27.149-.086h.137l.051.035-.008.246.039.035.3.011.215.161.031-.012.1.086v.091l.117.117-.011.18.023.024h.047l.024-.024v-.044l.086-.016v.048l.028.028-.011.043-.044.043v.02h.163l.051.051.091.008.074.071h.086l-.007.039.105.071-.023.024h-.035l-.024.024v.067l-.031.027-.011.219.054.055v.02l-.031.031.082-.012.165-.176.063-.02.047-.047.074-.02.024-.024v-.086l-.09-.111.168.153.059-.015v-.078l-.121-.106v-.031l.141.1.02-.016v-.024l-.031-.06v-.03l.055-.052.015-.047.043-.028h.028l.074.074h.071l.684-.489-.008-.235.063-.106-.211-.934-.833-.887.008-.059-.239-.255-.051-.188.067-.258.227-.192.082-.243.2-.027.2-.25.067.067.031-.031h.11l.012-.114h.035l.078.1.024-.02h.063l.007.054.028.024h.122l.031-.071.028.028h.094l.035.035-.086.121.109.317h.1l.055-.055-.028-.1-.066-.048v-.054l.035-.048v-.043l.039-.047.021.043.038-.011.035-.039.173-.028.039-.035.164-.039.035-.038h.172l.031-.031.078.039.051-.063h.065l-.011-.051.106-.071.086-.008.02-.019-.035-.161-.055-.051.1-.1h.035l.011.035-.015.1.105.149-.051.046.18-.035V13.9l.043-.042v-.036l.083-.015.043.039.133-.074.028.024h.129l.051-.051.27-.031v-.051l.028-.031.011-.059.059-.015.011-.063.039-.04h.047l.02.02.047-.035.063-.011v-.047h.059l.035-.035V13.3l.086-.011.071-.071-.039-.047v-.051l.066-.012.035.024h.071l.067-.059v-.039l.117-.105v-.046h.051l.012-.028V12.8l.036-.032.031.032.035-.02h.035l.023-.016-.023-.028h-.02l-.011-.059.031-.031-.012-.051-.1-.024-.037-.042.035.035h.078l.133-.16-.028-.031-.059-.016-.02-.074h.157l.266-.418-.063-.094.082.048.051-.052h.059l-.008-.07.031-.031.031.051.047-.031v-.035l.055-.055-.136-.1.125.015.043-.066v-.037l-.074-.074.031-.031.1.024.055-.055-.028-.067-.156.039.176-.137v-.063l-.247-.141-.16.113-.067-.071-.121-.031h.157l.312-.239h.1l.007-.059-.465-.348-.121.02-.031-.031-.063-.016-.1-.137.165.137h.09l.031-.035.469.153.043-.024-.047-.078-.062-.028-.079-.129-.188-.094.02-.2-.274-.5-.3-.192h-.052v-.07l.044-.043.019-.079.1-.1.071-.02.09-.094.028-.172h.048l.028.024v.047h.055l.055-.054v-.035l.031-.031v-.094l.13-.008.1-.067h.078l.063-.067h.114l.039.044h.035l.074-.086-.007-.133h-.039l-.031-.035h-.043l-.062-.043-.036.035-.144-.012-.046-.023-.044.012-.094-.094-.207.007-.247.243h-.16l-.117-.079-.008-.094.055-.1-.019-.093-.067-.059h-.066v.047l-.039.024-.031-.04-.176-.043-.129-.121v-.125l.039-.044v-.035l.067-.086.047-.016.117.09.324-.157.02-.121.653-.54h.046l.035.035h.031l.02.024.051-.016.054-.055.145.156-.009.094-.042.055v.039l-.274.243.051.078.149-.024-.1.1v.047l-.133.067-.036.051.031.031.063-.015.094-.09h.118l.833-.426v.039l.023.024h.075l.1.105h.125l.067.066-.051.251.094.094h-.153l-.094.1v.078l.07.075v.043l.134.067h.039l.028-.11.114.067.223.016.148.324-.024.1-.057-.079-.051.051-.173.024.149.074.051.075-.025.1.125.051-.074.149v.075l-.074.051.024.1-.1.051.024.047.075.051-.075.122.075.051.051-.074h.051l.047-.028h.074v.048l.075-.024.028-.047.047-.027v-.1h.076l.024.1.028-.051v-.049l.024-.024.024.047.176.051.047-.074h-.123l.048-.075h.2l.047-.028v-.071l.125-.223-.074-.051-.024-.469-.625-.852h-.076l.051-.051v-.055l.051-.047-.035-.062.082-.016.078-.078h.145l.133-.153h.106l.055-.086V6.68h.094l.105-.114-.007-.317.3-.313-.015-.1.059-.059.125-.042v-.837h.086l.192-.191h.14l.09.082.2.011v-.173l.211-.211.075-.4.109-.114v-.1h.063l.184-.161-.09-.094.015-.168-.1-.1h-.063l-.258.161h-.211l-.184.188-.458.012-.125-.211.074-.075-.129-.129.02-.133h-.113l-.309-.27h-.1l-.043.042-.512-.192v-.2h-.075v-.137l-.1-.1v-.109l-.063-.114v-.1l-.168-.219.02-.129-.439-.54-.254.02-.321-.173-1.212.274-.058.109v.086h.121l.071.071v.192l-.568.715.091.094-.177.18h-.125l-.27.16h-.262l-.211-.211-.454.03-.137-.137-.3.012-.223.223-.914.27-.055-.055h-.352l-.05-.051-.376-.047-.145-.141v-.074l-.293-.063-.113-.11-.864-.012-.063.063-.469-.086-.235-.239-.011-.2-.829-.211-.153-.157-.2.02-.125.149h-.1v.125h-.063l-.086.122v.074l.16.262v.09l-.2.2h-.09l-.074.074-.055-.059h-.524l-.067-.063h-.293l-.184-.262h-.36l-.074-.074h-.141l-.071-.074-.082.078h-.129l-.1.1h-.121l-.192.2h-.215l-.1.094v.074l-.043.043h-.109l-.094.1h-.344l-.129.125-.36-.188v-.09h-.094l-.105.105-.29-.043-.1-.137v-.087l-.137-.028-.372-.4-.676.063-.07-.071h-.067l-.141-.137h-.133l-.184.184-.95-1.364-.223-.075L11.082.6l.086-.086-.051-.051-.223.039-.3.258h-.133l-.059.055h-.215l-.152.153-.094-.157.1-.1-.063-.063h-.27l-.1-.1V.474h-.075l-.075.074-.211-.012-.048-.038V.361L9.113.185v-.11l-.07-.077h-.074l-.09.094h-.07l-.09-.09h-.453v.096h-.1l-.117.117-.97.157v.1l-.915.125-.067.067h-.433l-.047.219.328.223h-.184l-.258.161.086.211-.309.133.2.243h.238l.11.109-.071.071v.125l-.422.086-.078-.083-.149.149-.086-.086h-.18l-.165-.164h-.186l-.082.078-.524-.055-.114.2h-.16l-.212-.215-.1.1v.071l-.368-.342h-.293l-.164-.16-.11.114-.223.011-.079-.082h-.18l-.161.192-.1.012-.063.063-.1.012v.051l-.133.137h-.1v.109l.118.118-.129.133h-.135L.86 2.373H.735v.121L.5 2.729l.109.114v.109l-.1.106v.168l.083.082v.067l.117.118v.105l.262.012.352.352-.192.071.243.227.782-.321.266.125.157-.079.117.027.153.153-.012.231-.027.028-.032.219.259.055.043-.039v-.02l.063-.008.016.016v.059l.074.117-.043.047h-.168l-.012.016h-.044l-.133.211-.027-.02v-.051l.168-.184.109-.012.028-.028-.024-.051-.856-.086-.032.033-.063.012-.027.027v.047l-.04.039H2.04v.087l.067.039.012.051.024.023h.035l-.02.052-.332-.063-.044.024-.031.074.023.024.129.039.1.1v.094l.11.1v.039l.031.059-.011.094.149.043.094.1.123-.004.032.035h.059l.024.153-.071.125.023.211.075.09v.051l.032.031.023-.028-.008-.1.024-.019-.035-.11.067-.067.309-.039v.042l.036.044v.121l.293.231v.047l-.04.024-.148-.012v.051l-.019.021h-.076l-.043.027h-.043l-.063-.071-.047.028-.083-.02-.137-.14v.059l.028.028v.051l-.024.024v.047l-.028.027v.238h.247v.125l.028.031-.106.008-.04.039v.052l.036.023h.075l.18.157-.016.02.012.082-.031.031.028.524.192-.019.277-.254.36-.02.058-.099.254.016.059.059v.043l.027.03.578.133.192.2.075-.007.133.074.082.122h.29l.035.481-.028.028v.02l-.024.039-.016.184-.094.094v.074l-.1.106v.2l.133.066-.106.141.071.634.328.067.043.118-.328.473.653.657.016.341.156.015-.035.239-.262.036-.164.129-.129.4h.27l.047-.048h.356l.052-.051h.067l.031.031h.067l.047-.048.09.055.579-.051.027-.028.106-.015.074.086.016.133.059.02.013.004.059.024.035.172.156.177.192.035.016.02.1-.023-.058.055v.032l.27.266.441-.008.043-.051-.176.192-.207.075-.043-.012-.035-.035h-.071v.035l.548.575.219.031.43-.3-.094-.118.02-.059.067-.067-.008-.043h.078l.043.043.1-.024-.059.063-.059.008v.113l.032.031h.051l-.09.087.122.164v.137l-.082.164 1.681 4.4.149-.035.113-.121.008-.086.071-.091.305-.074-.071-.075v-.063l.067-.082v-.055l.067-.09.071-.035h.074l.048-.043-.023-.234-.047-.067.133-1.478.281-.242.02.074h.059l.047-.14.048-.043.344-.083.048-.2 1.348-1.051v-.052l.059.015.184-.184-.008-.286.418-.258v-.09l-.011-.011.062.063-.027.071.035.1h.035l.023-.035.04-.007.019-.048.027.075.083-.016.055-.043h.1l.025-.039v-.067l.043-.044v.145h.039l.04-.039v-.048l.055-.055v-.094.148h.047l.031-.031v.059l.043.035.039-.035v-.082l.02-.02h.031l.047-.047-.074-.106v-.094l.046-.043v-.055l-.1-.1.048-.059h.106v.074l-.039.039.011.149.059.059.011.039.048.047.105-.11h.074v.051l.083.079v.051h.046v.254l.059.067v.118l.2.192v.043l.105.11h.032l.035-.035v-.024l.024.078-.035.035.051.043.031-.031.09.031v.035l.11.09.015.039-.02.067.27.532-.035.438-.075.11.024.082-.011.055h.059l.079-.129.007.129.083-.039-.024.071.031.035h.059l.023-.024.096.05h.07zM7.473 7.732l.125.125-.074-.074-.051-.051z"/>
        <path d="M12.768 19.033v-.046l-.177-.286-.064-.022-.012-.016-.121-.02-.007.129-.04.039h-.042l.027.2-.058.078.11.775.07.058.23-.031.04-.039h.07l.22-.2-.015-.298-.231-.321zM38.361 32.054l.023-.668.051-.023.023-.149-.05-.1-.047.075v.047l-.1.05-.372-.493-.125-.027-.047-.121h-.1l-.075-.4-.076-.07-.024.051-.168-.121v.075H37.2l-.075-.047L37 29.71l-.223-.2.1-.1-.372-.247h-.05l-.024-.074-.395-.125-.07-.149.024-.075-.1-.1.023-.222-.32-.794.023-.148-.293-.247-.028-.074h-.047l-.2.1v-.15l-.1-.148v-.3l-.1-.2.024-.075-.149-.1-.024-.3h-.074l.024-.074-.075-.024-.1.1-.075.372-.05.027-.075.149.125.075-.074.074-.493 1.755-.372-.148-.05-.1-.2-.1h-.1l-.494-.418-.023.075h-.037l-.395-.273-.023-.075-.05-.023v-.069l.245-.273h.024l-.024-.074-.1.027.047-.176.2-.047v-.147l.1-.075.028-.074-.1-.125h-.075l-.046.172-.149-.047.024-.177-.172.126-.149.023-.148-.074-.05.027-.122-.074-.027-.051-.469-.1-.07-.125h-.2l-.024.05.075.075h.1l.075.047-.023.125-.126.1h-.395l-.075.1h-.1l-.176.2.051.126-.274.32.126.2-.075.023v.075l-.1-.024-.074.024-.074-.077-.125-.023-.122.075v.125l-.074.047.074-.27-.223-.176-.022-.078-.2-.121-.074.121h-.223l-.047.125-.075.051-.2.023-.023.1.023.075h-.1v.051l.075.074-.125-.024-.149.1.051.223.075.047h-.316l-.05-.074h-.05l.027.074-.027.05.075.126.051.023-.024.075-.1-.023v.172l-.223-.4-.27.27.024.3.05.028-.2.172-.023.075h-.075v.1l-.246.273-2.2.794-.1.172-.047.023-.075-.023.024-.172h-.05l-.1.32.05.2-.149.4.3.641-.075.149-.2-.247v.074l.1.2-.047.023-.2-.246.938 2.349-.075.668-.17.023-.025.2.047.051h.125l.223.148.023.075.172.1 1.658-.544.173.075.074-.027.05.1.1-.05.075.023.051-.047.172.024.023-.024h.051l.344-.4 2.494-.567.273.2.15-.051.222.149.1-.052h.062l.074.075.023.074.074.023v.111l.224.172.023.176.074.047.1.2-.074.023.2.224h.075v-.1l.247-.348.223-.074v-.149l.172-.121v-.07l.05-.075.024.075.028.023-.05.3-.024.023v.051l-.075.05-.027.344-.07.075-.126.027-.023.075h.27l.15-.371.124.1-.05.423h.2l.1-.075.046.023-.047.052.223.3v.3l.223.344.32.148.047.074.051.027.05-.075.075-.027.567.251.344-.224v-.074l.074-.051h.15v.075l-.075.05.051.075.1-.027.023-.047.075.024v.1l.222.125.028-.051 1.184-.419.813-1.982.25-.172.024-.274.15-.2.148-1.314-.11-.132-.047-.075zM36.648 37.53l-.03-.046-.45.094-.025.059-.734-.211.066.461.071.043.047.133.054.015v.09l-.05.008.164.34.121.027-.008.074.313.075v-.181l.067-.019.035-.043v-.117h.133l.09.055-.03.043.015.043.043-.035-.008-.282.055-.094h.066l.02-.016.003-.078-.028-.438zM47.351 36.127l-.324.152-.47-.114-.113-.422h-.1v.2h-.06l-.153-.153-.03-.215-.118-.117v-.052l.071-.054-.64-.469.108.171v.169l.11.04.137.262.058.031h.121v.094l-.043.043.074.074v.095h.095l.05.055v.465l-.09.09v.133l-.153.153-.148.039v.1l.074.074.1-.012.113.086h.11l.12.172-.023.2-.094.125-.02.133.086.05h.05v.051h.121l.524-.684v-.094l-.039-.039v-.1l.1-.1.227-.054.012-.09.2-.2v-.222l-.043-.066zM45.876 37.541l-.109.1.016-.156-.16.16h-.075l-.042-.043v-.13h-.075l-.066-.066v-.07l-.192.191v.118l-.294.321v.148l-.446.446h-.035l-.9.66v.02l-.035.035-.1.027v.082l.02.043h-.1v.173l-.1.051.055.055v.07l.058.059h.071l.066-.066.078.075.215.042.043.043V40h.357l.074-.074h.126l.215-.254h.056v-.133l.2-.247.063-.278.344-.223h.273V38.7h-.082l.008-.207.2-.2.023-.111.27-.3-.02-.1-.035-.039.1-.141-.056.002-.009-.063zM37.141 24.289l.335-.278h.1l.031-.109.087-.094.027-.126-.062-.1h-.133l-.067.1.008.075-.286.235-.149.015v.016h-.086l-.094-.133-.055.133h-.468v.063l.078.054.734.149zM35.36 23.446h-.033l-.043-.048h-.149l-.094-.1-2.123-.723-.187.106v.09l-.278.075-.344.41h-.125l-.215-.23v-.038l-.05.051-.013-.063-.039-.035v-.105l-.044-.039v-.149l.06-.054v-.076l-.09-.074-.033-.145-.14.015-.107-.042-.029-.043h-.08l-.043-.047-.184.008-.219.16h-.153l.013.071-.1.105.04.044.27.063.046.046v.06l.117.113.172.027.051-.05.344.011.008.094h-.048l-.023.019h-.137l-.067-.062-.183.172-.039-.035h-.09l-.059.039.285.258-.023.165.125.039.023.051.054-.062-.05-.046.077-.079v-.075l.032-.028-.016-.1.047-.043.032.035-.032.035.035.165.074.046h.051l.047.048.142-.016.042.043-.027.028 1.177.488v.063l.062.027.231.415-.02.015v.052l.118.054h-.052l-.027.028.051.047.012.125-.066.066.031.027h.051l.043-.043.06.059.245-.027-.035.059.344.34h.414l.047.051h.16l.231-.18-.407-.219.465.028v-.068l-.059-.059.192.035-.074-.09v-.066l.027-.032.055.055h.3l.051.05h.144l.066.067h.083l.247.2.02.129.046.067h.083v.106l.06.058h.116l.048.149.058.059.157.008.074.074.676.032v.078l.066.016.071-.028-.039-.035.067-.07h-.118l-.07-.07h-.09l-.072-.071.071-.075-.055-.055h-.152l-.02-.137-.038-.035h-.18l-.126-.157v-.067l-.418-.434v-.082l-.066-.063.048-.047h.234l.047-.047v-.078l-.13-.129h-.164l-.14-.13-.173-.032-.035-.035h-.037l-.258-.379-.207-.172z" fill-rule="nonzero"/>
        <path d="M25.894 21.709h.278l.05-.058-.4-.352.063-.063-.3-.384v-.113h.22l-.095-.094.328-.216-.07-.043-.024-.074.047-.047h.22l.073-.043.023-.066-.074-.031-.01-.038h-.029l-.149-.094-.156.023-.015-.11-.1-.007-.043-.164-.03-.032h-.028l-.14-.141-.083.086-.028-.029v-.059l-.23.278v.062l-.185.192-.047.015.031.1-.039.039h-.122l-.352.2v.043l-.756.55h-.106l-.105.106.02.059-.047.02-.024.055v.059l-.035.059.011.117.052.055-.572-.188-.042-.043-.172.176v.177l-.125.1.113.113v.11l.09.094v.169l.048.042v.078l.058.063.083-.082.054.105v.325l.13.129-.032.14h.137l.055.059.3-.008.063-.062v.273l.086-.062h.211l.125-.125.066.07h.158v.078l.258-.047.055.054v.132l.042.074h.1l.075-.1h.15l.2-.149.034-.137.083-.078v-.082l.067-.067-.067-.062-.008-.106.223-.321h.125l.118-.117-.125-.177.05-.217.192-.191zm-3.026-.279.13.133-.025-.023-.105-.11zm1.036.04-.266.27.266-.27zm.615.133.227-.215-.127.125-.1.09z"/>
        <path d="m26.781 21.865 1.247.095.071-.067.106-.032.187-.223v-.1l.051-.067-.075-.022-.228.219-.977.012-.074-.075-.172-.019-.01.027h-.009l-.094.157-.133-.015-.149.149v.395h-.05l-.11.137-.029.293-.035.031-.007.117-.067.067v.082l-.062.058v.165l.082.078.114-.024.09.094-.079.571.06.074h.023l.031.024.235-.012.031-.047-.038-.316.042-.082-.024-.5.13-.133.082.023-.016.348.067.067.125.043.035.035-.019.219.062.063.188-.149h.153l.063-.063v-.063l-.043.016-.133-.18v-.274l-.282-.285h-.066l-.039-.11.18.044.03-.016.013-.038.4-.278h.063l.031.02h.032l-.012-.156-.18.083-.184-.024-.118.086h-.075l-.05-.047-.2.212h-.138l-.094-.176-.078-.028-.067-.094v-.134l.192-.255zM28.563 25.344h.157l.094-.094h.09l.23-.188h-.23l-.063.063h-.34l-.051.048h-.067l-.52.351v.231h.118l.105-.059.477-.352zM27.754 18.371l.032-.055v-.062l.035-.055v-.035l-.13-.043-.055.067-.012.192-.074.086-.1.011v.177l.13.117h.074l.032.032.046-.032v-.113l-.035-.066v-.063l.057-.096v-.062zM27.277 18.297h.05l.076-.071.109-.02.18-.149v-.086l-.035-.04h-.075l-.192-.145-.075.02.02.254-.058.06v.177zM27.98 19.079l-.066-.087-.215.044-.028.031v.04l-.055.054-.223.028-.106.313.051.047.156-.274h.06l.05.082h.031l.063-.063.074.1h.06v-.114l.031-.031.043.008.048.054h.058v.039l.06.086v.031l-.033.035v.277l.25.161.168-.027v.125l.027.028.075-.051.067-.13-.05-.086v-.055l-.059-.059.031-.1.027-.028v-.047l.065-.066.145.344h.047l-.032-.184.1-.105.02-.173-.068-.067v-.215l-.082-.079.055-.055.02-.07-.278-.286-.039.039.035.211h-.13v.071h-.117l.011.063-.055.054h-.1l-.1.142h-.092v-.055zM26.542 16.19l.082.371-.031.117.184.18v-.118h.063l.1.075-.106.11.059.145.1.074h.075l.086-.086h.125l.176.141v.063l.039.04.035-.036-.02-.055-.055-.042v-.095h.063l.227.188v.055l.243.172-.02.039.1.043v-.153l-.071-.07-.094-.02.008-.074-.035-.035v-.075h.059v-.058h-.055l-.114-.075v.094h-.066l-.043-.074v-.066l-.177-.031-.1.1-.094-.008-.184-.367v-.2l.051-.05v-.036l.1-.11h.07l.18-.348-.091-.082-.023-.426-.137.035-.051.05-.2-.187-.211.137-.039.739-.062.063-.091-.003-.055-.051zM28.402 17.542h-.247l-.035.036.02.085.105.094v.027l.1.087v.106l.13.113h.105l-.037-.403-.14-.145zM24.357 25.114h.2l.075.055v-.125l.285.184v-.084l.129-.043v-.044l-.2-.117h-.211v-.096h-.51l-.288-.341h-.145l-.074-.077h-.164l-.106-.106-.11.109v.083l-.638-.016-.184-.184h-.172l-.114-.114h-.086L22 24.156l-.062.063-.3-.04-.2.2-.02.094.254.016.066.067v.074l.07.07h.12l.067.066h.23l.115.083 1.633.195.043.038.168-.093.172.125zM21.567 23.255l.063-.062-.235-.3h-.128l-.11.074v-.1l.063-.062-.2-.223v-.1l-.212-.015-.11-.109-.007-.215.106-.106-.1-.1h-.223l.063-.062-.028-.075-.148.055-.153-.152v-.083l-.375-.376h-.086l.015.153-.118-.117-.035-.11h-.062l-.395-.395h-.087l-.21-.2v-.1l-.3-.3h-.474l-.105-.105h-.254v.15l.524.512h.086l.3.348v.106l.06.059h.07l.3.305.04.305.257.164v.101l.242.255-.019.1.235.329v.078l.106.106v.1l.364.274v.094l.81.688.023-.125.063.063.222-.012.063.059.075-.009.024-.865z" fill-rule="nonzero"/>
    </g>
</svg>
