<svg width="35" height="49" viewBox="0 0 35 49" fill="none" xmlns="http://www.w3.org/2000/svg">
<path fill-rule="evenodd" clip-rule="evenodd" d="M10.0645 0.640003L7.04088 0.802941C6.98779 0.805737 6.93584 0.819427 6.88826 0.843159L6.08182 1.24638L4.94745 1.73313C4.86786 1.76742 4.80206 1.8274 4.76056 1.90349C4.71906 1.97957 4.70425 2.06736 4.71851 2.15285L4.76079 2.40757L3.72748 3.16553C3.70102 3.18479 3.67712 3.20731 3.65632 3.23257L2.92104 4.13182C2.86858 4.19598 2.83807 4.27527 2.83399 4.35805C2.82991 4.44083 2.85246 4.52274 2.89835 4.59175L3.17473 5.00632L3.32632 6.22319C3.3319 6.26664 3.3448 6.30883 3.36448 6.34797L3.48513 6.58928L1.72067 8.35272C1.69754 8.37587 1.67745 8.40186 1.66085 8.43006L0.844103 9.81916C0.826534 9.84885 0.813008 9.88076 0.803884 9.91403L0.558447 10.8133C0.536738 10.8936 0.541462 10.9788 0.57192 11.0563C0.602378 11.1337 0.656953 11.1993 0.727572 11.2433L1.05242 11.4465L0.440884 12.4262C0.408756 12.4778 0.389216 12.5362 0.383842 12.5967C0.378468 12.6573 0.38741 12.7183 0.409947 12.7747L0.89979 14.0009C0.913571 14.0357 0.932329 14.0684 0.955478 14.0978L2.47967 16.0221L3.7677 18.8395C3.76803 18.8412 3.76837 18.8429 3.76873 18.8447L4.34107 20.0708C4.37553 20.145 4.43256 20.2063 4.50401 20.2461L6.71088 21.4713C6.71123 21.4713 6.71157 21.4713 6.71191 21.4713L8.19795 22.289L8.78782 24.6485L8.4011 26.2717C8.38809 26.3262 8.38703 26.3828 8.39801 26.4377L8.78679 28.3827L8.24538 30.0853C8.2206 30.1636 8.22132 30.2477 8.24745 30.3256L8.63416 31.4857L8.55579 33.8236L7.91332 36.2326C7.90609 36.2602 7.90194 36.2886 7.90095 36.3171L7.81845 38.4415C7.81756 38.4691 7.81963 38.4968 7.82463 38.524L8.06904 39.9131L8.39182 41.7693L8.47329 43.2987C8.47477 43.3266 8.47927 43.3543 8.4867 43.3812L9.13948 45.751C9.14788 45.7816 9.16 45.811 9.17557 45.8387L9.91085 47.1463C9.95526 47.2248 10.0256 47.2853 10.1099 47.3175L12.2353 48.1342C12.2832 48.1527 12.3343 48.1615 12.3856 48.1601C12.437 48.1587 12.4875 48.1471 12.5344 48.126L13.4336 47.7176C13.4887 47.6926 13.5371 47.655 13.575 47.6079C13.613 47.5608 13.6394 47.5054 13.6521 47.4463C13.6648 47.3872 13.6635 47.3259 13.6483 47.2673C13.6331 47.2088 13.6045 47.1546 13.5646 47.1092L12.4436 45.8273L12.0889 45.2374L12.7726 44.0752L13.6502 43.0388C13.6881 42.994 13.7153 42.9412 13.7298 42.8843C13.7443 42.8274 13.7457 42.7679 13.7339 42.7104C13.7221 42.6529 13.6974 42.5989 13.6616 42.5523C13.6258 42.5058 13.58 42.468 13.5274 42.4417L12.6395 41.9972L12.5106 41.8044L13.2851 41.6116C13.3691 41.5906 13.4436 41.5422 13.4969 41.474C13.5502 41.4058 13.5791 41.3217 13.579 41.2352V40.7422L13.9554 40.3648C14.0014 40.3187 14.0351 40.2617 14.0533 40.1992C14.0715 40.1367 14.0737 40.0705 14.0596 40.0069L13.8966 39.2717C13.8897 39.2406 13.879 39.2104 13.8647 39.1819L13.7316 38.9159L14.5339 38.8427C14.6139 38.8353 14.6896 38.8032 14.7506 38.7509C14.8115 38.6986 14.8548 38.6287 14.8743 38.5508L15.1403 37.4897L17.341 37.1225C17.4376 37.1065 17.5245 37.0546 17.5844 36.9771L18.4022 35.9149C18.448 35.8552 18.4754 35.7834 18.4811 35.7083C18.4868 35.6332 18.4704 35.5581 18.4341 35.4921L17.9474 34.6001L17.9402 34.5846L18.7899 34.6743C18.8696 34.6827 18.95 34.6661 19.0199 34.6269L20.3275 33.8906C20.3891 33.8561 20.4401 33.8055 20.475 33.7442L21.5 31.9302L23.8111 30.0977C23.8567 30.0614 23.8936 30.0153 23.9189 29.9628C23.9443 29.9103 23.9575 29.8528 23.9575 29.7945V28.6529L24.3648 27.7701L25.8199 26.8245L28.496 26.6667C28.5557 26.6631 28.6138 26.6459 28.6656 26.6162C28.7175 26.5865 28.7618 26.5452 28.7951 26.4955L29.9398 24.7785C29.9485 24.7652 29.9565 24.7514 29.9635 24.7372L30.7813 23.1027C30.7972 23.0707 30.8087 23.0367 30.8153 23.0016L31.4485 19.6758L34.3185 16.4872C34.3588 16.4424 34.3881 16.3887 34.404 16.3305C34.42 16.2723 34.4221 16.2112 34.4103 16.1521L33.9194 13.7008C33.9061 13.6338 33.8753 13.5716 33.8302 13.5203C33.7851 13.4691 33.7273 13.4307 33.6626 13.4089L32.9974 13.1872L31.0102 11.5187C30.9728 11.4871 30.9298 11.463 30.8834 11.4475L30.1481 11.2021C30.1269 11.195 30.1052 11.1899 30.0831 11.1866L28.4486 10.9422C28.3959 10.9343 28.3421 10.9374 28.2907 10.9512C28.2392 10.9651 28.1912 10.9894 28.1495 11.0226L28.0062 11.1371L28.0433 10.4462C28.0477 10.3627 28.025 10.28 27.9785 10.2105C27.932 10.141 27.8643 10.0884 27.7855 10.0605L25.2517 9.16225C25.2323 9.15516 25.2123 9.14964 25.1919 9.14575L24.2927 8.98281C24.246 8.97416 24.1981 8.97416 24.1514 8.98281L23.3119 9.14266L23.8162 8.34447C23.8464 8.29662 23.8657 8.24274 23.8728 8.18662C23.88 8.1305 23.8747 8.0735 23.8575 8.01963L23.2037 5.97672C23.1746 5.88619 23.1133 5.80948 23.0314 5.76119L20.8256 4.45357C20.7864 4.43043 20.7435 4.41437 20.6988 4.40613L18.1794 3.93382L17.4441 3.34497L14.9165 1.14428C14.8401 1.07756 14.7405 1.04349 14.6391 1.04941L13.25 1.13088C13.2469 1.13084 13.2439 1.13084 13.2408 1.13088L11.3928 1.28557L10.2677 0.685378C10.2105 0.654999 10.1467 0.6394 10.082 0.640003C10.0762 0.639871 10.0704 0.639871 10.0645 0.640003Z" fill="#22C3FF"/>
</svg>
