<svg width="18" height="15" viewBox="0 0 18 15" fill="none" xmlns="http://www.w3.org/2000/svg">
<path d="M0 7.50041C0 7.92079 0.307804 8.2682 0.707159 8.32318L0.818182 8.33077L15.2007 8.3301L10.0047 13.5818C9.68453 13.9054 9.68342 14.4312 10.0022 14.7561C10.2921 15.0516 10.7466 15.0794 11.0674 14.8389L11.1593 14.7587L17.7593 8.08927C17.8015 8.04661 17.8382 8.00045 17.8693 7.95171C17.8781 7.93703 17.887 7.92202 17.8955 7.90671C17.9033 7.89358 17.9104 7.87995 17.917 7.86617C17.9263 7.84612 17.9353 7.82541 17.9435 7.80427C17.9501 7.78798 17.9557 7.77213 17.9608 7.75615C17.9668 7.73634 17.9727 7.71523 17.9777 7.6938C17.9814 7.67883 17.9844 7.66443 17.987 7.64997C17.9906 7.62846 17.9937 7.6062 17.9959 7.58367C17.9978 7.56649 17.999 7.54947 17.9996 7.53243C17.9998 7.52209 18 7.51128 18 7.50041L17.9996 7.46825C17.999 7.45195 17.9979 7.43567 17.9963 7.41942L18 7.50041C18 7.44801 17.9952 7.39675 17.9861 7.34704C17.984 7.33517 17.9814 7.32298 17.9786 7.31084C17.9728 7.28585 17.9661 7.26178 17.9584 7.23818C17.9546 7.22645 17.9501 7.21393 17.9454 7.20149C17.9359 7.17651 17.9255 7.15269 17.914 7.12949C17.9087 7.11858 17.9028 7.10716 17.8965 7.09586C17.8863 7.07741 17.8758 7.05989 17.8646 7.0428C17.8568 7.03071 17.8481 7.01813 17.839 7.00574L17.8319 6.99617C17.8099 6.96694 17.786 6.93925 17.7604 6.91326L17.7594 6.91249L11.1594 0.24199C10.8392 -0.0816106 10.3212 -0.080522 10.0023 0.244422C9.71243 0.539825 9.68696 1.00118 9.92528 1.32575L10.0047 1.41872L15.1985 6.66939L0.818182 6.67006C0.366312 6.67006 0 7.04182 0 7.50041Z" fill="white"/>
</svg>
