<svg width="10" height="21" viewBox="0 0 10 21" fill="none" xmlns="http://www.w3.org/2000/svg">
<path d="M5.40015 1.229L9.46015 5.312C9.59887 5.46034 9.67434 5.65688 9.67057 5.85994C9.6668 6.06299 9.58408 6.25659 9.43995 6.39968C9.29583 6.54277 9.10163 6.62408 8.89855 6.62638C8.69547 6.62868 8.49949 6.55179 8.35215 6.412L5.62415 3.671L5.62415 20.219C5.62415 20.4263 5.54182 20.625 5.39526 20.7716C5.2487 20.9182 5.04992 21.0005 4.84265 21.0005C4.63539 21.0005 4.43661 20.9182 4.29005 20.7716C4.14349 20.625 4.06115 20.4263 4.06115 20.219L4.06115 3.674L1.33515 6.414C1.18782 6.55379 0.991836 6.63068 0.788757 6.62838C0.585679 6.62608 0.391483 6.54477 0.247356 6.40168C0.103229 6.25859 0.0205078 6.06499 0.0167364 5.86194C0.012965 5.65888 0.0884399 5.46234 0.227154 5.314L4.29015 1.23C4.36278 1.1567 4.44919 1.09851 4.5444 1.05876C4.63962 1.01901 4.74177 0.998501 4.84495 0.998407C4.94813 0.998314 5.05031 1.01864 5.14559 1.05822C5.24088 1.09779 5.3274 1.15584 5.40015 1.229Z" fill="#F9F9F9"/>
</svg>
