<svg width="20" height="20" viewBox="0 0 20 20" fill="none" xmlns="http://www.w3.org/2000/svg">
<circle cx="10" cy="10" r="10" fill="white" fill-opacity="0.1"/>
<path d="M6.42836 14.2157C6.61791 14.2158 6.79974 14.1406 6.93387 14.0067L12.7853 8.15384L12.7853 12.1081C12.7853 12.2976 12.8606 12.4792 12.9945 12.6132C13.1285 12.7472 13.3101 12.8224 13.4996 12.8224C13.689 12.8224 13.8707 12.7472 14.0047 12.6132C14.1386 12.4792 14.2139 12.2976 14.2139 12.1081L14.2139 6.42956C14.2139 6.24012 14.1386 6.05843 14.0047 5.92448C13.8707 5.79053 13.689 5.71527 13.4996 5.71527L7.82101 5.71527C7.63157 5.71527 7.44989 5.79052 7.31594 5.92448C7.18198 6.05843 7.10672 6.24012 7.10672 6.42956C7.10672 6.619 7.18198 6.80068 7.31594 6.93463C7.44989 7.06859 7.63157 7.14384 7.82101 7.14384L11.7753 7.14384L5.92387 12.9953C5.78974 13.1292 5.71432 13.3109 5.71419 13.5005C5.71405 13.69 5.78922 13.8719 5.92315 14.006C6.05709 14.1401 6.23882 14.2155 6.42836 14.2157Z" fill="white"/>
</svg>
