<svg width="10" height="20" viewBox="0 0 10 20" fill="none" xmlns="http://www.w3.org/2000/svg">
<path d="M4.29071 19.771L0.226714 15.688C0.0816202 15.5417 0.000205994 15.344 0.000205994 15.138C0.000205994 14.9319 0.0816202 14.7343 0.226714 14.588C0.372993 14.4429 0.570681 14.3615 0.776714 14.3615C0.982748 14.3615 1.18043 14.4429 1.32671 14.588L4.05471 17.329L4.05471 0.78098C4.05471 0.677741 4.07517 0.575525 4.11492 0.480245C4.15467 0.384964 4.21291 0.29851 4.28628 0.225882C4.35966 0.153254 4.4467 0.0958932 4.54238 0.057118C4.63806 0.0183428 4.74048 -0.00107756 4.84371 -2.00576e-05C5.05085 -2.00576e-05 5.2495 0.0822637 5.39596 0.22873C5.54243 0.375196 5.62471 0.573846 5.62471 0.78098L5.62471 17.326L8.35171 14.586C8.49799 14.4409 8.69568 14.3595 8.90171 14.3595C9.10775 14.3595 9.30543 14.4409 9.45171 14.586C9.59681 14.7323 9.67822 14.9299 9.67822 15.136C9.67822 15.342 9.59681 15.5397 9.45171 15.686L5.39971 19.77C5.32711 19.8431 5.24076 19.9012 5.14564 19.9409C5.05051 19.9805 4.94848 20.001 4.84542 20.0011C4.74236 20.0012 4.6403 19.9809 4.5451 19.9414C4.4499 19.9019 4.36345 19.844 4.29071 19.771Z" fill="#F9F9F9"/>
</svg>
