<svg width="26" height="26" viewBox="0 0 26 26" xmlns="http://www.w3.org/2000/svg">
    <g fill="none" fill-rule="evenodd">
        <path d="M22.533 24.915a2.384 2.384 0 0 0 2.383-2.383V9.823a2.384 2.384 0 0 0-2.383-2.383H18.56V3.468a2.384 2.384 0 0 0-2.383-2.383H3.468a2.384 2.384 0 0 0-2.382 2.383v19.064a2.384 2.384 0 0 0 2.383 2.383h19.064zM16.969 3.468a.795.795 0 0 0-.794-.794H3.469a.795.795 0 0 0-.794.794v19.064a.795.795 0 0 0 .794.794h2.383v-5.56a2.384 2.384 0 0 1 2.383-2.383h3.177a2.384 2.384 0 0 1 2.383 2.383v5.56h3.174V3.468zm-4.766 19.858H7.437v-5.56a.795.795 0 0 1 .794-.794h3.177a.795.795 0 0 1 .794.794v5.56zm11.12-.794a.795.795 0 0 1-.793.794h-3.972v-14.3h3.972a.795.795 0 0 1 .794.794v12.712z" fill="#F9F9F9"/>
        <path d="M3.469 25.015a2.484 2.484 0 0 1-2.483-2.483V3.468A2.484 2.484 0 0 1 3.469.985h12.709a2.484 2.484 0 0 1 2.483 2.483V7.34h3.872a2.484 2.484 0 0 1 2.483 2.483v12.709a2.484 2.484 0 0 1-2.483 2.483H3.469zM1.855 1.854a2.284 2.284 0 0 0-.67 1.614v19.064a2.284 2.284 0 0 0 2.284 2.283h19.064a2.284 2.284 0 0 0 2.283-2.283V9.823a2.284 2.284 0 0 0-2.283-2.283H18.46V3.468a2.284 2.284 0 0 0-2.283-2.283H3.468c-.605 0-1.185.24-1.613.669zM18.46 23.426v-14.5h4.072a.895.895 0 0 1 .894.894v12.709a.895.895 0 0 1-.894.894v.003H18.46zm4.072-.2a.695.695 0 0 0 .694-.694V9.823a.695.695 0 0 0-.694-.694H18.66v14.097h3.872zm-8.838.2v-5.66a2.284 2.284 0 0 0-2.283-2.283H8.235a2.284 2.284 0 0 0-2.283 2.283v5.66H3.469a.895.895 0 0 1-.894-.894V3.468a.895.895 0 0 1 .894-.894h12.709a.895.895 0 0 1 .894.894v19.958h-3.377zm3.177-.2V3.468a.695.695 0 0 0-.694-.694H3.468a.695.695 0 0 0-.693.694v19.064a.695.695 0 0 0 .694.694h2.283v-5.46a2.484 2.484 0 0 1 2.483-2.483h3.177a2.484 2.484 0 0 1 2.483 2.483v5.46h2.977zm-9.532.2v-5.66a.895.895 0 0 1 .894-.894h3.177a.895.895 0 0 1 .894.894v5.66H7.34zm4.766-.2v-5.46a.695.695 0 0 0-.694-.694H8.235a.695.695 0 0 0-.694.694l-.001 5.46h4.566z" fill="#061025"/>
        <path d="M21.001 11v1h-1v-1h1zM21.001 14v1h-1v-1h1zM21.001 17v1h-1v-1h1zM21.001 20v1h-1v-1h1z" fill="#F9F9F9"/>
    </g>
</svg>
