<svg width="7" height="11" viewBox="0 0 7 11" fill="none" xmlns="http://www.w3.org/2000/svg">
<path d="M6.24316 5.47695L1.48815 10.101C1.35321 10.2174 1.17897 10.2776 1.00094 10.2699C0.822909 10.2623 0.654515 10.187 0.530053 10.0595C0.40559 9.93195 0.334431 9.76205 0.331109 9.58389C0.327786 9.40572 0.392548 9.23305 0.512169 9.10097L4.21917 5.50088L0.519158 2.01797C0.451776 1.95505 0.397481 1.87927 0.359398 1.79531C0.321316 1.71136 0.300187 1.62085 0.297234 1.52871C0.294281 1.43657 0.309558 1.34491 0.342187 1.25869C0.374816 1.17247 0.424174 1.09337 0.487389 1.02627C0.550604 0.959168 0.626441 0.905284 0.710564 0.867577C0.794688 0.829869 0.88544 0.809083 0.977593 0.806541C1.06975 0.804 1.16148 0.819427 1.24755 0.85244C1.33363 0.885453 1.41233 0.93541 1.47915 0.998924L6.24316 5.47695Z" fill="white"/>
</svg>
