<svg width="24" height="25" viewBox="0 0 24 25" fill="none" xmlns="http://www.w3.org/2000/svg">
<path d="M21.4002 8.26203C21.9321 7.95496 22.1143 7.27487 21.8072 6.74301C21.5002 6.21115 20.8201 6.02892 20.2882 6.33599C19.7564 6.64306 19.5741 7.32315 19.8812 7.85501C20.1883 8.38687 20.8684 8.5691 21.4002 8.26203Z" fill="#FDFEFF"/>
<path d="M20.188 6.16279C20.4127 6.03304 20.6709 5.97285 20.9298 5.98982C21.1887 6.00679 21.4368 6.10017 21.6427 6.25813C21.8485 6.4161 22.0029 6.63157 22.0864 6.87728C22.1698 7.123 22.1784 7.38794 22.1113 7.63858C22.0441 7.88923 21.9041 8.11433 21.709 8.28543C21.514 8.45652 21.2725 8.56592 21.0152 8.59979C20.758 8.63366 20.4964 8.59048 20.2637 8.47571C20.031 8.36094 19.8375 8.17974 19.7078 7.95501C19.5343 7.65354 19.4875 7.29561 19.5775 6.95966C19.6675 6.6237 19.887 6.33715 20.188 6.16279ZM21.3005 8.08969C21.4567 7.99953 21.5826 7.86508 21.6624 7.70336C21.7422 7.54163 21.7722 7.35988 21.7487 7.18109C21.7252 7.00229 21.6493 6.83447 21.5304 6.69884C21.4116 6.56321 21.2552 6.46585 21.081 6.41908C20.9068 6.37231 20.7227 6.37823 20.5519 6.43608C20.3811 6.49393 20.2313 6.60111 20.1214 6.74409C20.0115 6.88707 19.9465 7.05942 19.9345 7.23936C19.9225 7.41929 19.9642 7.59874 20.0542 7.75501C20.1752 7.96456 20.3744 8.11752 20.6081 8.18027C20.8418 8.24303 21.0908 8.21045 21.3005 8.08969Z" fill="#001828"/>
<path d="M18.1485 4.05659C18.4556 3.52221 18.2714 2.84004 17.737 2.53291C17.2026 2.22579 16.5204 2.41002 16.2133 2.9444C15.9062 3.47879 16.0904 4.16096 16.6248 4.46808C17.1592 4.7752 17.8414 4.59097 18.1485 4.05659Z" fill="#FDFEFF"/>
<path d="M16.0395 2.84475C16.1692 2.61908 16.3629 2.43694 16.5961 2.32136C16.8294 2.20579 17.0916 2.16196 17.3497 2.19542C17.6078 2.22889 17.8502 2.33814 18.0463 2.50937C18.2423 2.6806 18.3831 2.90611 18.451 3.15739C18.5189 3.40866 18.5107 3.67442 18.4275 3.92105C18.3443 4.16769 18.1899 4.38411 17.9837 4.54297C17.7775 4.70183 17.5289 4.79597 17.2692 4.81351C17.0095 4.83104 16.7504 4.77118 16.5248 4.64148C16.2226 4.46719 16.0018 4.18019 15.9108 3.8434C15.8199 3.5066 15.8662 3.14748 16.0395 2.84475ZM17.9747 3.95693C18.065 3.79986 18.1066 3.61954 18.0944 3.43879C18.0822 3.25803 18.0167 3.08495 17.9061 2.94144C17.7956 2.79793 17.6449 2.69043 17.4733 2.63253C17.3016 2.57464 17.1166 2.56895 16.9417 2.61618C16.7668 2.66342 16.6098 2.76145 16.4906 2.8979C16.3715 3.03434 16.2954 3.20306 16.2721 3.38273C16.2488 3.56239 16.2793 3.74493 16.3598 3.90725C16.4402 4.06958 16.567 4.20441 16.7241 4.29468C16.9348 4.41546 17.1848 4.44774 17.4192 4.38442C17.6537 4.3211 17.8535 4.16736 17.9747 3.95693Z" fill="#001828"/>
<path d="M10.0908 6.56199V11.753C10.0908 12.0944 10.1581 12.4325 10.2887 12.748C10.4194 13.0634 10.6109 13.35 10.8523 13.5915C11.0938 13.8329 11.3804 14.0244 11.6958 14.1551C12.0113 14.2857 12.3494 14.353 12.6908 14.353H17.1398V12.124H12.6908C12.5924 12.124 12.4981 12.0849 12.4285 12.0153C12.3589 11.9457 12.3198 11.8514 12.3198 11.753V6.56199H10.0908Z" fill="#FDFEFF"/>
<path d="M9.89111 6.36198H12.5161V11.753C12.5161 11.7983 12.5341 11.8418 12.5662 11.8739C12.5983 11.906 12.6418 11.924 12.6871 11.924H17.3361V14.549H12.6911C11.9485 14.549 11.2363 14.254 10.7112 13.7289C10.1861 13.2038 9.89111 12.4916 9.89111 11.749V6.36198ZM12.1161 6.76199H10.2911V11.753C10.2911 12.3895 10.544 13 10.9941 13.45C11.4441 13.9001 12.0546 14.153 12.6911 14.153H16.9401V12.324H12.6911C12.5397 12.324 12.3944 12.2638 12.2874 12.1567C12.1803 12.0497 12.1201 11.9044 12.1201 11.753L12.1161 6.76199Z" fill="#001828"/>
<path d="M21.2152 12.494C21.2152 14.3272 20.6716 16.1193 19.6531 17.6436C18.6346 19.1678 17.187 20.3559 15.4933 21.0574C13.7996 21.759 11.9359 21.9425 10.1379 21.5849C8.33988 21.2272 6.6883 20.3444 5.392 19.0482C4.09571 17.7519 3.21292 16.1003 2.85528 14.3023C2.49763 12.5043 2.68119 10.6406 3.38274 8.94689C4.08429 7.2532 5.27232 5.80558 6.7966 4.78709C8.32088 3.7686 10.1129 3.22499 11.9462 3.22499H13.0582V0.999985H11.9452C9.67188 0.999985 7.44963 1.6741 5.55945 2.93707C3.66927 4.20005 2.19606 5.99517 1.32611 8.09542C0.456153 10.1957 0.228532 12.5067 0.672031 14.7364C1.11553 16.966 2.21023 19.014 3.81769 20.6215C5.42516 22.2289 7.47319 23.3236 9.70281 23.7671C11.9324 24.2106 14.2435 23.983 16.3437 23.1131C18.444 22.2431 20.2391 20.7699 21.5021 18.8797C22.7651 16.9895 23.4392 14.7673 23.4392 12.494V11.382H21.2152V12.494Z" fill="#FDFEFF"/>
<path d="M11.945 0.799988H13.257V3.42499H11.945C10.1513 3.42499 8.39791 3.95688 6.90652 4.95339C5.41513 5.9499 4.25273 7.36629 3.56632 9.02343C2.87991 10.6806 2.70031 12.5041 3.05024 14.2633C3.40017 16.0225 4.26391 17.6384 5.53223 18.9067C6.80055 20.1751 8.41649 21.0388 10.1757 21.3887C11.9349 21.7387 13.7584 21.5591 15.4155 20.8727C17.0727 20.1862 18.4891 19.0238 19.4856 17.5325C20.4821 16.0411 21.014 14.2877 21.014 12.494V11.182H23.639V12.494C23.639 14.8068 22.9531 17.0678 21.6682 18.9908C20.3832 20.9139 18.5569 22.4127 16.4201 23.2978C14.2833 24.1829 11.932 24.4145 9.6636 23.9633C7.39518 23.5121 5.31151 22.3983 3.67608 20.7629C2.04064 19.1275 0.926894 17.0438 0.475679 14.7754C0.0244629 12.507 0.256044 10.1557 1.14114 8.01889C2.02623 5.88209 3.52508 4.05574 5.44814 2.77078C7.37121 1.48583 9.63213 0.799988 11.945 0.799988V0.799988ZM12.857 1.19999H11.945C9.71124 1.19999 7.52766 1.86237 5.67037 3.10337C3.81308 4.34437 2.3655 6.10825 1.51069 8.17196C0.65587 10.2357 0.432212 12.5065 0.867993 14.6973C1.30377 16.8882 2.37942 18.9006 3.95892 20.4801C5.53841 22.0595 7.55081 23.1352 9.74163 23.571C11.9325 24.0068 14.2033 23.7831 16.267 22.9283C18.3307 22.0735 20.0946 20.6259 21.3356 18.7686C22.5766 16.9113 23.239 14.7277 23.239 12.494V11.582H21.415V12.494C21.415 14.3668 20.8596 16.1975 19.8192 17.7547C18.7787 19.3119 17.2998 20.5255 15.5696 21.2422C13.8394 21.9589 11.9355 22.1464 10.0987 21.781C8.26187 21.4157 6.57465 20.5138 5.25039 19.1896C3.92612 17.8653 3.02429 16.1781 2.65893 14.3413C2.29356 12.5045 2.48108 10.6006 3.19777 8.87036C3.91445 7.14013 5.12812 5.66127 6.68529 4.6208C8.24246 3.58033 10.0732 3.02499 11.946 3.02499H12.858L12.857 1.19999Z" fill="#001828"/>
</svg>
