<svg width="29" height="22" viewBox="0 0 29 22" xmlns="http://www.w3.org/2000/svg">
    <g fill="none" fill-rule="evenodd">
        <path d="M8.969 5.502a7.423 7.423 0 0 0-2.304 4.97 1.149 1.149 0 0 1-.842 1.034 3.445 3.445 0 0 0-2.565 3.292 3.415 3.415 0 0 0 3.407 3.407h2.259a1.152 1.152 0 0 1 1.148 1.148 1.128 1.128 0 0 1-1.148 1.148H6.665a5.657 5.657 0 0 1-5.666-5.666A5.723 5.723 0 0 1 4.483 9.59a9.636 9.636 0 0 1 9.571-8.384 9.632 9.632 0 0 1 8.269 4.67 7.36 7.36 0 0 1 5.9 7.236 7.393 7.393 0 0 1-7.389 7.39h-.574a1.153 1.153 0 0 1-1.148-1.149 1.128 1.128 0 0 1 1.148-1.148h.574a5.089 5.089 0 0 0 5.092-5.092 5.131 5.131 0 0 0-4.517-5.091 1.131 1.131 0 0 1-.881-.613 7.2 7.2 0 0 0-6.474-3.943 7.423 7.423 0 0 0-5.085 2.036zm5.222 3.72a1.11 1.11 0 0 1 1.241.254l3.407 3.407a1.11 1.11 0 0 1 0 1.608 1.11 1.11 0 0 1-1.608 0l-1.455-1.493v6.355a1.152 1.152 0 0 1-1.148 1.148 1.131 1.131 0 0 1-1.148-1.148v-6.355l-1.455 1.493a1.11 1.11 0 0 1-1.608 0 1.11 1.11 0 0 1 0-1.608l3.407-3.407a1.11 1.11 0 0 1 .367-.255z" fill="#F9F9F9"/>
        <path d="M19.128 2.061a10.2 10.2 0 0 1 3.509 3.373 7.912 7.912 0 0 1 4.282 2.651 7.9 7.9 0 0 1 1.8 5.027 7.9 7.9 0 0 1-7.889 7.889h-.574a1.65 1.65 0 0 1-1.648-1.648 1.63 1.63 0 0 1 1.648-1.648h.574a4.6 4.6 0 0 0 3.427-7.662 4.629 4.629 0 0 0-2.908-1.525 1.638 1.638 0 0 1-1.262-.867l-.012-.022a6.713 6.713 0 0 0-6.021-3.664A6.928 6.928 0 0 0 7.165 10.5v.009a1.638 1.638 0 0 1-1.216 1.479 2.957 2.957 0 0 0-2.19 2.808 2.91 2.91 0 0 0 2.907 2.907h2.259a1.65 1.65 0 0 1 1.648 1.648 1.631 1.631 0 0 1-1.648 1.648H6.666a6.128 6.128 0 0 1-4.364-1.8 6.128 6.128 0 0 1-1.8-4.364A6.23 6.23 0 0 1 4.029 9.25a10.1 10.1 0 0 1 3.3-6.007A10.156 10.156 0 0 1 14.054.707c1.78-.001 3.53.466 5.074 1.354zm6.57 15.92a6.9 6.9 0 0 0 2.021-4.869 6.82 6.82 0 0 0-5.5-6.746l-.215-.044-.113-.188a9.084 9.084 0 0 0-7.841-4.428 9.156 9.156 0 0 0-9.075 7.948l-.036.282-.26.113a5.237 5.237 0 0 0-3.183 4.786 5.172 5.172 0 0 0 5.166 5.166h2.259a.627.627 0 0 0 .648-.648.649.649 0 0 0-.648-.648H6.662a3.912 3.912 0 0 1-3.907-3.907 3.884 3.884 0 0 1 .845-2.4 3.988 3.988 0 0 1 2.092-1.374h.006a.648.648 0 0 0 .464-.583 7.929 7.929 0 0 1 7.887-7.471 7.72 7.72 0 0 1 6.912 4.21.642.642 0 0 0 .488.349h.009a5.629 5.629 0 0 1 4.958 5.588 5.6 5.6 0 0 1-5.592 5.592h-.574a.627.627 0 0 0-.648.648.649.649 0 0 0 .648.648l.58-.004a6.9 6.9 0 0 0 4.868-2.02zm-10.44-9.22c.199.084.38.207.53.361l3.407 3.407a1.667 1.667 0 0 1 .491 1.207 1.555 1.555 0 0 1-.5 1.116c-.304.307-.718.48-1.15.483a1.633 1.633 0 0 1-1.157-.491l-.6-.612v5.125a1.65 1.65 0 0 1-1.648 1.648 1.633 1.633 0 0 1-1.648-1.648v-5.125l-.6.617a1.633 1.633 0 0 1-1.157.491 1.633 1.633 0 0 1-1.157-.491 1.667 1.667 0 0 1-.491-1.207 1.555 1.555 0 0 1 .5-1.115l3.4-3.4a1.632 1.632 0 0 1 1.151-.496h.001c.216.001.43.045.628.13zm3.024 5.516a.632.632 0 0 0 .205-.146l.016-.015a.564.564 0 0 0 .182-.408.653.653 0 0 0-.2-.478l-3.407-3.407a.631.631 0 0 0-.45-.2.632.632 0 0 0-.45.2l-3.423 3.422a.564.564 0 0 0-.182.408.653.653 0 0 0 .2.478.632.632 0 0 0 .45.2.631.631 0 0 0 .448-.2l2.311-2.371v7.585a.627.627 0 0 0 .648.648.649.649 0 0 0 .648-.648V11.76l2.31 2.371a.63.63 0 0 0 .448.205l.001-.005a.632.632 0 0 0 .245-.054z" fill="#061025"/>
    </g>
</svg>
