<svg width="27" height="22" viewBox="0 0 27 22" fill="none" xmlns="http://www.w3.org/2000/svg">
<path d="M21.7182 4.52104C21.4441 4.51213 21.1697 4.53056 20.8992 4.57604C20.6939 3.47127 20.1536 2.45645 19.3517 1.6693C18.5497 0.882157 17.525 0.360819 16.4167 0.176051C15.3083 -0.008717 14.1699 0.152034 13.156 0.636485C12.1421 1.12094 11.3018 1.90562 10.7492 2.88404C10.2296 2.6711 9.67379 2.56008 9.11221 2.55704C8.08738 2.5536 7.09288 2.90455 6.29719 3.55043C5.50151 4.19631 4.95357 5.0974 4.74621 6.10104C3.65107 6.23507 2.64235 6.76375 1.90898 7.58805C1.17561 8.41236 0.767902 9.47574 0.762207 10.579C0.766158 11.7503 1.23304 12.8724 2.06104 13.7008C2.88904 14.5292 4.01098 14.9966 5.18221 15.001H7.52921V15.874H5.89221C5.787 15.8729 5.68389 15.9036 5.59632 15.9619C5.50875 16.0202 5.44076 16.1035 5.40121 16.201C5.34207 16.2928 5.31535 16.4018 5.32532 16.5105C5.33529 16.6193 5.38137 16.7215 5.45621 16.801L9.16221 21.276C9.2099 21.3396 9.27173 21.3912 9.34281 21.4267C9.41388 21.4622 9.49225 21.4807 9.57171 21.4807C9.65116 21.4807 9.72953 21.4622 9.80061 21.4267C9.87168 21.3912 9.93351 21.3396 9.98121 21.276L13.6962 16.801C13.7588 16.7154 13.797 16.6143 13.8067 16.5086C13.8164 16.403 13.7972 16.2967 13.7512 16.201C13.7117 16.1035 13.6437 16.0202 13.5561 15.9619C13.4685 15.9036 13.3654 15.8729 13.2602 15.874H11.5682V15.001H15.7682V17.511C15.7638 17.5839 15.775 17.6568 15.8009 17.725C15.8267 17.7933 15.8668 17.8552 15.9184 17.9068C15.97 17.9584 16.032 17.9985 16.1002 18.0244C16.1684 18.0503 16.2414 18.0614 16.3142 18.057H19.3142C19.387 18.0614 19.46 18.0503 19.5282 18.0244C19.5964 17.9985 19.6584 17.9584 19.71 17.9068C19.7616 17.8552 19.8017 17.7933 19.8276 17.725C19.8535 17.6568 19.8646 17.5839 19.8602 17.511V15.001H21.6602C22.3483 15.0048 23.0305 14.8731 23.6677 14.6133C24.3049 14.3534 24.8847 13.9707 25.3739 13.4868C25.8632 13.0029 26.2524 12.4274 26.5192 11.7931C26.7861 11.1588 26.9254 10.4782 26.9292 9.79004C26.933 9.10191 26.8013 8.41977 26.5414 7.78257C26.2816 7.14536 25.8988 6.56557 25.415 6.0763C24.9311 5.58703 24.3555 5.19786 23.7213 4.93101C23.087 4.66415 22.4063 4.52484 21.7182 4.52104ZM12.1182 16.964L9.60821 20.075L7.03821 16.964H8.12921C8.20205 16.9684 8.27499 16.9573 8.34322 16.9314C8.41144 16.9055 8.4734 16.8654 8.525 16.8138C8.5766 16.7622 8.61667 16.7003 8.64256 16.632C8.66845 16.5638 8.67958 16.4909 8.67521 16.418V10.852H10.5312V14.452V16.417C10.5268 16.4899 10.538 16.5628 10.5639 16.631C10.5897 16.6993 10.6298 16.7612 10.6814 16.8128C10.733 16.8644 10.795 16.9045 10.8632 16.9304C10.9314 16.9563 11.0044 16.9674 11.0772 16.963L12.1182 16.964ZM19.3182 10.852C19.2454 10.8477 19.1724 10.8588 19.1042 10.8847C19.036 10.9106 18.974 10.9506 18.9224 11.0022C18.8708 11.0538 18.8307 11.1158 18.8049 11.184C18.779 11.2523 18.7678 11.3252 18.7722 11.398V14.454V16.964H16.9162V11.401C16.9206 11.3282 16.9095 11.2553 16.8836 11.187C16.8577 11.1188 16.8176 11.0568 16.766 11.0052C16.7144 10.9536 16.6524 10.9136 16.5842 10.8877C16.516 10.8618 16.443 10.8507 16.3702 10.855H15.2792L17.8442 7.74404L20.4092 10.855H19.3172L19.3182 10.852ZM21.7182 13.908H19.8622V11.944H21.5542C21.6687 11.9453 21.7808 11.9116 21.8756 11.8474C21.9704 11.7833 22.0434 11.6918 22.0849 11.5852C22.1264 11.4785 22.1344 11.3617 22.1078 11.2504C22.0813 11.1391 22.0214 11.0385 21.9362 10.962L18.2802 6.54204C18.2326 6.4783 18.1708 6.42656 18.0998 6.39091C18.0287 6.35526 17.9502 6.3367 17.8707 6.3367C17.7912 6.3367 17.7127 6.35526 17.6417 6.39091C17.5706 6.42656 17.5088 6.4783 17.4612 6.54204L13.7502 11.017C13.5322 11.508 13.6412 11.781 14.1872 11.89H15.8792V13.855H11.6792V10.255C11.6848 10.1814 11.6745 10.1074 11.649 10.038C11.6236 9.96867 11.5835 9.9056 11.5315 9.85307C11.4796 9.80055 11.417 9.75979 11.3479 9.73356C11.2788 9.70733 11.2049 9.69624 11.1312 9.70104H8.18421C8.11136 9.69666 8.03842 9.70779 7.9702 9.73368C7.90197 9.75957 7.84001 9.79964 7.78841 9.85124C7.73681 9.90284 7.69674 9.9648 7.67085 10.033C7.64496 10.1013 7.63383 10.1742 7.63821 10.247V13.847H5.18221C4.74718 13.8561 4.31474 13.778 3.91035 13.6174C3.50597 13.4568 3.13782 13.2168 2.82759 12.9117C2.51736 12.6066 2.27133 12.2425 2.10399 11.8409C1.93665 11.4392 1.85138 11.0082 1.85321 10.573C1.85648 10.1322 1.94664 9.69624 2.11853 9.29024C2.29043 8.88424 2.54069 8.51611 2.85499 8.20691C3.16929 7.89772 3.54147 7.65353 3.95024 7.48831C4.359 7.32309 4.79633 7.24008 5.23721 7.24404C5.37089 7.23775 5.49829 7.18543 5.5978 7.09594C5.69731 7.00645 5.76282 6.88531 5.78321 6.75304C5.85307 5.91907 6.23438 5.14199 6.85125 4.57645C7.46813 4.0109 8.27533 3.69837 9.11221 3.70104C9.68543 3.71043 10.2476 3.8605 10.7492 4.13804C10.882 4.21312 11.039 4.23288 11.1862 4.19304C11.2633 4.1695 11.3335 4.12737 11.3905 4.07035C11.4475 4.01333 11.4897 3.94317 11.5132 3.86604C11.8838 2.95686 12.5535 2.20137 13.4117 1.72447C14.2699 1.24756 15.2652 1.0778 16.2329 1.24326C17.2007 1.40871 18.083 1.89946 18.734 2.63438C19.385 3.36931 19.7657 4.30439 19.8132 5.28504C19.8287 5.45283 19.9065 5.60874 20.0312 5.72204C20.1018 5.77179 20.1838 5.80293 20.2696 5.81254C20.3555 5.82215 20.4424 5.80994 20.5222 5.77704C21.0919 5.60934 21.6909 5.56586 22.2788 5.64952C22.8667 5.73318 23.4298 5.94204 23.9301 6.26199C24.4303 6.58194 24.8561 7.00552 25.1787 7.50413C25.5012 8.00274 25.7129 8.56476 25.7997 9.15222C25.8864 9.73969 25.846 10.3389 25.6812 10.9094C25.5165 11.48 25.2312 12.0085 24.8447 12.4593C24.4582 12.9101 23.9794 13.2728 23.4407 13.5227C22.9021 13.7726 22.316 13.904 21.7222 13.908H21.7182Z" fill="white"/>
<path d="M15.4971 0.0010376C16.7837 0.00344277 18.0303 0.447824 19.0283 1.25976C20.0263 2.0717 20.715 3.20188 20.9791 4.46104C21.2244 4.4288 21.4718 4.41576 21.7191 4.42204C22.4158 4.41992 23.1058 4.55721 23.7487 4.8258C24.3915 5.0944 24.9741 5.48889 25.4621 5.98604C26.2013 6.73765 26.7024 7.69063 26.9026 8.72566C27.1028 9.76069 26.9932 10.8318 26.5875 11.8048C26.1818 12.7778 25.4982 13.6096 24.622 14.1959C23.7459 14.7822 22.7163 15.0971 21.6621 15.101H19.9621V17.511C19.9661 17.5969 19.9521 17.6827 19.9211 17.7629C19.89 17.8431 19.8426 17.9159 19.7818 17.9767C19.721 18.0375 19.6481 18.0849 19.568 18.116C19.4878 18.147 19.402 18.161 19.3161 18.157H16.3161C16.2302 18.161 16.1444 18.147 16.0643 18.116C15.9841 18.0849 15.9113 18.0375 15.8505 17.9767C15.7897 17.9159 15.7422 17.8431 15.7112 17.7629C15.6801 17.6827 15.6661 17.5969 15.6701 17.511V15.101H11.6701V15.774H13.2621C13.386 15.7734 13.5072 15.8094 13.6106 15.8775C13.714 15.9457 13.7949 16.043 13.8431 16.157C13.8971 16.2683 13.9199 16.3922 13.9092 16.5155C13.8985 16.6387 13.8545 16.7567 13.7821 16.857L13.7761 16.865L10.0561 21.346C9.99893 21.4186 9.92602 21.4773 9.84288 21.5177C9.75974 21.558 9.66853 21.579 9.57611 21.579C9.48369 21.579 9.39248 21.558 9.30934 21.5177C9.2262 21.4773 9.15329 21.4186 9.09611 21.346L9.09011 21.339L5.38111 16.868C5.29291 16.7735 5.23827 16.6526 5.22562 16.5239C5.21297 16.3952 5.24301 16.2659 5.31111 16.156C5.3593 16.042 5.4402 15.9447 5.5436 15.8765C5.647 15.8084 5.76827 15.7724 5.89211 15.773H7.42911V15.101H5.18211C3.98347 15.0994 2.83441 14.6225 1.98703 13.7747C1.13966 12.9269 0.663168 11.7777 0.662109 10.579C0.66593 9.46359 1.07293 8.38713 1.80804 7.54818C2.54316 6.70922 3.55683 6.16435 4.66211 6.01404C4.88428 5.00115 5.44745 4.09525 6.25745 3.44779C7.06744 2.80034 8.07517 2.4506 9.11211 2.45704C9.65661 2.45931 10.1961 2.56097 10.7041 2.75704C11.1946 1.92073 11.8946 1.22671 12.7351 0.743414C13.5756 0.260123 14.5276 0.00425391 15.4971 0.0010376V0.0010376ZM20.8211 4.69404L20.8021 4.59404C20.6009 3.50921 20.0707 2.51258 19.2835 1.73948C18.4963 0.966371 17.4903 0.454244 16.402 0.272626C15.3137 0.0910092 14.1959 0.248702 13.2004 0.724295C12.2048 1.19989 11.3797 1.97034 10.8371 2.93104L10.7941 3.00904L10.7121 2.97704C10.1231 2.7366 9.48834 2.62921 8.85306 2.66253C8.21778 2.69585 7.5977 2.86907 7.03712 3.1698C6.47654 3.47054 5.98929 3.89137 5.6102 4.40223C5.2311 4.91309 4.96951 5.50137 4.84411 6.12504L4.82911 6.19504L4.76211 6.20104C3.6896 6.32875 2.7009 6.84448 1.98246 7.65097C1.26403 8.45746 0.865521 9.49896 0.862109 10.579C0.862903 11.7247 1.31824 12.8233 2.12816 13.6336C2.93809 14.4439 4.03643 14.8997 5.18211 14.901H7.62911V15.974H5.89211C5.80562 15.973 5.72091 15.9986 5.64939 16.0472C5.57787 16.0959 5.52298 16.1652 5.49211 16.246C5.44398 16.3196 5.42143 16.407 5.42794 16.4946C5.43444 16.5823 5.46965 16.6654 5.52811 16.731L5.53411 16.738L9.24211 21.209C9.28035 21.2623 9.33072 21.3057 9.38907 21.3356C9.44741 21.3656 9.51204 21.3812 9.57761 21.3812C9.64318 21.3812 9.70781 21.3656 9.76615 21.3356C9.8245 21.3057 9.87487 21.2623 9.91311 21.209L13.6131 16.742C13.6652 16.6706 13.6969 16.5864 13.705 16.4984C13.7131 16.4104 13.6973 16.3218 13.6591 16.242C13.6282 16.1612 13.5733 16.0919 13.5018 16.0432C13.4303 15.9946 13.3456 15.969 13.2591 15.97H11.4681V14.901H15.8681V17.511C15.864 17.5707 15.8727 17.6305 15.8936 17.6865C15.9145 17.7425 15.9473 17.7933 15.9895 17.8356C16.0318 17.8779 16.0827 17.9106 16.1386 17.9315C16.1946 17.9525 16.2545 17.9612 16.3141 17.957H19.3141C19.374 17.9615 19.4341 17.953 19.4905 17.9321C19.5468 17.9113 19.5979 17.8785 19.6404 17.8361C19.683 17.7937 19.7158 17.7426 19.7368 17.6863C19.7578 17.6301 19.7664 17.5699 19.7621 17.51V14.901H21.6621C23.0253 14.9085 24.3357 14.3741 25.3048 13.4154C26.274 12.4567 26.8227 11.1523 26.8301 9.78904C26.8375 8.42582 26.3031 7.1155 25.3444 6.14631C24.3858 5.17712 23.0813 4.62846 21.7181 4.62104C21.4503 4.61197 21.1823 4.62973 20.9181 4.67404L20.8211 4.69404ZM15.4971 1.09404C16.6289 1.09355 17.7176 1.52773 18.5385 2.30691C19.3594 3.08609 19.8497 4.15076 19.9081 5.28104C19.922 5.42414 19.9895 5.55669 20.0971 5.65204C20.1538 5.69662 20.2252 5.71838 20.2971 5.71304C20.361 5.7126 20.4244 5.70214 20.4851 5.68204C21.3891 5.42593 22.3523 5.47564 23.2252 5.82343C24.098 6.17123 24.8314 6.79762 25.3115 7.60525C25.7916 8.41287 25.9915 9.35648 25.88 10.2894C25.7685 11.2223 25.352 12.0923 24.6951 12.764C24.3075 13.1601 23.8442 13.4744 23.3328 13.6881C22.8214 13.9018 22.2723 14.0106 21.7181 14.008H19.7621V11.844H21.6081C21.6884 11.8421 21.7662 11.8161 21.8315 11.7694C21.8967 11.7227 21.9464 11.6574 21.9741 11.582C22.0133 11.4893 22.0235 11.3869 22.0036 11.2882C21.9836 11.1896 21.9343 11.0992 21.8621 11.029L21.8561 11.022L18.2031 6.60104C18.1605 6.54851 18.1067 6.50616 18.0456 6.4771C17.9845 6.44803 17.9177 6.43298 17.8501 6.43304C17.7909 6.43111 17.7322 6.44444 17.6797 6.47176C17.6271 6.49909 17.5825 6.53947 17.5501 6.58904L17.5411 6.60104L13.8411 11.065C13.7968 11.1379 13.7685 11.2194 13.7582 11.3041C13.7478 11.3887 13.7556 11.4746 13.7811 11.556C13.8361 11.663 13.9741 11.738 14.2021 11.785H15.9841V13.95H11.5841V10.25C11.5883 10.1904 11.5796 10.1306 11.5586 10.0746C11.5377 10.0186 11.505 9.96773 11.4627 9.92546C11.4204 9.88319 11.3696 9.85047 11.3136 9.82953C11.2576 9.80858 11.1977 9.79989 11.1381 9.80404H8.18411C8.12447 9.79989 8.06464 9.80858 8.00864 9.82953C7.95265 9.85047 7.9018 9.88319 7.85953 9.92546C7.81726 9.96773 7.78455 10.0186 7.7636 10.0746C7.74265 10.1306 7.73396 10.1904 7.73811 10.25V13.95H5.08611C4.1976 13.9434 3.34792 13.5849 2.7232 12.9531C2.09848 12.3213 1.74964 11.4676 1.75311 10.579C1.76156 9.66268 2.13309 8.78708 2.78621 8.14427C3.43934 7.50146 4.32074 7.14391 5.23711 7.15004C5.34672 7.14341 5.45078 7.09954 5.53207 7.02571C5.61336 6.95188 5.66699 6.85251 5.68411 6.74404C5.75868 5.88626 6.15211 5.08761 6.78674 4.50574C7.42138 3.92386 8.2511 3.60106 9.11211 3.60104C9.7025 3.60966 10.2816 3.76389 10.7981 4.05004C10.906 4.11189 11.0339 4.12878 11.1541 4.09704C11.2165 4.07829 11.2733 4.04437 11.3194 3.99829C11.3654 3.95222 11.3994 3.89544 11.4181 3.83304V3.82504C11.7509 3.01672 12.3162 2.32545 13.0424 1.83888C13.7686 1.35231 14.623 1.09238 15.4971 1.09204V1.09404ZM20.2971 5.91404C20.235 5.91761 20.1728 5.90885 20.1141 5.88825C20.0554 5.86765 20.0014 5.83563 19.9551 5.79404C19.8124 5.66163 19.7241 5.48094 19.7071 5.28704C19.6566 4.33246 19.2828 3.42348 18.6472 2.70944C18.0117 1.9954 17.1522 1.51878 16.2099 1.3579C15.2676 1.19701 14.2987 1.36143 13.4622 1.82414C12.6257 2.28685 11.9715 3.02032 11.6071 3.90404C11.5784 3.99509 11.528 4.07779 11.4602 4.14503C11.3925 4.21228 11.3094 4.26204 11.2181 4.29004C11.1329 4.31459 11.0437 4.32193 10.9556 4.31162C10.8675 4.30132 10.7824 4.27359 10.7051 4.23004C10.2176 3.95793 9.67035 3.81055 9.11211 3.80104C8.29994 3.80112 7.51738 4.10603 6.91925 4.65546C6.32112 5.20488 5.951 5.95879 5.88211 6.76804V6.77804C5.85695 6.93291 5.77915 7.07437 5.66184 7.17857C5.54452 7.28277 5.39487 7.34333 5.23811 7.35004C4.3747 7.34364 3.54402 7.68003 2.92834 8.2854C2.31267 8.89076 1.9623 9.71564 1.95411 10.579C1.95174 11.0009 2.03395 11.419 2.19588 11.8086C2.35782 12.1981 2.5962 12.5513 2.89693 12.8472C3.19767 13.1431 3.55466 13.3757 3.94681 13.5313C4.33896 13.6869 4.75832 13.7623 5.18011 13.753H7.53811V10.253C7.53412 10.1671 7.5481 10.0814 7.57915 10.0012C7.61021 9.921 7.65765 9.84818 7.71845 9.78738C7.77925 9.72658 7.85207 9.67914 7.93225 9.64808C8.01244 9.61703 8.09822 9.60305 8.18411 9.60704H11.1311C11.217 9.60305 11.3028 9.61703 11.383 9.64808C11.4631 9.67914 11.536 9.72658 11.5968 9.78738C11.6576 9.84818 11.705 9.921 11.7361 10.0012C11.7671 10.0814 11.7811 10.1671 11.7771 10.253V13.753H15.7771V11.989H14.1621C14.0481 11.98 13.9376 11.9452 13.839 11.8871C13.7404 11.8291 13.6563 11.7494 13.5931 11.654C13.5506 11.5441 13.534 11.4259 13.5444 11.3086C13.5548 11.1912 13.592 11.0778 13.6531 10.977L13.6591 10.964L17.3741 6.48404C17.4249 6.40626 17.4947 6.34281 17.577 6.29974C17.6593 6.25667 17.7513 6.23542 17.8441 6.23804C17.9414 6.23809 18.0375 6.25984 18.1254 6.30171C18.2133 6.34357 18.2907 6.40449 18.3521 6.48004L22.0051 10.896C22.1033 10.9946 22.1701 11.12 22.1972 11.2565C22.2242 11.393 22.2103 11.5345 22.1571 11.663C22.1103 11.7846 22.0251 11.8877 21.9145 11.9566C21.8039 12.0255 21.6739 12.0566 21.5441 12.045H19.9621V13.81H21.7181C22.2477 13.8121 22.7724 13.7084 23.2614 13.505C23.7504 13.3017 24.1939 13.0027 24.5658 12.6256C24.9377 12.2486 25.2306 11.8011 25.4272 11.3094C25.6239 10.8176 25.7204 10.2916 25.7111 9.76204C25.7122 9.13469 25.5671 8.51572 25.2875 7.95413C25.0079 7.39255 24.6014 6.90378 24.1001 6.52653C23.5989 6.14929 23.0167 5.89393 22.3996 5.78067C21.7826 5.66742 21.1477 5.69939 20.5451 5.87404C20.4653 5.8999 20.382 5.91306 20.2981 5.91304L20.2971 5.91404ZM17.8431 7.58604L20.6201 10.954H19.3201C19.2605 10.9499 19.2006 10.9586 19.1446 10.9795C19.0887 11.0005 19.0378 11.0332 18.9955 11.0755C18.9533 11.1177 18.9205 11.1686 18.8996 11.2246C18.8787 11.2806 18.87 11.3404 18.8741 11.4V17.067H16.8161V11.401C16.8203 11.3414 16.8116 11.2816 16.7906 11.2256C16.7697 11.1696 16.737 11.1187 16.6947 11.0765C16.6524 11.0342 16.6016 11.0015 16.5456 10.9805C16.4896 10.9596 16.4297 10.9509 16.3701 10.955H15.0621L17.8431 7.58604ZM20.1961 10.754L17.8441 7.90104L15.4911 10.755H16.3701C16.456 10.751 16.5418 10.765 16.622 10.7961C16.7021 10.8271 16.775 10.8746 16.8358 10.9354C16.8966 10.9962 16.944 11.069 16.9751 11.1492C17.0061 11.2294 17.0201 11.3151 17.0161 11.401V16.868H18.6721V11.401C18.6681 11.3151 18.6821 11.2294 18.7132 11.1492C18.7442 11.069 18.7917 10.9962 18.8525 10.9354C18.9133 10.8746 18.9861 10.8271 19.0663 10.7961C19.1464 10.765 19.2322 10.751 19.3181 10.755L20.1961 10.754ZM8.57511 10.754H10.6311V16.421C10.627 16.4807 10.6357 16.5405 10.6566 16.5965C10.6775 16.6525 10.7103 16.7033 10.7525 16.7456C10.7948 16.7879 10.8457 16.8206 10.9016 16.8415C10.9576 16.8625 11.0175 16.8712 11.0771 16.867H12.3231L9.60411 20.233L6.82611 16.864H8.12611C8.18575 16.8682 8.24558 16.8595 8.30157 16.8385C8.35757 16.8176 8.40841 16.7849 8.45069 16.7426C8.49296 16.7003 8.52567 16.6495 8.54662 16.5935C8.56757 16.5375 8.57626 16.4777 8.57211 16.418L8.57511 10.754ZM10.4311 10.954H8.77511V16.421C8.7791 16.5069 8.76512 16.5927 8.73407 16.6729C8.70301 16.7531 8.65557 16.8259 8.59477 16.8867C8.53397 16.9475 8.46115 16.9949 8.38096 17.026C8.30078 17.057 8.215 17.071 8.12911 17.067H7.25011L9.60211 19.917L11.9021 17.064H11.0741C10.9882 17.068 10.9024 17.054 10.8223 17.023C10.7421 16.9919 10.6693 16.9445 10.6085 16.8837C10.5477 16.8229 10.5002 16.7501 10.4692 16.6699C10.4381 16.5897 10.4241 16.5039 10.4281 16.418L10.4311 10.954Z" fill="#FDFEFF"/>
</svg>
