<svg width="25" height="25" viewBox="0 0 25 25" fill="none" xmlns="http://www.w3.org/2000/svg">
<circle cx="12.5" cy="12.5" r="12.5" fill="white"/>
<path d="M15.6809 15.4057C15.8045 14.9936 15.7633 14.5815 15.5573 14.3343C15.3513 14.087 15.0628 13.9222 14.6919 13.881L7.52181 13.7985C7.48061 13.7985 7.43941 13.7573 7.39822 13.7573C7.35702 13.7161 7.35702 13.6749 7.39822 13.6337C7.43941 13.5513 7.48061 13.5101 7.56301 13.5101L14.7743 13.4277C15.6397 13.3865 16.5463 12.6859 16.8759 11.8618L17.2881 10.7904C17.2881 10.7492 17.3292 10.708 17.2881 10.6668C16.8347 8.56519 14.9392 6.99927 12.714 6.99927C10.6536 6.99927 8.88166 8.31792 8.26353 10.1723C7.85147 9.88384 7.35702 9.71897 6.78009 9.76025C5.79109 9.84265 5.00817 10.6668 4.8845 11.6558C4.8433 11.903 4.8845 12.1503 4.92578 12.3975C3.31866 12.4387 2 13.7573 2 15.4057C2 15.5704 2 15.6941 2.0412 15.8589C2.0412 15.9414 2.12359 15.9826 2.16487 15.9826H15.3925C15.4749 15.9826 15.5573 15.9414 15.5573 15.8589L15.6809 15.4057Z" fill="#F4811F"/>
<path d="M17.9474 10.7911H17.7413C17.7001 10.7911 17.6589 10.8323 17.6177 10.8735L17.3293 11.8625C17.2057 12.2746 17.2469 12.6867 17.4529 12.9339C17.6589 13.1812 17.9474 13.346 18.3183 13.3872L19.843 13.4696C19.8842 13.4696 19.9254 13.5108 19.9666 13.5108C20.0078 13.552 20.0078 13.5932 19.9666 13.6344C19.9254 13.7169 19.8842 13.7581 19.8017 13.7581L18.2359 13.8405C17.3705 13.8817 16.4639 14.5822 16.1343 15.4064L16.0518 15.7773C16.0106 15.8185 16.0518 15.9009 16.1343 15.9009H21.5737C21.6561 15.9009 21.6973 15.8597 21.6973 15.7773C21.7797 15.4476 21.8621 15.0768 21.8621 14.7058C21.8621 12.5631 20.0902 10.7911 17.9474 10.7911Z" fill="#FAAD3F"/>
</svg>
