<svg width="13" height="16" viewBox="0 0 13 16" fill="none" xmlns="http://www.w3.org/2000/svg">
<path d="M4.00002 15.3333H11.3334C12.0667 15.3333 12.6667 14.7333 12.6667 14V5.33331C12.6667 4.96665 12.3667 4.66665 12 4.66665C11.6334 4.66665 11.3334 4.96665 11.3334 5.33331V13.3333C11.3334 13.7 11.0334 14 10.6667 14H4.00002C3.63335 14 3.33335 14.3 3.33335 14.6666C3.33335 15.0333 3.63335 15.3333 4.00002 15.3333ZM1.33335 12.6666H8.66669C9.40002 12.6666 10 12.0666 10 11.3333V1.99998C10 1.26665 9.40002 0.666647 8.66669 0.666647H1.33335C0.60002 0.666647 2.00272e-05 1.26665 2.00272e-05 1.99998V11.3333C2.00272e-05 12.0666 0.60002 12.6666 1.33335 12.6666ZM2.00002 1.99998H8.00002C8.36669 1.99998 8.66669 2.29998 8.66669 2.66665V10.6666C8.66669 11.0333 8.36669 11.3333 8.00002 11.3333H2.00002C1.63335 11.3333 1.33335 11.0333 1.33335 10.6666V2.66665C1.33335 2.29998 1.63335 1.99998 2.00002 1.99998Z" fill="white"/>
</svg>
