<svg width="27" height="23" viewBox="0 0 27 23" xmlns="http://www.w3.org/2000/svg">
    <g fill="none" fill-rule="evenodd">
        <path d="M18.577 10.765a.977.977 0 0 0-.976.976 3.906 3.906 0 0 1-7.812 0 .977.977 0 0 0-.977-.976H1.976a.977.977 0 0 0-.976.976v9.765a.977.977 0 0 0 .976.976h23.436a.977.977 0 0 0 .976-.976v-9.765a.977.977 0 0 0-.976-.976h-6.835zM2.953 20.53v-7.812h4.964a5.859 5.859 0 0 0 11.555 0h4.964v7.812H2.953z" fill="#F9F9F9"/>
        <path d="M8.811 10.515a1.228 1.228 0 0 1 1.226 1.226 3.656 3.656 0 1 0 7.312 0 1.228 1.228 0 0 1 1.226-1.226h6.835a1.228 1.228 0 0 1 1.226 1.226v9.765a1.228 1.228 0 0 1-1.226 1.226H1.976A1.228 1.228 0 0 1 .75 21.506v-9.765a1.228 1.228 0 0 1 1.226-1.226h6.835zm1.946 4.163a4.161 4.161 0 0 1-1.219-2.937.727.727 0 0 0-.726-.726H1.976a.727.727 0 0 0-.726.726v9.765a.727.727 0 0 0 .726.726h23.436a.727.727 0 0 0 .726-.726v-9.765a.727.727 0 0 0-.726-.726h-6.835a.727.727 0 0 0-.726.726 4.161 4.161 0 0 1-4.157 4.156 4.161 4.161 0 0 1-2.937-1.219zm-2.632-2.213.035.208a5.609 5.609 0 0 0 11.062 0l.035-.208h5.425v8.312H2.7v-8.312h5.425zm-4.925.5v7.312h20.985v-7.312h-4.506a6.11 6.11 0 0 1-11.97 0H3.2z" fill="#061025"/>
        <path d="M13.32 10.69a.976.976 0 0 0 1.065-.211l2.93-2.929a.977.977 0 1 0-1.382-1.381L14.67 7.431V1.976a.977.977 0 0 0-1.953 0V7.43l-1.263-1.262a.977.977 0 0 0-1.38 1.381l2.93 2.93c.09.09.198.163.317.212z" fill="#F9F9F9" fill-rule="nonzero"/>
        <path d="M13.225 10.922a1.217 1.217 0 0 1-.398-.267L9.898 7.726a1.226 1.226 0 1 1 1.734-1.734l.836.835V1.976a1.227 1.227 0 0 1 2.453 0v4.851l.836-.836a1.226 1.226 0 0 1 1.731 1.735l-2.929 2.929a1.218 1.218 0 0 1-.865.36c-.161 0-.32-.031-.47-.093zM10.36 6.255a.726.726 0 0 0-.11 1.118l2.93 2.927a.726.726 0 0 0 1.026 0l2.93-2.929a.726.726 0 1 0-1.028-1.027L14.42 8.033V1.976a.727.727 0 0 0-1.453 0v6.057l-1.689-1.688a.721.721 0 0 0-.513-.213v.001a.726.726 0 0 0-.404.122z" fill="#061025"/>
    </g>
</svg>
