<?xml version="1.0" encoding="UTF-8"?>
<svg width="25px" height="25px" viewBox="0 0 25 25" version="1.1" xmlns="http://www.w3.org/2000/svg" xmlns:xlink="http://www.w3.org/1999/xlink">
    <title>Group 2</title>
    <g id="Main" stroke="none" stroke-width="1" fill="none" fill-rule="evenodd">
        <g id="S01" transform="translate(-101.000000, -90.000000)">
            <g id="Group-21639" transform="translate(-0.001000, 90.000000)">
                <g id="Group-2" transform="translate(101.001000, 0.000000)">
                    <circle id="Oval" fill="#081B41" cx="12.5" cy="12.5" r="12.5"></circle>
                    <g id="Group" transform="translate(7.099414, 6.884433)" fill-rule="nonzero">
                        <path d="M8.8324053,9.76725898 L8.14432904,9.25119202 C7.95319436,9.44234073 7.74293929,9.63347842 7.51358238,9.78638536 L8.18255378,10.2833229 L8.18255378,10.3406721 C8.85152768,9.8246081 9.42492473,9.17473755 9.86453622,8.42931317 C10.0938986,8.00881606 10.265926,7.56920458 10.3615028,7.11048974 L10.3615028,7.09136335 C10.265926,7.55010423 10.0939177,8.02792142 9.84543586,8.42931317 C9.57784871,8.92627477 9.23379205,9.36589126 8.8324053,9.76725898 Z" id="Path-58695" fill="#00B6FA"></path>
                        <path d="M8.83299205,9.76725898 L8.1449178,9.25119202 C7.95376308,9.44234073 7.73650873,9.63868433 7.50715131,9.79158627 L8.18314253,10.2833229 L8.18314253,10.3406721 C8.85211343,9.8246081 9.42550998,9.17473755 9.86512447,8.42931317 C10.0944869,8.00881606 10.2665162,7.56920458 10.3620741,7.11048974 L10.3620741,7.09136335 C10.2665162,7.55010423 10.0944869,8.02792142 9.84602211,8.42931317 C9.57841793,8.92627477 9.2343783,9.36589126 8.83299205,9.76725898 Z" id="Path-58696" fill="#00B6FA"></path>
                        <path d="M7.51466509,10.7991997 C6.80746745,11.2196888 6.06204007,11.487298 5.29749031,11.5637475 C6.04291769,11.5063984 6.80746745,11.2196888 7.51466509,10.7991997 Z" id="Path-58697" fill="#142D51"></path>
                        <path d="M7.51466509,10.7991997 C6.80746745,11.2196888 6.06204007,11.487298 5.29749031,11.5637475 C6.04291769,11.5063984 6.80746745,11.2196888 7.51466509,10.7991997 Z" id="Path-58698" fill="#FFFFFF"></path>
                        <path d="M2.14272544,0 L3.28953906,0.860107091 L4.6083645,0.860107091 L3.46154887,0 L2.14272544,0 Z" id="Path-58699" fill="#00B6FA"></path>
                        <path d="M2.14272544,0 L3.28953906,0.860107091 L4.6083645,0.860107091 L3.46154887,0 L2.14272544,0 Z" id="Path-58700" fill="#00B6FA"></path>
                        <path d="M1.30234537,0.000262492397 L0.00262492397,0.000262492397 L0.00262492397,3.15399859 L8.14500515,9.25121271 C9.15801468,8.23820017 9.693187,7.05316231 9.75054012,6.80467751 C9.78876486,6.67089394 9.82699059,6.63266721 9.90344607,6.63266721 C10.0372487,6.63266721 10.209256,6.80467751 10.3812853,7.01493458 L10.3812853,7.09138705 C10.4386154,6.86202663 10.4768621,6.63266721 10.4959645,6.42241414 L10.4959645,6.25038481 L3.29016349,0.860368081 L1.30234537,0.860368081 L1.30234537,0.000262492397 Z" id="Path-58701" fill="#00B6FA"></path>
                        <path d="M1.30234537,0.000262492397 L0.00262492397,0.000262492397 L0.00262492397,3.15399859 L8.14500515,9.25121271 C9.17488608,8.31465465 9.74830215,7.07226267 9.75054012,6.80467751 C9.78876486,6.67089394 9.82699059,6.63266721 9.90344607,6.63266721 C10.0372487,6.63266721 10.209256,6.80467751 10.3812853,7.01493458 L10.3812853,7.09138705 C10.4386154,6.86202663 10.4768621,6.63266721 10.4959645,6.42241414 L10.4959645,6.25038481 L3.29016349,0.860368081 L1.30234537,0.860368081 L1.30234537,0.000262492397 Z" id="Path-58702" fill="#00B6FA"></path>
                        <path d="M9.90228406,6.6323954 C9.82582858,6.6323954 9.78760385,6.67062214 9.74937912,6.8044057 C9.71113235,7.0528845 9.17595753,8.25703322 8.14382662,9.2509414 L8.83192291,9.76700836 C9.23330965,9.36561961 9.57734879,8.92602415 9.86405732,8.42905855 C10.1125191,8.00856644 10.2845494,7.54983208 10.3801023,7.09111224 L10.3801023,7.01465976 C10.208096,6.8044057 10.0360676,6.6323954 9.90228406,6.6323954 Z" id="Path-58703" fill="#00B6FA"></path>
                        <path d="M9.90228406,6.6323954 C9.82582858,6.6323954 9.78760385,6.67062214 9.74937912,6.8044057 C9.71113235,7.0528845 9.17595753,8.25703322 8.14382662,9.2509414 L8.83192291,9.76700836 C9.23330965,9.36561961 9.57734879,8.92602415 9.86405732,8.42905855 C10.1125191,8.00856644 10.2845494,7.54983208 10.3801023,7.09111224 L10.3801023,7.01465976 C10.208096,6.8044057 10.0360676,6.6323954 9.90228406,6.6323954 Z" id="Path-58704" fill="#00B6FA"></path>
                        <path d="M9.90228406,6.6323954 C9.82582858,6.6323954 9.78760385,6.67062214 9.74937912,6.8044057 C9.71113235,7.0528845 9.17595753,8.25703322 8.14382662,9.2509414 L8.83192291,9.76700836 C9.23330965,9.36561961 9.57734879,8.92602415 9.86405732,8.42905855 C10.1125191,8.00856644 10.2845494,7.54983208 10.3801023,7.09111224 L10.3801023,7.01465976 C10.208096,6.8044057 10.0360676,6.6323954 9.90228406,6.6323954 Z" id="Path-58705" fill="#00B6FA"></path>
                        <path d="M1.30235603,0 L1.30235603,0.860107091 L3.29015487,0.860107091 L2.14335876,0 L1.30235603,0 Z" id="Path-58706" fill="#00B6FA"></path>
                        <path d="M1.30235603,0 L1.30235603,0.860107091 L3.29015487,0.860107091 L2.14335876,0 L1.30235603,0 Z" id="Path-58707" fill="#00B6FA"></path>
                        <path d="M1.30235603,0 L1.30235603,0.860107091 L3.29015487,0.860107091 L2.14335876,0 L1.30235603,0 Z" id="Path-58708" fill="#00B6FA"></path>
                        <path d="M10.5527544,0 L10.4954244,0 L9.71175421,0 L9.71175421,0.860107091 L4.60844777,0.860107091 L10.5527544,5.31356251 C10.5527544,4.98862623 10.5527544,4.68281634 10.5527544,4.43433354 L10.5527544,0 Z" id="Path-58709" fill="#00B6FA"></path>
                        <path d="M10.5527544,0 L10.4954244,0 L9.71175421,0 L9.71175421,0.860107091 L4.60844777,0.860107091 L10.5527544,5.31356251 C10.5527544,4.98862623 10.5527544,4.68281634 10.5527544,4.43433354 L10.5527544,0 Z" id="Path-58710" fill="#00B6FA"></path>
                        <path d="M9.71173705,0 L3.46161849,0 L4.60843161,0.860107091 L9.71173705,0.860107091 L9.71173705,0 Z" id="Path-58711" fill="#00B6FA"></path>
                        <path d="M9.71173705,0 L3.46161849,0 L4.60843161,0.860107091 L9.71173705,0.860107091 L9.71173705,0 Z" id="Path-58712" fill="#00B6FA"></path>
                        <path d="M9.71173705,0 L3.46161849,0 L4.60843161,0.860107091 L9.71173705,0.860107091 L9.71173705,0 Z" id="Path-58713" fill="#00B6FA"></path>
                        <path d="M7.61358238,10.7800378 C7.56355686,10.7800378 7.56355686,10.8800378 7.51358238,10.8800378 C7.5468987,10.8800378 7.58023203,10.8467044 7.61358238,10.7800378 Z" id="Path-58714" fill="#142D51"></path>
                        <path d="M7.61358238,10.7800378 C7.56355686,10.7800378 7.56355686,10.8800378 7.51358238,10.8800378 C7.5468987,10.8800378 7.58023203,10.8467044 7.61358238,10.7800378 Z" id="Path-58715" fill="#FFFFFF"></path>
                        <path d="M5.58320434,10.665314 C6.32863323,10.5315284 6.97848325,10.2065972 7.53277494,9.80520741 L0.00203790296,4.18583501 L0.00203790296,4.45342017 C0.00203790296,5.37087587 -0.0744158214,7.11018941 0.709238045,8.42903286 C1.56934413,9.91988962 3.06019764,11.0667028 4.60840152,11.4489841 C4.34081436,11.1622796 4.49371881,10.8564467 5.58320434,10.665314 Z" id="Path-58716" fill="#00B6FA"></path>
                        <path d="M5.58320434,10.665314 C6.40304098,10.6080029 6.97848325,10.2065972 7.53277494,9.80520741 L0.00203790296,4.18583501 L0.00203790296,4.45342017 C0.00203790296,5.37087587 -0.0744158214,7.11018941 0.709238045,8.42903286 C1.56934413,9.91988962 3.06019764,11.0667028 4.60840152,11.4489841 C4.34081436,11.1622796 4.49371881,10.8564467 5.58320434,10.665314 Z" id="Path-58717" fill="#00B6FA"></path>
                        <path d="M7.5322253,9.80540349 C6.9779306,10.2067882 6.34718643,10.5317295 5.58263567,10.6655101 C4.49316966,10.8566568 4.34026371,11.1624717 4.60785087,11.4491782 C4.68430285,11.4682836 4.76075682,11.487408 4.83720929,11.487408 C4.99011424,11.5256357 5.14302119,11.5447381 5.29594566,11.5638604 C6.04137204,11.487408 6.80590127,11.2198038 7.51310191,10.7993147 C7.5322253,10.7993147 7.5322253,10.7802063 7.55133065,10.7802063 C7.62780115,10.7419766 7.70425262,10.6846275 7.7807081,10.6272823 C7.93361705,10.5317295 8.06739561,10.4170473 8.22032509,10.3214685 L8.22032509,10.3023671 L7.5322253,9.80540349 Z" id="Path-58718" fill="#00B6FA"></path>
                        <path d="M7.5322253,9.80540349 C6.9779306,10.2067882 6.34718643,10.5317295 5.58263567,10.6655101 C4.49316966,10.8566568 4.34026371,11.1624717 4.60785087,11.4491782 C4.68430285,11.4682836 4.76075682,11.487408 4.83720929,11.487408 C4.99011424,11.5256357 5.14302119,11.5447381 5.29594566,11.5638604 C6.04137204,11.487408 6.80590127,11.2198038 7.51310191,10.7993147 C7.5322253,10.7993147 7.5322253,10.7802063 7.55133065,10.7802063 C7.62780115,10.7419766 7.70425262,10.6846275 7.7807081,10.6272823 C7.93361705,10.5317295 8.06739561,10.4065994 8.22032509,10.3110186 L8.22032509,10.3023671 L7.5322253,9.80540349 Z" id="Path-58719" fill="#00B6FA"></path>
                        <path d="M7.5322253,9.80540349 C6.9779306,10.2067882 6.34718643,10.5317295 5.58263567,10.6655101 C4.49316966,10.8566568 4.34026371,11.1624717 4.60785087,11.4491782 C4.68430285,11.4682836 4.76075682,11.487408 4.83720929,11.487408 C4.99011424,11.5256357 5.14302119,11.5447381 5.29594566,11.5638604 C6.04137204,11.487408 6.80590127,11.2198038 7.51310191,10.7993147 C7.5322253,10.7993147 7.5322253,10.7802063 7.55133065,10.7802063 C7.62780115,10.7419766 7.70425262,10.6846275 7.7807081,10.6272823 C7.93361705,10.5317295 8.06739561,10.4065013 8.22032509,10.3109485 L8.22032509,10.3023671 L7.5322253,9.80540349 Z" id="Path-58720" fill="#00B6FA"></path>
                    </g>
                </g>
            </g>
        </g>
    </g>
</svg>