<svg width="25" height="27" viewBox="0 0 25 27" xmlns="http://www.w3.org/2000/svg">
    <g fill="none" fill-rule="evenodd">
        <path d="M24.765.208v10.799c.015 2.125.04 5.683-1.642 8.455-2.328 3.913-6.57 6.776-10.553 7.121h-.086A12.7 12.7 0 0 1 6.5 24.325a15.585 15.585 0 0 1-4.6-4.866C.251 16.659.276 13.127.291 11.015v-.537L.294.208h24.471zm-23.47 1v9.814c-.015 2.009-.039 5.371 1.468 7.928 2.165 3.638 6.086 6.3 9.77 6.634 3.664-.336 7.574-3 9.74-6.635 1.536-2.534 1.512-5.914 1.5-7.934v-.536l-.007-9.271H1.294z" fill="#00B6FA"/>
        <path d="M17.035 18.37c-.305.315-.64.6-1 .849l1.061.788v.091a10.683 10.683 0 0 0 2.671-3.032c.364-.655.63-1.36.788-2.092v-.03a6.706 6.706 0 0 1-.818 2.122 9.107 9.107 0 0 1-1.61 2.122l-1.092-.818z" fill="#00B6FA" fill-rule="nonzero"/>
        <path d="M17.036 18.37a6.873 6.873 0 0 1-1.012.857l1.072.78v.091a10.683 10.683 0 0 0 2.668-3.031c.365-.655.63-1.36.788-2.092v-.03a6.706 6.706 0 0 1-.818 2.122 9.108 9.108 0 0 1-1.607 2.121l-1.09-.818z" fill="#00B6FA" fill-rule="nonzero"/>
        <path d="M12.52 22.041a8.274 8.274 0 0 0 3.516-1.213 8.554 8.554 0 0 1-3.516 1.213z" fill="#142D51" fill-rule="nonzero"/>
        <path d="M12.52 22.041a8.274 8.274 0 0 0 3.516-1.213 8.554 8.554 0 0 1-3.516 1.213z" fill="#FFF" fill-rule="nonzero"/>
        <path d="M9.335 5.06h2.092L9.61 3.696H7.516l1.82 1.364z" fill="#00B6FA" fill-rule="nonzero"/>
        <path d="M9.335 5.06h2.092L9.61 3.696H7.516l1.82 1.364zM4.118 3.697v5l12.914 9.67a11 11 0 0 0 2.546-3.88c.061-.212.121-.273.243-.273.212 0 .485.273.758.606v.121c.088-.349.149-.703.182-1.061v-.273L9.336 5.062H6.184V3.697H4.118z" fill="#00B6FA" fill-rule="nonzero"/>
        <path d="M4.118 3.697v5l12.914 9.67a8.609 8.609 0 0 0 2.546-3.88c.061-.212.121-.273.243-.273.212 0 .485.273.758.606v.121c.088-.349.149-.703.182-1.061v-.273L9.336 5.062H6.184V3.697H4.118z" fill="#00B6FA" fill-rule="nonzero"/>
        <path d="M19.58 14.489a9.917 9.917 0 0 1-2.546 3.88l1.091.818a10.163 10.163 0 0 0 1.637-2.122 7 7 0 0 0 .818-2.122v-.121c-.272-.333-.545-.606-.757-.606-.12 0-.182.061-.243.273z" fill="#00B6FA" fill-rule="nonzero"/>
        <path d="M19.58 14.489a9.917 9.917 0 0 1-2.546 3.88l1.091.818a10.163 10.163 0 0 0 1.637-2.122 7 7 0 0 0 .818-2.122v-.121c-.272-.333-.545-.606-.757-.606-.12 0-.182.061-.243.273z" fill="#00B6FA" fill-rule="nonzero"/>
        <path d="M19.58 14.489a9.917 9.917 0 0 1-2.546 3.88l1.091.818a10.163 10.163 0 0 0 1.637-2.122 7 7 0 0 0 .818-2.122v-.121c-.272-.333-.545-.606-.757-.606-.12 0-.182.061-.243.273zM6.183 5.061h3.154l-1.82-1.365H6.183v1.365z" fill="#00B6FA" fill-rule="nonzero"/>
        <path d="M6.183 5.061h3.154l-1.82-1.365H6.183v1.365z" fill="#00B6FA" fill-rule="nonzero"/>
        <path d="M6.183 5.061h3.154l-1.82-1.365H6.183v1.365zM19.521 3.696v1.365h-8.09l9.424 7.06V3.696h-1.334z" fill="#00B6FA" fill-rule="nonzero"/>
        <path d="M19.521 3.696v1.365h-8.09l9.424 7.06V3.696h-1.334z" fill="#00B6FA" fill-rule="nonzero"/>
        <path d="m9.608 3.696 1.82 1.364h8.093V3.696H9.608z" fill="#00B6FA" fill-rule="nonzero"/>
        <path d="m9.608 3.696 1.82 1.364h8.093V3.696H9.608z" fill="#00B6FA" fill-rule="nonzero"/>
        <path d="m9.608 3.696 1.82 1.364h8.093V3.696H9.608z" fill="#00B6FA" fill-rule="nonzero"/>
        <path d="M16.034 20.828a.094.094 0 0 0 .061-.03c-.03 0-.03.03-.06.03z" fill="#142D51" fill-rule="nonzero"/>
        <path d="M16.034 20.828a.094.094 0 0 0 .061-.03c-.03 0-.03.03-.06.03z" fill="#FFF" fill-rule="nonzero"/>
        <path d="M16.065 19.246 4.121 10.335v.424c0 1.455-.12 4.214 1.122 6.305a10.291 10.291 0 0 0 6.184 4.79c-.425-.454-.182-.939 1.546-1.242a7.547 7.547 0 0 0 3.092-1.366z" fill="#00B6FA" fill-rule="nonzero"/>
        <path d="M16.065 19.246 4.121 10.335v.424c0 1.455-.12 4.214 1.122 6.305a10.291 10.291 0 0 0 6.184 4.79c-.425-.454-.182-.939 1.546-1.242a5.807 5.807 0 0 0 3.092-1.366z" fill="#00B6FA" fill-rule="nonzero"/>
        <path d="M12.972 20.608c-1.728.3-1.97.788-1.546 1.243.119.035.24.056.364.061.24.055.483.095.728.121a8.706 8.706 0 0 0 3.516-1.213c.03 0 .03-.03.061-.03.128-.07.25-.152.364-.243.243-.152.455-.333.7-.485v-.03l-1.095-.783a7.373 7.373 0 0 1-3.092 1.359z" fill="#00B6FA" fill-rule="nonzero"/>
        <path d="M12.972 20.608c-1.728.3-1.97.788-1.546 1.243.119.035.24.056.364.061.24.055.483.095.728.121a8.706 8.706 0 0 0 3.516-1.213c.03 0 .03-.03.061-.03.128-.07.25-.152.364-.243.243-.152.455-.35.7-.5v-.014l-1.095-.784a7.373 7.373 0 0 1-3.092 1.359z" fill="#00B6FA" fill-rule="nonzero"/>
        <path d="M12.972 20.608c-1.728.3-1.97.788-1.546 1.243.119.035.24.056.364.061.24.055.483.095.728.121a8.706 8.706 0 0 0 3.516-1.213c.03 0 .03-.03.061-.03.128-.07.25-.152.364-.243.243-.152.455-.35.7-.5v-.014l-1.095-.784a7.373 7.373 0 0 1-3.092 1.359z" fill="#00B6FA" fill-rule="nonzero"/>
    </g>
</svg>
