<svg width="25" height="25" viewBox="0 0 25 25" fill="none" xmlns="http://www.w3.org/2000/svg">
<circle cx="12.5" cy="12.5" r="12.5" fill="#169FEC"/>
<path fill-rule="evenodd" clip-rule="evenodd" d="M18.8737 6H6V12.8603C6 12.8603 6.12744 14.5902 6.43815 15.4009C7.04787 16.9916 8.38253 18.2266 9.83857 19.111C9.93319 19.1685 10.0234 19.2193 10.1069 19.2613C11.5424 19.9826 13.3079 19.9584 14.7881 19.334C14.8441 19.3104 14.8968 19.2862 14.9456 19.2613C14.9731 19.2474 15.0012 19.2322 15.0299 19.216C16.5302 18.3688 17.7838 17.0025 18.4188 15.4009C18.7421 14.5854 18.8737 12.8603 18.8737 12.8603V6Z" fill="#169FEC"/>
<path fill-rule="evenodd" clip-rule="evenodd" d="M18.2808 6.59286H6.50818V12.8603" fill="#142D51"/>
<path fill-rule="evenodd" clip-rule="evenodd" d="M16.7563 8.20209H8.03268V12.8603C8.03268 12.8603 8.11904 14.0275 8.32959 14.5744C8.74304 15.6485 9.64727 16.4801 10.6316 17.0763C10.6965 17.1157 10.7584 17.1504 10.8157 17.1791C11.789 17.666 12.9843 17.6496 13.9877 17.2282C14.0256 17.2123 14.0614 17.1959 14.0945 17.1791C14.1137 17.1693 14.1334 17.1588 14.1535 17.1474C15.1674 16.5757 16.0175 15.6559 16.4481 14.5744C16.6671 14.0243 16.7563 12.8603 16.7563 12.8603V8.20209Z" fill="#169FEC"/>
<path fill-rule="evenodd" clip-rule="evenodd" d="M8.03906 10.5182L15.0516 15.7072L14.4272 16.2602L7.53528 11.1991L8.03906 10.5182Z" fill="#142D51"/>
<path fill-rule="evenodd" clip-rule="evenodd" d="M11.7899 9.16639L18.1006 13.6746L17.4763 14.2275L10.5843 9.16639L11.7899 9.16639Z" fill="#142D51"/>
</svg>
