<svg width="58" height="26" viewBox="0 0 58 26" xmlns="http://www.w3.org/2000/svg">
    <g fill="#FFF" fill-rule="evenodd">
        <path d="M13.135.569C5.333.569 1.31 4.419 1.067 12.118-.081 20.961 4.03 25.383 13.4 25.383c8.992 0 13.123-4.258 12.393-12.774.382-8.027-3.837-12.04-12.66-12.04zm-1.874 7.14a4.885 4.885 0 0 1 5.015 2.387c.22.489.259 1.04.11 1.554a4.1 4.1 0 0 1-3.25 2.819c.487-.367.829-.895.965-1.49a2.184 2.184 0 0 0-.376-1.733 2.206 2.206 0 0 0-3.972 1.6c.09 1.024.867 1.688 2.32 1.94-.216.115-.384.2-.547.291a5.287 5.287 0 0 0-1.7 1.478c-.148.2-.25.215-.474.078a4.836 4.836 0 0 1 .08-8.226v-.005a4.885 4.885 0 0 1 1.83-.692zM5.845 19.9A3.693 3.693 0 0 1 9.5 17.023a4.043 4.043 0 0 0-.766 2.146c-.521.1-1.012.161-1.49.282v-.005c-.47.119-.925.3-1.4.453zM18.629 4.002a2.4 2.4 0 0 1 .345.048c-.104.16-.221.31-.35.449-.166.155-.354.306-.593.071-.058-.057-.193-.044-.294-.045-.462-.006-.924-.021-1.385 0-.4.013-.8.054-1.193.122-.074.013-.184.259-.15.35.07.224.198.426.37.586.64.505 1.32.959 1.964 1.461A5.091 5.091 0 0 1 18.9 8.798c.42.932.518 1.977.28 2.971a6.489 6.489 0 0 1-2.567 4.1c-.596.373-1.226.686-1.883.934-.561.258-1.138.481-1.7.736a2.533 2.533 0 0 0-1.415 2.7 2.623 2.623 0 0 0 2.129 2.106 2.555 2.555 0 0 0 2.879-1.891 2.523 2.523 0 0 0-1.908-3.128l-.265-.068c.393-.176.733-.3 1.047-.473a28.99 28.99 0 0 0 1.61-.956.255.255 0 0 1 .372.015 5.059 5.059 0 0 1 1.784 3.3 5.116 5.116 0 0 1-2.735 5.274A5.17 5.17 0 1 1 13 14.785a5.039 5.039 0 0 0 2.777-1.473c.333-.344.603-.743.8-1.18.15-.382.226-.79.225-1.2a2.8 2.8 0 0 0-.245-1.025 6.971 6.971 0 0 0-1.484-1.712l-2.315-1.811c-.082-.067-.174-.062-.373-.049-.367.035-.736.03-1.1-.019.21-.16.787-.393 1.034-.58-.751-.507-1.607-.324-2.394-.475a2.83 2.83 0 0 1 1.594-.917 7.571 7.571 0 0 0-.14-.85.589.589 0 0 0-.272-.292c-.272-.159-.56-.291-.873-.449.28-.18.604-.281.937-.29a3.5 3.5 0 0 1 .939.091 1.513 1.513 0 0 0 1.446-.335c-.35-.141-.7-.269-1.037-.421a10.177 10.177 0 0 1-.974-.509c.856.23 1.74.342 2.627.331l.023-.122-2.09-.487a6.381 6.381 0 0 1 3.5.4c.31.15.633.275.928.446.137.108.258.235.36.377.094.1.17.238.285.3.442.2.928.281 1.412.235l.01-.165c.496.155 1.053.725 1.052 1.142h-2.4a.812.812 0 0 0-.256.1c.08.047.16.132.243.135h-.004c.464.017.929.01 1.393.021z"/>
        <path d="M16.16 2.835a.122.122 0 0 0 .026.16.185.185 0 0 0 .254.068c.077-.039.153-.08.246-.13-.075-.064-.135-.117-.2-.168-.106-.094-.197-.037-.284.03a.122.122 0 0 0-.042.04z" fill-rule="nonzero"/>
        <g fill-rule="nonzero">
            <path d="m35.962 18.337.482.778a.258.258 0 0 0 .21.105h1.614c.46 0 .9.063 1.237.063l-1.47-2.565h-3.1v-.021c.252.21 0-.021 1.027 1.64zM40.04 12.114a.441.441 0 0 1 .22-.065h11.238a7.129 7.129 0 0 0-.607-1.093c-.314-.547-.692-1.156-.88-1.493-.587 0-6.771.042-7.59 0a.663.663 0 0 1-.5-.315c-.188-.294.148-.694.295-.967.189-.337.378-.694.566-1.03.539-.968 1.063-1.914 1.608-2.882.508-.9 1.008-1.808 1.508-2.691l.567-1.009H43.53a.461.461 0 0 0-.19.21c-.083.169-7 12.995-8.342 15.1h3.06l1.824-3.599a.441.441 0 0 1 .157-.166zM53.76 8.748l-1.49-2.649a500.17 500.17 0 0 0-1.53 2.818c.169.294.483.841.9 1.556.212.399.443.778.61 1.093l1.51-2.818z"/>
            <path d="M48.665 3.681a.259.259 0 0 0 .021-.21c-.06-.126-.76-1.241-1.216-2.019l-.272-.441-4.172 7.486h2.977l2.662-4.816zM43.907 21.218a.259.259 0 0 0-.021.21c.063.106.67 1.094 1.133 1.875.147.231.273.442.356.609l4.17-7.509h-2.972c-.507.9-2.561 4.605-2.666 4.815zM56.017 5.718a.278.278 0 0 0-.12-.039l-2.85-.021 1.466 2.607h3.1c-.361-.5-.683-1.027-.96-1.577-.253-.441-.507-.799-.546-.883a.278.278 0 0 0-.09-.087zM40.28 18.779c.312-.609 1.048-1.976 1.512-2.86l-1.512-2.607-1.488 2.818 1.488 2.649z"/>
            <path d="M52.376 12.833a13.32 13.32 0 0 1-2.243.084h-9.12l1.53 2.579 7.736-.084a.517.517 0 0 1 .378.252.538.538 0 0 1 0 .5l-4.612 8.5h3l8.529-15.768h-3.06l-1.844 3.6a.764.764 0 0 1-.294.337z"/>
        </g>
    </g>
</svg>
