<svg width="25" height="25" viewBox="0 0 25 25" fill="none" xmlns="http://www.w3.org/2000/svg">
<rect width="25" height="25" rx="12.5" fill="white"/>
<path d="M19.8541 11.0311H19.25V11H12.5V14H16.7386C16.1203 15.7464 14.4586 17 12.5 17C10.0149 17 8 14.9851 8 12.5C8 10.0149 10.0149 8 12.5 8C13.6471 8 14.6908 8.43275 15.4854 9.13962L17.6068 7.01825C16.2673 5.76987 14.4755 5 12.5 5C8.35812 5 5 8.35812 5 12.5C5 16.6419 8.35812 20 12.5 20C16.6419 20 20 16.6419 20 12.5C20 11.9971 19.9482 11.5062 19.8541 11.0311Z" fill="#FFC107"/>
<path d="M5.86475 9.00913L8.32887 10.8163C8.99562 9.1655 10.6104 8 12.5 8C13.6471 8 14.6907 8.43275 15.4854 9.13963L17.6067 7.01825C16.2672 5.76988 14.4755 5 12.5 5C9.61925 5 7.121 6.62638 5.86475 9.00913Z" fill="#FF3D00"/>
<path d="M12.4999 20C14.4371 20 16.1974 19.2586 17.5282 18.053L15.207 16.0888C14.4287 16.6807 13.4777 17.0008 12.4999 17C10.5491 17 8.89275 15.7561 8.26875 14.0203L5.823 15.9046C7.06425 18.3335 9.585 20 12.4999 20Z" fill="#4CAF50"/>
<path d="M19.8541 11.0311H19.25V11H12.5V14H16.7386C16.4428 14.8312 15.91 15.5574 15.206 16.0891L15.2071 16.0884L17.5284 18.0526C17.3641 18.2019 20 16.25 20 12.5C20 11.9971 19.9482 11.5063 19.8541 11.0311Z" fill="#1976D2"/>
</svg>
