<svg width="26" height="18" viewBox="0 0 26 18" xmlns="http://www.w3.org/2000/svg">
    <path d="M13.858 10.312a.746.746 0 0 1-1.042-.071l-2.486-2.8-3.707 3.295a3.355 3.355 0 1 1-.99-1.114l4.263-3.791a.746.746 0 0 1 1.053.062l2.5 2.808 4.4-3.764a3.356 3.356 0 1 1 .958 1.142L17.253 7.41l3.517 4.206a3.356 3.356 0 1 1-1.134.968l-3.523-4.202-2.255 1.93zm9.497 5.829a1.864 1.864 0 1 0-1.036.314c.369 0 .73-.11 1.036-.314zM4.719 13.905a1.864 1.864 0 1 0-1.037.313l.001.001c.369 0 .73-.11 1.036-.314zM21.864 4.96a1.864 1.864 0 1 0-1.036.313v.001c.369 0 .73-.11 1.036-.314z" fill="#F9F9F9" fill-rule="evenodd"/>
</svg>
