<svg width="26" height="27" viewBox="0 0 26 27" xmlns="http://www.w3.org/2000/svg">
    <g fill="none" fill-rule="evenodd">
        <path d="M4.237 4.835a12.4 12.4 0 0 0-3.632 8.763.885.885 0 0 0 1.771 0 10.624 10.624 0 0 1 21.248 0 .885.885 0 0 0 1.771 0A12.4 12.4 0 0 0 13 1.203a12.4 12.4 0 0 0-8.763 3.632z" fill="#F9F9F9" fill-rule="nonzero"/>
        <path d="M21.94 4.657a12.645 12.645 0 0 1 3.704 8.941 1.135 1.135 0 0 1-2.271 0 10.374 10.374 0 1 0-20.748 0 1.135 1.135 0 0 1-2.271 0A12.645 12.645 0 0 1 13 .953c3.353 0 6.57 1.333 8.94 3.704zm3.014 9.39a.636.636 0 0 0 .186-.449 12.145 12.145 0 1 0-24.289 0 .635.635 0 0 0 1.271 0 10.874 10.874 0 1 1 21.748 0 .636.636 0 0 0 .635.635c.168 0 .33-.067.449-.186z" fill="#061025"/>
        <path d="M7.366 7.964a7.968 7.968 0 0 0-2.334 5.634.885.885 0 0 0 1.771 0 6.2 6.2 0 1 1 12.395 0 .885.885 0 0 0 1.771 0A7.968 7.968 0 0 0 7.366 7.964z" fill="#F9F9F9" fill-rule="nonzero"/>
        <path d="M18.808 7.79a8.227 8.227 0 0 1 2.41 5.808 1.135 1.135 0 0 1-2.271 0 5.948 5.948 0 0 0-11.895 0 1.135 1.135 0 0 1-2.271 0A8.227 8.227 0 0 1 13 5.38a8.227 8.227 0 0 1 5.808 2.41zm1.723 6.254a.636.636 0 0 0 .187-.449 7.718 7.718 0 0 0-15.436 0 .636.636 0 0 0 1.27 0 6.448 6.448 0 1 1 12.896 0 .636.636 0 0 0 .635.635c.168 0 .33-.067.448-.186z" fill="#061025"/>
        <path d="M16.01 11.722a3.541 3.541 0 1 0-3.896 5.293v7.207h-1.771a.886.886 0 0 0 0 1.771h5.315a.885.885 0 1 0 0-1.771h-1.773v-7.207a3.541 3.541 0 0 0 2.656-3.417 3.541 3.541 0 0 0-.53-1.876zm-4.483.892a1.771 1.771 0 1 1 2.946 1.968 1.771 1.771 0 0 1-2.946-1.968z" fill="#F9F9F9"/>
        <path d="M13.327 9.809a3.791 3.791 0 0 1 .808 7.395v6.768h1.523a1.135 1.135 0 0 1 0 2.271h-5.315a1.136 1.136 0 0 1 0-2.271h1.52v-6.768a3.791 3.791 0 0 1 1.133-7.409c.11 0 .22 0 .33.014zm2.78 15.747a.635.635 0 0 0-.45-1.085h-2.022v-7.65l.188-.048a3.291 3.291 0 0 0-.826-6.478 3.291 3.291 0 0 0-.82 6.478l.188.048v7.65h-2.022a.636.636 0 0 0 0 1.271h5.315c.168 0 .33-.067.45-.186zm-1.985-13.638a2.021 2.021 0 1 1-1.123-.341c.4 0 .79.119 1.123.34zm-.278 2.944a1.521 1.521 0 1 0-.845.256c.3 0 .595-.09.845-.256z" fill="#061025"/>
    </g>
</svg>
