<svg width="31" height="18" viewBox="0 0 31 18" xmlns="http://www.w3.org/2000/svg">
    <g fill="none" fill-rule="evenodd">
        <path d="M5.33 2.408A6.861 6.861 0 0 0 1 9a6.861 6.861 0 0 0 7.07 7.071c2.794 0 5.022-1.98 7.072-4.313 2.05 2.334 4.207 4.313 7.07 4.313A6.861 6.861 0 0 0 29.285 9a6.861 6.861 0 0 0-7.07-7.071c-2.864 0-5.021 1.98-7.071 4.313-2.051-2.333-4.28-4.313-7.072-4.313a6.861 6.861 0 0 0-2.74.479zM12.81 9c-1.626 1.874-3.253 3.536-4.738 3.536A3.32 3.32 0 0 1 4.536 9 3.32 3.32 0 0 1 8.07 5.465c1.485 0 3.11 1.662 4.738 3.536zm10.795-3.332A3.32 3.32 0 0 1 25.75 9a3.32 3.32 0 0 1-3.536 3.536c-1.52 0-3.147-1.662-4.738-3.536 1.624-1.871 3.218-3.535 4.738-3.535a3.32 3.32 0 0 1 1.39.204z" fill="#F9F9F9"/>
        <path d="M15.14 4.753C17.088 2.678 19.314.929 22.215.929a7.816 7.816 0 0 1 6.018 2.557 8.433 8.433 0 0 1 0 11.029 7.816 7.816 0 0 1-6.018 2.557c-2.9 0-5.127-1.749-7.072-3.824-1.886 2-4.177 3.824-7.07 3.824a7.816 7.816 0 0 1-6.018-2.557 8.433 8.433 0 0 1 0-11.029A7.816 7.816 0 0 1 8.07.929c2.894 0 5.185 1.82 7.07 3.824zm-.75 2.149c-1.812-2.063-3.833-3.973-6.32-3.973A5.879 5.879 0 0 0 2 9a5.879 5.879 0 0 0 6.07 6.071c2.487 0 4.507-1.91 6.32-3.974l.752-.855.75.855c2.1 2.385 3.974 3.974 6.32 3.974A5.879 5.879 0 0 0 28.285 9a5.879 5.879 0 0 0-6.07-6.071c-2.347 0-4.224 1.589-6.32 3.974l-.752.854-.751-.855zm-.826 1.443.569.655-.57.655c-1.7 1.963-3.531 3.88-5.492 3.88a4.329 4.329 0 0 1-3.523-1.525A4.747 4.747 0 0 1 3.536 9a4.747 4.747 0 0 1 1.012-3.011A4.329 4.329 0 0 1 8.07 4.465c1.96 0 3.789 1.917 5.493 3.88zM8.07 6.465A2.355 2.355 0 0 0 5.536 9a2.355 2.355 0 0 0 2.535 2.536c.993 0 2.429-1.444 3.407-2.536l-.001.001C10.5 7.908 9.064 6.465 8.07 6.465zm16.083-1.65a4.329 4.329 0 0 1 1.583 1.174A4.747 4.747 0 0 1 26.75 9a4.747 4.747 0 0 1-1.013 3.011 4.329 4.329 0 0 1-3.523 1.525c-2.03 0-3.9-2.007-5.5-3.888l-.556-.654.563-.648C18.5 6.3 20.25 4.465 22.214 4.465a4.329 4.329 0 0 1 1.94.35zm-.938 6.584A2.355 2.355 0 0 0 24.75 9a2.355 2.355 0 0 0-2.536-2.536c-1 0-2.41 1.42-3.412 2.541.939 1.064 2.379 2.531 3.412 2.531.34.027.682-.02 1.002-.137z" fill="#061025"/>
    </g>
</svg>
