<svg width="26" height="24" viewBox="0 0 26 24" xmlns="http://www.w3.org/2000/svg">
    <g fill="#F9F9F9" fill-rule="evenodd">
        <path d="m12.783 11.953-6.76-3.119a.519.519 0 0 1 0-.944l6.757-3.119a.517.517 0 0 1 .437 0l6.757 3.119a.52.52 0 0 1 0 .944l-6.757 3.119a.512.512 0 0 1-.434 0zM13 10.908l5.516-2.546-2.428-1.118L13 5.817 7.484 8.362 13 10.908z"/>
        <path d="m12.74 12.044-6.756-3.12a.619.619 0 0 1 0-1.126L12.74 4.68a.62.62 0 0 1 .52 0l6.757 3.118a.62.62 0 0 1 0 1.126l-6.758 3.12a.615.615 0 0 1-.519 0zm.084-7.181L6.067 7.981a.419.419 0 0 0 0 .762l6.756 3.119a.424.424 0 0 0 .35 0l6.757-3.119a.42.42 0 0 0 0-.762l-6.753-3.118A.417.417 0 0 0 13 4.824H13c-.061 0-.121.013-.176.039zm-5.58 3.499L13 5.706l3.13 1.447 2.624 1.209L13 11.019 7.245 8.362zM13 10.798l5.277-2.436-2.23-1.028L13 5.924 7.723 8.362 13 10.798z"/>
        <path d="M12.782 19.228 6.023 16.11a.52.52 0 1 1 .436-.945L13 18.184l6.54-3.018a.52.52 0 1 1 .436.945l-6.757 3.119a.533.533 0 0 1-.436-.002z" fill-rule="nonzero"/>
        <path d="m12.74 19.319-6.757-3.118a.621.621 0 0 1 .259-1.183c.09 0 .178.02.26.058l6.5 3 6.5-3a.612.612 0 0 1 .647.08.621.621 0 0 1-.128 1.046l-6.761 3.116a.65.65 0 0 1-.26.058.631.631 0 0 1-.26-.057zm-6.757-4.005a.421.421 0 0 0 .084.704l6.756 3.119a.43.43 0 0 0 .355 0l6.755-3.119a.42.42 0 0 0-.351-.763L13 18.292l-6.577-3.036a.421.421 0 0 0-.44.058z"/>
        <path d="M12.631 19.124a.52.52 0 0 1-.152-.368V11.48a.52.52 0 0 1 1.04 0v7.28a.52.52 0 0 1-.52.516.52.52 0 0 1-.368-.152z" fill-rule="nonzero"/>
        <path d="M12.56 19.194a.62.62 0 0 1-.181-.438V11.48a.62.62 0 0 1 1.24 0v7.28a.62.62 0 0 1-.62.616.62.62 0 0 1-.438-.182zm.142-8.011a.42.42 0 0 0-.123.297v7.28a.42.42 0 1 0 .84 0v-7.28a.42.42 0 0 0-.42-.42.42.42 0 0 0-.297.123z"/>
        <path d="M19.39 16.007a.52.52 0 0 1-.154-.365v-7.28a.52.52 0 1 1 1.04 0v7.28a.52.52 0 0 1-.52.516.52.52 0 0 1-.366-.15z" fill-rule="nonzero"/>
        <path d="M19.317 16.076a.62.62 0 0 1-.181-.438V8.362a.62.62 0 1 1 1.239 0v7.28a.62.62 0 0 1-.62.616.62.62 0 0 1-.438-.182zm.278-8.102a.42.42 0 0 0-.26.388v7.28a.42.42 0 1 0 .84 0v-7.28a.42.42 0 0 0-.58-.388z"/>
        <path d="M5.877 16.007a.52.52 0 0 1-.154-.365v-7.28a.52.52 0 0 1 1.04 0v7.28a.52.52 0 0 1-.52.516.52.52 0 0 1-.366-.15z" fill-rule="nonzero"/>
        <path d="M5.805 16.076a.62.62 0 0 1-.182-.438V8.362a.62.62 0 0 1 1.24 0v7.28a.62.62 0 0 1-.62.616.62.62 0 0 1-.438-.182zm.141-8.011a.42.42 0 0 0-.123.297v7.28a.42.42 0 0 0 .84 0v-7.28a.42.42 0 0 0-.717-.297zM1.449 23.084a2.079 2.079 0 1 1 1.155.35c-.411 0-.813-.122-1.155-.35zm.577-2.594a1.04 1.04 0 1 0 .578-.174v-.001a1.04 1.04 0 0 0-.578.175z"/>
        <path d="M1.393 23.167a2.179 2.179 0 1 1 1.21.367c-.43 0-.851-.128-1.21-.367zm.111-3.457a1.979 1.979 0 1 0 1.1-.334c-.392 0-.774.116-1.1.334zm.466 2.593a1.14 1.14 0 1 1 .634.192 1.14 1.14 0 0 1-.634-.192zm.112-1.729a.94.94 0 1 0 .522-.158.94.94 0 0 0-.522.158zM1.449 4.373a2.079 2.079 0 1 1 1.155.35c-.411 0-.813-.122-1.155-.35zm.577-2.594a1.04 1.04 0 1 0 .578-.174v-.001a1.04 1.04 0 0 0-.578.175z"/>
        <path d="M1.393 4.456a2.179 2.179 0 1 1 1.21.367c-.43 0-.851-.128-1.21-.367zM1.504.999a1.979 1.979 0 1 0 1.1-.334c-.392 0-.774.116-1.1.334zm.466 2.593a1.14 1.14 0 1 1 .634.192 1.14 1.14 0 0 1-.634-.192zm.112-1.729a.94.94 0 1 0 .522-.158.94.94 0 0 0-.522.158z"/>
        <g>
            <path d="M22.239 23.084a2.079 2.079 0 1 1 1.155.35c-.411 0-.813-.122-1.155-.35zm.577-2.594a1.04 1.04 0 1 0 .578-.174v-.001a1.04 1.04 0 0 0-.578.175z"/>
            <path d="M22.183 23.167a2.179 2.179 0 1 1 1.21.367c-.43 0-.851-.128-1.21-.367zm.111-3.457a1.979 1.979 0 1 0 1.1-.334c-.392 0-.774.116-1.1.334zm.466 2.593a1.14 1.14 0 1 1 .634.192 1.14 1.14 0 0 1-.634-.192zm.112-1.729a.94.94 0 1 0 .522-.158.94.94 0 0 0-.522.158z"/>
        </g>
        <g>
            <path d="M22.239 4.373a2.079 2.079 0 1 1 2.31-3.458 2.079 2.079 0 0 1-2.31 3.458zm.577-2.594a1.04 1.04 0 1 0 .578-.174v-.001a1.04 1.04 0 0 0-.578.175z"/>
            <path d="M22.183 4.456a2.179 2.179 0 1 1 1.21.367c-.43 0-.851-.128-1.21-.367zm.111-3.457a1.979 1.979 0 1 0 1.1-.334c-.392 0-.774.116-1.1.334zm.466 2.593a1.14 1.14 0 1 1 .634.192 1.14 1.14 0 0 1-.634-.192zm.112-1.729a.94.94 0 1 0 1.044 1.564.94.94 0 0 0-1.044-1.564z"/>
        </g>
        <g>
            <path d="M16.045 7.22a.519.519 0 0 1-.188-.712l2.412-4.127a.516.516 0 0 1 .448-.258h3.118a.52.52 0 0 1 0 1.04h-2.82l-2.26 3.871a.521.521 0 0 1-.45.256.519.519 0 0 1-.26-.07z" fill-rule="nonzero"/>
            <path d="M15.995 7.307a.619.619 0 0 1-.224-.849l2.412-4.127a.619.619 0 0 1 .534-.307h3.118a.62.62 0 1 1 0 1.24h-2.763l-2.232 3.82a.624.624 0 0 1-.535.306.619.619 0 0 1-.31-.083zm2.513-5.027a.418.418 0 0 0-.153.152l-2.412 4.127a.421.421 0 0 0 .468.617.421.421 0 0 0 .256-.193l2.29-3.919h2.878a.42.42 0 1 0 0-.839l-3.119-.001a.418.418 0 0 0-.208.056z"/>
        </g>
        <g>
            <path d="M4.164 21.875a.52.52 0 1 1 0-1.04h3.34l2.147-3.682a.52.52 0 0 1 .9.524l-2.3 3.94a.522.522 0 0 1-.449.258H4.164z" fill-rule="nonzero"/>
            <path d="M4.164 21.975a.62.62 0 1 1 0-1.24h3.28l2.12-3.632a.625.625 0 0 1 .847-.224.619.619 0 0 1 .224.849l-2.3 3.94a.624.624 0 0 1-.533.307H4.164zm-.297-.916a.42.42 0 0 0 .297.717h3.638a.423.423 0 0 0 .363-.208l2.3-3.939a.42.42 0 0 0-.726-.423l-2.178 3.73H4.164a.42.42 0 0 0-.297.123z"/>
        </g>
        <g>
            <path d="M9.84 7.034a.522.522 0 0 1-.191-.189L7.504 3.164h-3.34a.52.52 0 1 1 0-1.04h3.638a.522.522 0 0 1 .449.258l2.293 3.942a.52.52 0 0 1-.449.782l.004-.003a.522.522 0 0 1-.26-.07z" fill-rule="nonzero"/>
            <path d="M9.79 7.12a.626.626 0 0 1-.227-.224l-2.12-3.632h-3.28a.62.62 0 0 1 0-1.24h3.639a.624.624 0 0 1 .535.307l2.3 3.94a.62.62 0 0 1-.535.932h-.003a.626.626 0 0 1-.309-.083zM4.003 2.256a.42.42 0 0 0 .16.808h3.4l2.173 3.731a.42.42 0 0 0 .726-.423l-2.3-3.94a.423.423 0 0 0-.36-.208H4.164a.42.42 0 0 0-.16.032z"/>
        </g>
        <g>
            <path d="M18.716 21.878a.519.519 0 0 1-.449-.258l-2.412-4.127a.521.521 0 1 1 .9-.525l2.261 3.87h2.82a.52.52 0 1 1 0 1.04h-3.12z" fill-rule="nonzero"/>
            <path d="M18.716 21.978a.622.622 0 0 1-.535-.307l-2.412-4.127a.621.621 0 0 1 1.07-.626l2.232 3.821h2.764a.62.62 0 1 1 0 1.24v-.001h-3.119zm-2.624-5.112a.421.421 0 0 0-.15.574l2.412 4.127a.422.422 0 0 0 .363.208h3.118a.42.42 0 1 0 0-.84h-2.879l-2.29-3.92a.415.415 0 0 0-.361-.207.427.427 0 0 0-.213.058z"/>
        </g>
    </g>
</svg>
