<svg width="17" height="14" viewBox="0 0 17 14" fill="none" xmlns="http://www.w3.org/2000/svg">
<path d="M-8.58307e-06 6.86C-8.58307e-06 3.166 2.63799 2.49874e-06 5.93599 2.49874e-06L10.553 2.49874e-06C10.729 -0.0106492 10.9052 0.01617 11.0701 0.0786883C11.2349 0.141206 11.3847 0.238 11.5093 0.362671C11.634 0.487343 11.7308 0.637053 11.7933 0.801909C11.8558 0.966765 11.8826 1.14301 11.872 1.319V12.268C11.8826 12.444 11.8558 12.6202 11.7933 12.7851C11.7308 12.95 11.634 13.0997 11.5093 13.2243C11.3847 13.349 11.2349 13.4458 11.0701 13.5083C10.9052 13.5708 10.729 13.5977 10.553 13.587H5.93599C2.63799 13.587 -8.58307e-06 10.553 -8.58307e-06 6.86ZM9.23399 2.639L5.93399 2.639C4.08699 2.639 2.63399 4.486 2.63399 6.86C2.63399 9.234 4.08499 11.081 5.93399 11.081H9.23399V2.639Z" fill="#061025"/>
<path d="M9.23401 10.025C9.22336 9.849 9.25018 9.67276 9.3127 9.5079C9.37521 9.34305 9.47201 9.19334 9.59668 9.06867C9.72135 8.94399 9.87106 8.8472 10.0359 8.78468C10.2008 8.72216 10.377 8.69534 10.553 8.706H15.566C15.9158 8.706 16.2513 8.84496 16.4987 9.09232C16.746 9.33968 16.885 9.67517 16.885 10.025C16.885 10.3748 16.746 10.7103 16.4987 10.9577C16.2513 11.205 15.9158 11.344 15.566 11.344H10.553C10.2109 11.3206 9.88881 11.1742 9.64633 10.9317C9.40385 10.6892 9.25738 10.3671 9.23401 10.025Z" fill="#061025"/>
<path d="M9.23393 3.693C9.22328 3.51701 9.2501 3.34076 9.31262 3.1759C9.37514 3.01105 9.47193 2.86134 9.5966 2.73666C9.72127 2.61199 9.87098 2.5152 10.0358 2.45268C10.2007 2.39016 10.3769 2.36334 10.5529 2.374L15.5659 2.374C15.7419 2.36334 15.9182 2.39016 16.083 2.45268C16.2479 2.5152 16.3976 2.61199 16.5223 2.73666C16.6469 2.86134 16.7437 3.01105 16.8062 3.1759C16.8688 3.34076 16.8956 3.51701 16.8849 3.693C16.8956 3.86899 16.8688 4.04523 16.8062 4.21009C16.7437 4.37494 16.6469 4.52466 16.5223 4.64933C16.3976 4.774 16.2479 4.87079 16.083 4.93331C15.9182 4.99583 15.7419 5.02265 15.5659 5.012H10.5529C10.2108 4.98863 9.88873 4.84216 9.64625 4.59968C9.40377 4.3572 9.2573 4.03512 9.23393 3.693Z" fill="#061025"/>
<path d="M4.61688 6.859C4.61606 6.59931 4.69268 6.34528 4.83694 6.12935C4.9812 5.91343 5.18656 5.74541 5.42678 5.64676C5.667 5.54812 5.93118 5.52333 6.18556 5.57556C6.43993 5.6278 6.67297 5.75468 6.85488 5.94C6.98024 6.05894 7.08008 6.20215 7.1483 6.36092C7.21653 6.51969 7.25171 6.69069 7.25171 6.8635C7.25171 7.0363 7.21653 7.2073 7.1483 7.36607C7.08008 7.52484 6.98024 7.66806 6.85488 7.787C6.60607 8.0281 6.27794 8.1703 5.93188 8.187C5.75825 8.19109 5.5858 8.15744 5.42644 8.08838C5.26709 8.01932 5.12462 7.91649 5.00888 7.787C4.76958 7.53571 4.6302 7.20574 4.61688 6.859V6.859Z" fill="#061025"/>
</svg>
