<svg width="27" height="27" viewBox="0 0 27 27" fill="none" xmlns="http://www.w3.org/2000/svg">
<path d="M14.76 0H11.803V14.784H14.76V0ZM21.9 3.208L19.8 5.308C20.9976 6.26867 21.9637 7.48659 22.6265 8.87147C23.2894 10.2564 23.632 11.7727 23.629 13.308C23.6309 15.0551 23.1905 16.7743 22.3487 18.3053C21.507 19.8363 20.2913 21.1293 18.815 22.0637C17.3388 22.9982 15.65 23.5437 13.906 23.6494C12.1621 23.755 10.4198 23.4175 8.84148 22.6682C7.26318 21.9189 5.90028 20.7821 4.8798 19.364C3.85932 17.9459 3.21448 16.2924 3.00539 14.5579C2.79629 12.8233 3.02975 11.064 3.68399 9.44396C4.33824 7.82394 5.39198 6.39592 6.747 5.293L4.662 3.208C2.96541 4.65641 1.66062 6.50849 0.867819 8.59362C0.0750195 10.6787 -0.180288 12.9299 0.125418 15.1396C0.431125 17.3493 1.28801 19.4465 2.61714 21.2381C3.94627 23.0297 5.70489 24.4579 7.73099 25.3913C9.75708 26.3247 11.9855 26.7332 14.2109 26.5791C16.4364 26.4251 18.5872 25.7135 20.4654 24.5098C22.3436 23.3062 23.8887 21.6493 24.9583 19.6917C26.0279 17.7341 26.5877 15.5388 26.586 13.308C26.5875 11.3848 26.1689 9.48452 25.3595 7.73997C24.5501 5.99541 23.3694 4.44871 21.9 3.208V3.208Z" fill="#11223E"/>
</svg>
