<svg width="28" height="29" viewBox="0 0 28 29" fill="none" xmlns="http://www.w3.org/2000/svg">
<g filter="url(#filter0_dd)">
<path d="M14.711 0.25C15.4893 0.25 16.194 0.68225 16.5832 1.32033C16.7725 1.62908 16.8987 2.00987 16.8671 2.41125C16.8461 2.72 16.9408 3.02875 17.1091 3.31692C17.6455 4.19171 18.8339 4.52104 19.7595 4.02704C20.8007 3.43013 22.1155 3.79033 22.715 4.80921L23.4196 6.02363C24.0297 7.0425 23.6931 8.34954 22.6413 8.93617C21.7473 9.46104 21.4318 10.624 21.9682 11.5091C22.1365 11.787 22.3258 12.0237 22.6203 12.1678C22.9884 12.3633 23.2724 12.672 23.4722 12.9808C23.8614 13.6189 23.8298 14.401 23.4512 15.0906L22.715 16.3256C22.3258 16.9843 21.6001 17.3959 20.8533 17.3959C20.4852 17.3959 20.075 17.293 19.7385 17.0872C19.465 16.9122 19.1495 16.8505 18.8129 16.8505C17.7717 16.8505 16.8987 17.7047 16.8671 18.7235C16.8671 19.9071 15.8995 20.8333 14.69 20.8333H13.2596C12.0395 20.8333 11.0719 19.9071 11.0719 18.7235C11.0509 17.7047 10.1779 16.8505 9.13668 16.8505C8.7896 16.8505 8.47407 16.9122 8.21112 17.0872C7.87456 17.293 7.45385 17.3959 7.09625 17.3959C6.33898 17.3959 5.61327 16.9843 5.22411 16.3256L4.4984 15.0906C4.10924 14.4216 4.08821 13.6189 4.47736 12.9808C4.64564 12.672 4.96117 12.3633 5.31877 12.1678C5.61327 12.0237 5.80258 11.787 5.98138 11.5091C6.50727 10.624 6.19174 9.46104 5.29774 8.93617C4.25649 8.34954 3.91993 7.0425 4.51943 6.02363L5.22411 4.80921C5.83414 3.79033 7.13832 3.43013 8.19009 4.02704C9.10512 4.52104 10.2936 4.19171 10.83 3.31692C10.9983 3.02875 11.093 2.72 11.0719 2.41125C11.0509 2.00987 11.1666 1.62908 11.3664 1.32033C11.7556 0.68225 12.4603 0.270583 13.228 0.25H14.711ZM13.9853 7.63942C12.334 7.63942 10.9983 8.93617 10.9983 10.552C10.9983 12.1678 12.334 13.4542 13.9853 13.4542C15.6366 13.4542 16.9408 12.1678 16.9408 10.552C16.9408 8.93617 15.6366 7.63942 13.9853 7.63942Z" fill="url(#paint0_linear)"/>
</g>
<defs>
<filter id="filter0_dd" x="0.195801" y="0.25" width="27.5542" height="28.5833" filterUnits="userSpaceOnUse" color-interpolation-filters="sRGB">
<feFlood flood-opacity="0" result="BackgroundImageFix"/>
<feColorMatrix in="SourceAlpha" type="matrix" values="0 0 0 0 0 0 0 0 0 0 0 0 0 0 0 0 0 0 127 0" result="hardAlpha"/>
<feOffset dy="4"/>
<feGaussianBlur stdDeviation="2"/>
<feColorMatrix type="matrix" values="0 0 0 0 0.0196078 0 0 0 0 0.0823529 0 0 0 0 0.172549 0 0 0 1 0"/>
<feBlend mode="normal" in2="BackgroundImageFix" result="effect1_dropShadow"/>
<feColorMatrix in="SourceAlpha" type="matrix" values="0 0 0 0 0 0 0 0 0 0 0 0 0 0 0 0 0 0 127 0" result="hardAlpha"/>
<feOffset dy="4"/>
<feGaussianBlur stdDeviation="2"/>
<feColorMatrix type="matrix" values="0 0 0 0 0 0 0 0 0 0.0397358 0 0 0 0 0.0958333 0 0 0 1 0"/>
<feBlend mode="normal" in2="effect1_dropShadow" result="effect2_dropShadow"/>
<feBlend mode="normal" in="SourceGraphic" in2="effect2_dropShadow" result="shape"/>
</filter>
<linearGradient id="paint0_linear" x1="26.0196" y1="-14.4524" x2="-3.89848" y2="33.702" gradientUnits="userSpaceOnUse">
<stop offset="0.183075" stop-color="#425F8A"/>
<stop offset="0.848958" stop-color="#021024"/>
</linearGradient>
</defs>
</svg>
