<svg width="14" height="20" viewBox="0 0 14 20" fill="none" xmlns="http://www.w3.org/2000/svg">
<path d="M7.72807 19.289L13.0211 15.03C13.2035 14.8832 13.3202 14.6699 13.3454 14.4371C13.3707 14.2042 13.3024 13.9709 13.1556 13.7885C13.0088 13.606 12.7955 13.4893 12.5627 13.4641C12.3299 13.4389 12.0965 13.5072 11.9141 13.654L7.18507 17.462L2.45007 13.508C2.27039 13.3581 2.03854 13.2858 1.80552 13.3069C1.57251 13.328 1.35742 13.4408 1.20757 13.6205C1.05773 13.8001 0.985395 14.032 1.00649 14.265C1.02759 14.498 1.14039 14.7131 1.32007 14.863L6.61007 19.279C6.76649 19.4093 6.96319 19.4815 7.16679 19.4833C7.37039 19.4852 7.56834 19.4165 7.72707 19.289" fill="#00B6FA"/>
<path opacity="0.5" d="M13.0203 8.85397C13.1949 8.70474 13.3045 8.49333 13.3258 8.26462C13.3471 8.03591 13.2784 7.80789 13.1344 7.62897C12.9903 7.45005 12.7822 7.3343 12.5542 7.3063C12.3263 7.27829 12.0963 7.34023 11.9133 7.47897L7.18526 11.286L2.44926 7.33297C2.26957 7.18313 2.03772 7.11079 1.80471 7.13189C1.57169 7.15299 1.3566 7.26579 1.20676 7.44547C1.05691 7.62516 0.984579 7.85701 1.00568 8.09002C1.02678 8.32304 1.13957 8.53813 1.31926 8.68797L6.61026 13.103C6.76659 13.2335 6.96332 13.3058 7.16697 13.3076C7.37062 13.3095 7.56861 13.2407 7.72726 13.113L13.0203 8.85397Z" fill="#00B6FA"/>
<g opacity="0.2">
<path opacity="0.2" d="M13.0203 2.67798C13.1949 2.52874 13.3045 2.31734 13.3258 2.08863C13.3471 1.85991 13.2784 1.6319 13.1344 1.45298C12.9903 1.27406 12.7822 1.15831 12.5542 1.1303C12.3263 1.1023 12.0963 1.16424 11.9133 1.30298L7.18526 5.10998L2.44926 1.15698C2.26957 1.00713 2.03772 0.9348 1.80471 0.955897C1.57169 0.976995 1.3566 1.08979 1.20676 1.26948C1.05691 1.44916 0.984579 1.68101 1.00568 1.91403C1.02678 2.14704 1.13957 2.36213 1.31926 2.51198L6.61026 6.92698C6.76659 7.05749 6.96332 7.12981 7.16697 7.13164C7.37062 7.13346 7.56861 7.06467 7.72726 6.93698L13.0203 2.67798Z" fill="#00B6FA"/>
</g>
</svg>
