<svg width="14" height="20" viewBox="0 0 14 20" fill="none" xmlns="http://www.w3.org/2000/svg">
<path d="M6.62202 0.652583L1.32902 4.91158C1.14656 5.05838 1.02988 5.27165 1.00465 5.50448C0.979428 5.7373 1.04773 5.97061 1.19452 6.15308C1.34132 6.33555 1.55459 6.45223 1.78742 6.47746C2.02025 6.50268 2.25356 6.43438 2.43602 6.28758L7.16502 2.47958L11.9 6.43358C12.0797 6.58343 12.3116 6.65576 12.5446 6.63466C12.7776 6.61357 12.9927 6.50077 13.1425 6.32108C13.2924 6.1414 13.3647 5.90955 13.3436 5.67653C13.3225 5.44352 13.2097 5.22843 13.03 5.07858L7.74002 0.662583C7.5836 0.532245 7.38691 0.460039 7.18331 0.458216C6.97971 0.456393 6.78175 0.525066 6.62302 0.652583" fill="#00B6FA"/>
<path opacity="0.5" d="M1.32984 11.0876C1.15522 11.2368 1.04563 11.4482 1.02432 11.6769C1.00301 11.9057 1.07167 12.1337 1.21571 12.3126C1.35976 12.4915 1.56786 12.6073 1.79585 12.6353C2.02384 12.6633 2.25377 12.6013 2.43684 12.4626L7.16484 8.65559L11.9008 12.6086C12.0805 12.7584 12.3124 12.8308 12.5454 12.8097C12.7784 12.7886 12.9935 12.6758 13.1433 12.4961C13.2932 12.3164 13.3655 12.0846 13.3444 11.8515C13.3233 11.6185 13.2105 11.4034 13.0308 11.2536L7.73984 6.83859C7.5835 6.70807 7.38678 6.63575 7.18313 6.63393C6.97948 6.6321 6.78149 6.70089 6.62284 6.82859L1.32984 11.0876Z" fill="#00B6FA"/>
<g opacity="0.2">
<path opacity="0.2" d="M1.32984 17.2636C1.15522 17.4128 1.04563 17.6242 1.02432 17.8529C1.00301 18.0816 1.07167 18.3097 1.21571 18.4886C1.35976 18.6675 1.56786 18.7832 1.79585 18.8113C2.02384 18.8393 2.25377 18.7773 2.43684 18.6386L7.16484 14.8316L11.9008 18.7846C12.0805 18.9344 12.3124 19.0068 12.5454 18.9857C12.7784 18.9646 12.9935 18.8518 13.1433 18.6721C13.2932 18.4924 13.3655 18.2605 13.3444 18.0275C13.3233 17.7945 13.2105 17.5794 13.0308 17.4296L7.73984 13.0146C7.5835 12.8841 7.38678 12.8117 7.18313 12.8099C6.97948 12.8081 6.78149 12.8769 6.62284 13.0046L1.32984 17.2636Z" fill="#00B6FA"/>
</g>
</svg>
