<svg width="30" height="21" viewBox="0 0 30 21" xmlns="http://www.w3.org/2000/svg">
    <g fill="none" fill-rule="evenodd">
        <path d="M16.736 16.342a3.752 3.752 0 0 0-4.108.822l2.664 2.664 2.665-2.664a3.752 3.752 0 0 0-1.221-.822z" fill="#F9F9F9" fill-rule="nonzero"/>
        <path d="M17.023 15.649a4.492 4.492 0 0 1 1.464.985l.53.53-3.725 3.725-3.725-3.725.53-.53a4.492 4.492 0 0 1 3.195-1.33c.594 0 1.182.117 1.73.345zm-1.734 1.155a3 3 0 0 0-1.54.425l1.54 1.539 1.539-1.539a3 3 0 0 0-1.54-.425z" fill="#061025"/>
        <path d="M9.993 14.502a7.523 7.523 0 0 1 10.628 0l2.664-2.664a11.275 11.275 0 0 0-15.956-.003l2.664 2.667z" fill="#F9F9F9" fill-rule="nonzero"/>
        <path d="M20.092 15.03a6.773 6.773 0 0 0-9.568 0l-.53.53-3.723-3.723.527-.53a12.025 12.025 0 0 1 17.02 0l.53.53-3.726 3.723-.53-.53zm-10.075-1.567a8.278 8.278 0 0 1 10.581 0l1.609-1.609a10.53 10.53 0 0 0-13.8 0l-.001-.002 1.611 1.611z" fill="#061025"/>
        <path d="M28.585 6.507A18.8 18.8 0 0 0 2 6.507l2.664 2.664a15.045 15.045 0 0 1 21.257 0l2.664-2.664z" fill="#F9F9F9" fill-rule="nonzero"/>
        <path d="M25.391 9.702a14.3 14.3 0 0 0-20.2 0l-.53.53L.939 6.507l.53-.53a19.532 19.532 0 0 1 27.646 0l.53.53-3.724 3.725-.53-.53zm.518-1.577 1.605-1.605a18.049 18.049 0 0 0-24.443 0l1.605 1.605c2.9-2.65 6.69-4.112 10.617-4.1a15.668 15.668 0 0 1 10.616 4.1z" fill="#061025"/>
    </g>
</svg>
