<svg width="26" height="21" viewBox="0 0 26 21" fill="none" xmlns="http://www.w3.org/2000/svg">
<path d="M14.85 15.87C14.2783 15.325 13.5188 15.021 12.729 15.021C11.9392 15.021 11.1797 15.325 10.608 15.87C10.1885 16.2896 9.90281 16.8241 9.7871 17.406C9.67139 17.988 9.73083 18.5911 9.9579 19.1393C10.185 19.6874 10.5695 20.1559 11.0628 20.4856C11.5562 20.8152 12.1362 20.9911 12.7295 20.9911C13.3228 20.9911 13.9028 20.8152 14.3962 20.4856C14.8895 20.1559 15.274 19.6874 15.5011 19.1393C15.7282 18.5911 15.7876 17.988 15.6719 17.406C15.5562 16.8241 15.2705 16.2896 14.851 15.87H14.85ZM13.436 18.698C13.2456 18.88 12.9924 18.9816 12.729 18.9816C12.4656 18.9816 12.2124 18.88 12.022 18.698C11.9265 18.6057 11.8503 18.4954 11.7979 18.3734C11.7455 18.2514 11.7179 18.1202 11.7167 17.9874C11.7156 17.8546 11.7409 17.7229 11.7912 17.6C11.8415 17.4771 11.9157 17.3655 12.0096 17.2716C12.1035 17.1777 12.2151 17.1034 12.338 17.0532C12.4609 17.0029 12.5926 16.9776 12.7254 16.9787C12.8582 16.9799 12.9894 17.0075 13.1114 17.0599C13.2334 17.1123 13.3437 17.1885 13.436 17.284C13.6235 17.4715 13.7288 17.7258 13.7288 17.991C13.7288 18.2561 13.6235 18.5105 13.436 18.698Z" fill="#45D8BA"/>
<path d="M7.07202 12.334L8.48602 13.748C9.04319 13.1907 9.70467 12.7487 10.4327 12.4471C11.1607 12.1455 11.941 11.9903 12.729 11.9903C13.517 11.9903 14.2973 12.1455 15.0254 12.4471C15.7534 12.7487 16.4149 13.1907 16.972 13.748L18.386 12.334C17.6431 11.5911 16.7612 11.0018 15.7906 10.5997C14.82 10.1976 13.7796 9.99069 12.729 9.99069C11.6784 9.99069 10.6381 10.1976 9.66746 10.5997C8.69683 11.0018 7.8149 11.5911 7.07202 12.334Z" fill="#45D8BA"/>
<path d="M3.53687 8.79898L4.95087 10.213C7.01557 8.15361 9.8127 6.99712 12.7289 6.99712C15.645 6.99712 18.4422 8.15361 20.5069 10.213L21.9209 8.79898C19.4812 6.36442 16.1754 4.99713 12.7289 4.99713C9.28229 4.99713 5.97649 6.36442 3.53687 8.79898Z" fill="#45D8BA"/>
<path opacity="0.23" d="M0.000976562 5.26299L1.41498 6.67699C4.41818 3.68112 8.48699 1.99867 12.729 1.99867C16.971 1.99867 21.0398 3.68112 24.043 6.67699L25.457 5.26299C22.0786 1.89242 17.5012 -0.000488281 12.729 -0.000488281C7.95674 -0.000488281 3.37936 1.89242 0.000976562 5.26299Z" fill="white"/>
</svg>
